<svg xmlns="http://www.w3.org/2000/svg" width="40" height="40" fill="none" viewBox="0 0 40 40">
  <g class="category-home-icon">
    <g class="home">
      <g class="home">
        <path fill="#253017" d="M25.386 30H14.614C12.065 30 10 27.923 10 25.372v-6.9c0-1.267.781-2.86 1.786-3.642l5.014-3.911c1.507-1.174 3.916-1.23 5.48-.13l5.748 4.032C29.135 15.594 30 17.25 30 18.6v6.78A4.622 4.622 0 0 1 25.386 30Zm-7.73-17.982-5.014 3.91c-.66.522-1.247 1.705-1.247 2.543v6.9a3.23 3.23 0 0 0 3.219 3.232h10.772a3.221 3.221 0 0 0 3.219-3.222v-6.78c0-.893-.642-2.132-1.377-2.635l-5.749-4.032c-1.06-.745-2.81-.708-3.823.084Z" class="Vector"/>
        <path fill="#253017" d="M20 26.75c-.41 0-.75-.34-.75-.75v-3c0-.41.34-.75.75-.75s.75.34.75.75v3c0 .41-.34.75-.75.75Z" class="Vector"/>
      </g>
    </g>
  </g>
</svg>
