<svg xmlns="http://www.w3.org/2000/svg" width="40" height="40" fill="none" viewBox="0 0 40 40">
  <g class="category-art-icon">
    <g class="palette">
      <g class="palette">
        <path fill="#253017" d="M23.404 16.784a1.25 1.25 0 1 1 0-2.5 1.25 1.25 0 0 1 0 2.5Zm-4.498-.814a1.25 1.25 0 1 1 0-2.499 1.25 1.25 0 0 1 0 2.5Zm-3.502 2.72a1.25 1.25 0 1 1 0-2.5 1.25 1.25 0 0 1 0 2.5Zm-.969 4.216a1.25 1.25 0 1 1 0-2.5 1.25 1.25 0 0 1 0 2.5Zm2.219 3.792a1.25 1.25 0 1 1 0-2.5 1.25 1.25 0 0 1 0 2.5Z" class="Vector"/>
        <path stroke="#253017" stroke-linejoin="round" stroke-width="1.5" d="M29.25 20.25A9.25 9.25 0 1 0 20 29.5c1.318 0 2.224-1.28 2.329-2.594l.117-1.473a3 3 0 0 1 2.758-2.752l1.651-.129c1.28-.1 2.395-1.019 2.395-2.302Z" class="Vector"/>
      </g>
    </g>
  </g>
</svg>
