<svg xmlns="http://www.w3.org/2000/svg" width="40" height="40" fill="none" viewBox="0 0 40 40">
  <g class="category-language-icon">
    <g class="global">
      <g class="global">
        <path fill="#253017" d="M20 30c-5.516 0-10-4.484-10-10s4.484-10 10-10 10 4.484 10 10-4.484 10-10 10Zm0-18.605c-4.744 0-8.605 3.86-8.605 8.605 0 4.744 3.86 8.605 8.605 8.605 4.744 0 8.605-3.86 8.605-8.605 0-4.744-3.86-8.605-8.605-8.605Z" class="Vector"/>
        <path fill="#253017" d="M17.21 29.07h-.93a.703.703 0 0 1-.698-.698c0-.381.297-.688.679-.698a27.432 27.432 0 0 1 0-15.348.693.693 0 0 1-.68-.698c0-.382.317-.698.698-.698h.93c.224 0 .438.112.568.289a.7.7 0 0 1 .093.632 25.999 25.999 0 0 0 0 16.307.699.699 0 0 1-.093.633.733.733 0 0 1-.568.279Zm5.58 0a.693.693 0 0 1-.66-.92 25.997 25.997 0 0 0 0-16.308.697.697 0 1 1 1.321-.446 27.273 27.273 0 0 1 0 17.18.692.692 0 0 1-.66.494Z" class="Vector"/>
        <path fill="#253017" d="M20 24.837c-2.595 0-5.181-.363-7.674-1.098a.7.7 0 0 1-.698.68.703.703 0 0 1-.698-.698v-.93c0-.224.112-.438.289-.568a.699.699 0 0 1 .632-.093 25.997 25.997 0 0 0 16.307 0 .699.699 0 0 1 .633.093c.186.13.288.344.288.568v.93a.703.703 0 0 1-.698.698.693.693 0 0 1-.697-.68A27.251 27.251 0 0 1 20 24.837Zm8.372-6.93a.626.626 0 0 1-.223-.037 25.998 25.998 0 0 0-16.307 0 .697.697 0 0 1-.884-.438.71.71 0 0 1 .446-.883 27.272 27.272 0 0 1 17.182 0c.363.12.567.52.437.884a.678.678 0 0 1-.651.474Z" class="Vector"/>
      </g>
    </g>
  </g>
</svg>
