<svg xmlns="http://www.w3.org/2000/svg" width="40" height="40" fill="none" viewBox="0 0 40 40">
  <g class="category-business-icon">
    <g class="briefcase">
      <g class="briefcase">
        <path fill="currentColor" d="M23.49 30h-7.44c-4.298 0-5.098-2-5.303-3.944l-.697-7.451c-.103-.977-.13-2.419.837-3.498.837-.93 2.223-1.377 4.232-1.377h9.303c2.018 0 3.404.456 4.232 1.377.968 1.079.94 2.52.837 3.507l-.697 7.433C28.588 28 27.788 30 23.49 30Zm-8.372-14.884c-1.572 0-2.65.307-3.2.921-.455.503-.604 1.275-.483 2.428l.697 7.451c.158 1.47.558 2.689 3.917 2.689h7.441c3.35 0 3.759-1.219 3.917-2.698l.697-7.433c.121-1.162-.027-1.934-.483-2.437-.55-.614-1.628-.92-3.2-.92h-9.303Z" class="Vector"/>
        <path fill="currentColor" d="M23.49 15.116a.703.703 0 0 1-.697-.697v-.745c0-1.655 0-2.279-2.28-2.279h-1.488c-2.279 0-2.279.624-2.279 2.28v.744a.703.703 0 0 1-.698.697.703.703 0 0 1-.697-.697v-.745c0-1.637 0-3.674 3.674-3.674h1.488c3.675 0 3.675 2.037 3.675 3.674v.745a.703.703 0 0 1-.698.697Zm-3.72 9.303c-2.559 0-2.559-1.582-2.559-2.53v-.959c0-1.311.316-1.628 1.628-1.628h1.86c1.312 0 1.628.317 1.628 1.628v.93c0 .968 0 2.559-2.558 2.559Zm-1.163-3.721v1.19c0 .958 0 1.135 1.162 1.135 1.163 0 1.163-.149 1.163-1.144v-1.181h-2.325Z" class="Vector"/>
        <path fill="currentColor" d="M21.63 22.577a.694.694 0 0 1-.689-.614.7.7 0 0 1 .605-.782 14.675 14.675 0 0 0 6.79-2.679.693.693 0 0 1 .978.159.701.701 0 0 1-.159.976 16.153 16.153 0 0 1-7.442 2.94h-.083Zm-3.721.009h-.084a15.955 15.955 0 0 1-7.181-2.688.7.7 0 0 1-.186-.968.7.7 0 0 1 .967-.186 14.655 14.655 0 0 0 6.55 2.456c.38.047.66.39.613.772a.671.671 0 0 1-.679.614Z" class="Vector"/>
      </g>
    </g>
  </g>
</svg>
