<svg xmlns="http://www.w3.org/2000/svg" width="24" height="24" fill="none" viewBox="0 0 24 24">
  <g class="calendar">
    <g class="calendar">
      <path fill="#253017" d="M8.349 6.186a.703.703 0 0 1-.698-.698v-2.79c0-.382.316-.698.698-.698.381 0 .697.316.697.698v2.79a.703.703 0 0 1-.697.698Zm7.441 0a.703.703 0 0 1-.697-.698v-2.79c0-.382.316-.698.698-.698.381 0 .697.316.697.698v2.79a.703.703 0 0 1-.697.698Zm-6.976 8.139a.926.926 0 0 1-.354-.074.959.959 0 0 1-.307-.195.96.96 0 0 1-.27-.66c0-.122.029-.243.075-.354.047-.112.112-.214.195-.307a.96.96 0 0 1 .307-.195.95.95 0 0 1 1.014.195c.168.177.27.418.27.66 0 .056-.01.121-.018.186a.59.59 0 0 1-.056.168.704.704 0 0 1-.084.167c-.028.047-.074.093-.112.14a.978.978 0 0 1-.66.27Zm3.256 0a.926.926 0 0 1-.354-.074.96.96 0 0 1-.307-.195.96.96 0 0 1-.27-.66c0-.122.028-.243.075-.354.046-.112.112-.214.195-.307a.961.961 0 0 1 .307-.196.932.932 0 0 1 1.014.196c.168.177.27.418.27.66 0 .056-.01.121-.019.186a.593.593 0 0 1-.055.168.704.704 0 0 1-.084.167c-.028.047-.075.093-.112.14a.978.978 0 0 1-.66.27Zm3.256 0a.927.927 0 0 1-.354-.074.96.96 0 0 1-.307-.195 136.38 136.38 0 0 1-.111-.14.704.704 0 0 1-.084-.167.593.593 0 0 1-.056-.168 1.29 1.29 0 0 1-.019-.186.98.98 0 0 1 .27-.66.962.962 0 0 1 .307-.196.93.93 0 0 1 1.014.196c.168.177.27.418.27.66 0 .056-.01.121-.019.186a.593.593 0 0 1-.056.168.704.704 0 0 1-.083.167c-.028.047-.075.093-.112.14a.978.978 0 0 1-.66.27Zm-6.512 3.256a.926.926 0 0 1-.354-.074 1.074 1.074 0 0 1-.307-.195.978.978 0 0 1-.27-.66c0-.122.029-.243.075-.354a.867.867 0 0 1 .195-.307c.345-.344.977-.344 1.321 0 .168.177.27.418.27.66a.978.978 0 0 1-.27.66.978.978 0 0 1-.66.27Zm3.256 0a.978.978 0 0 1-.66-.27.978.978 0 0 1-.27-.66c0-.12.027-.242.074-.353a.87.87 0 0 1 .195-.307c.345-.344.977-.344 1.321 0a.868.868 0 0 1 .196.307.926.926 0 0 1 .074.353.978.978 0 0 1-.27.66.978.978 0 0 1-.66.27Zm3.256 0a.978.978 0 0 1-.66-.27.867.867 0 0 1-.196-.306.927.927 0 0 1-.075-.354c0-.12.028-.242.075-.353a.867.867 0 0 1 .195-.307.929.929 0 0 1 1.014-.196.708.708 0 0 1 .168.084c.046.028.093.075.14.112a.979.979 0 0 1 .269.66.978.978 0 0 1-.27.66.978.978 0 0 1-.66.27Zm4.651-7.591H4.163a.703.703 0 0 1-.698-.697c0-.382.316-.698.698-.698h15.814c.381 0 .697.316.697.698a.703.703 0 0 1-.697.698Z" class="Vector"/>
      <path fill="#253017" d="M15.79 22H8.35C4.953 22 3 20.046 3 16.65V8.744C3 5.35 4.953 3.395 8.349 3.395h7.442c3.395 0 5.349 1.954 5.349 5.35v7.906c0 3.395-1.954 5.349-5.35 5.349ZM8.35 4.79c-2.66 0-3.954 1.294-3.954 3.954v7.907c0 2.66 1.293 3.954 3.954 3.954h7.442c2.66 0 3.953-1.294 3.953-3.954V8.744c0-2.66-1.293-3.953-3.953-3.953H8.349Z" class="Vector"/>
    </g>
  </g>
</svg>
