<svg xmlns="http://www.w3.org/2000/svg" width="24" height="24" fill="none" viewBox="0 0 24 24">
  <g class="clock">
    <g class="clock">
      <path fill="currentColor" d="M12 22C6.484 22 2 17.516 2 12S6.484 2 12 2s10 4.484 10 10-4.484 10-10 10Zm0-18.605c-4.744 0-8.605 3.86-8.605 8.605 0 4.744 3.86 8.605 8.605 8.605 4.744 0 8.605-3.86 8.605-8.605 0-4.744-3.86-8.605-8.605-8.605Z" class="Vector"/>
      <path fill="currentColor" d="M15.451 15.656a.623.623 0 0 1-.353-.103l-2.884-1.72c-.716-.428-1.247-1.368-1.247-2.196V7.823c0-.381.317-.697.698-.697.382 0 .698.316.698.697v3.814c0 .335.279.828.567.996l2.884 1.72a.697.697 0 0 1 .242.959.717.717 0 0 1-.605.344Z" class="Vector"/>
    </g>
  </g>
</svg>
