<svg xmlns="http://www.w3.org/2000/svg" width="40" height="20" fill="none" viewBox="0 0 40 20">
  <g class="count">
    <g class="chevron-up">
      <g class="chevron-up">
        <path fill="#253017" d="M26.723 16.092a.57.57 0 0 1 .169-.408l5.015-5.015a.947.947 0 0 0 0-1.338l-5.015-5.015a.58.58 0 0 1 0-.815.58.58 0 0 1 .815 0l5.015 5.015a2.108 2.108 0 0 1 0 2.969l-5.015 5.014a.58.58 0 0 1-.815 0 .604.604 0 0 1-.17-.407Z" class="Vector"/>
      </g>
    </g>
    <g class="chevron-down">
      <g class="chevron-down">
        <path fill="#253017" d="M6.72 10c0-.538.208-1.077.616-1.484L12.35 3.5a.58.58 0 0 1 .815 0 .58.58 0 0 1 0 .815L8.151 9.331a.947.947 0 0 0 0 1.338l5.015 5.015a.58.58 0 0 1 0 .815.58.58 0 0 1-.815 0l-5.015-5.014A2.097 2.097 0 0 1 6.72 10Z" class="Vector"/>
      </g>
    </g>
  </g>
</svg>
