<svg xmlns="http://www.w3.org/2000/svg" width="24" height="24" fill="none" viewBox="0 0 24 24">
  <g class="cross">
    <g class="cross">
      <path fill="#253017" d="m16.744 8.287-8.486 8.486c-.29.29-.77.29-1.06 0a.755.755 0 0 1 0-1.06l8.485-8.486c.29-.29.77-.29 1.06 0 .29.29.29.77 0 1.06Z" class="Vector"/>
      <path fill="#253017" d="M16.744 16.773a.756.756 0 0 1-1.061 0L7.198 8.288a.755.755 0 0 1 0-1.061c.29-.29.77-.29 1.06 0l8.486 8.485c.29.29.29.77 0 1.06Z" class="Vector"/>
    </g>
  </g>
</svg>
