<svg xmlns="http://www.w3.org/2000/svg" width="24" height="24" fill="none" viewBox="0 0 24 24">
  <g class="eye">
    <g class="vuesax/outline/eye">
      <g class="eye">
        <path fill="#253017" stroke="#000" d="M12 8.17A3.832 3.832 0 0 1 15.83 12 3.832 3.832 0 0 1 12 15.83 3.832 3.832 0 0 1 8.17 12 3.832 3.832 0 0 1 12 8.17Zm0 .5A3.334 3.334 0 0 0 8.67 12 3.334 3.334 0 0 0 12 15.33 3.334 3.334 0 0 0 15.33 12 3.334 3.334 0 0 0 12 8.67Z" class="Vector"/>
        <path fill="#253017" stroke="#000" d="M12 3.48c3.541 0 6.948 2.078 9.318 5.789l.001.001c.467.727.716 1.713.716 2.727 0 1.013-.249 2.001-.717 2.734-2.37 3.711-5.777 5.789-9.318 5.789-3.551 0-6.958-2.078-9.328-5.789l-.001-.001-.165-.284c-.36-.69-.551-1.556-.551-2.443 0-1.013.249-2.001.717-2.734H2.67C5.05 5.556 8.459 3.48 12 3.48Zm0 .5c-3.443 0-6.674 2.067-8.9 5.56-.44.687-.642 1.59-.642 2.46 0 .868.2 1.77.64 2.457v.002C5.326 17.953 8.557 20.02 12 20.02c3.443 0 6.674-2.068 8.9-5.561h.001c.44-.686.642-1.59.642-2.46 0-.868-.202-1.772-.642-2.458C18.673 6.047 15.442 3.98 12 3.98Z" class="Vector"/>
      </g>
    </g>
  </g>
</svg>
