<svg xmlns="http://www.w3.org/2000/svg" width="24" height="24" fill="none" viewBox="0 0 24 24">
  <g class="global">
    <g class="global">
      <path fill="currentColor" d="M12 22C6.484 22 2 17.516 2 12S6.484 2 12 2s10 4.484 10 10-4.484 10-10 10Zm0-18.605c-4.744 0-8.605 3.86-8.605 8.605 0 4.744 3.86 8.605 8.605 8.605 4.744 0 8.605-3.86 8.605-8.605 0-4.744-3.86-8.605-8.605-8.605Z" class="Vector"/>
      <path fill="currentColor" d="M9.21 21.07h-.93a.703.703 0 0 1-.698-.698c0-.381.297-.688.679-.698a27.433 27.433 0 0 1 0-15.348.693.693 0 0 1-.68-.698c0-.382.317-.698.698-.698h.93c.224 0 .438.112.568.289a.7.7 0 0 1 .093.632 25.998 25.998 0 0 0 0 16.307.698.698 0 0 1-.093.633.732.732 0 0 1-.568.279Zm5.58 0a.693.693 0 0 1-.66-.92 25.997 25.997 0 0 0 0-16.308.697.697 0 1 1 1.32-.447 27.272 27.272 0 0 1 .001 17.182.692.692 0 0 1-.66.493Z" class="Vector"/>
      <path fill="currentColor" d="M12 16.837a27.14 27.14 0 0 1-7.674-1.098.7.7 0 0 1-.698.68.703.703 0 0 1-.698-.698v-.93c0-.224.112-.438.289-.568a.699.699 0 0 1 .632-.093 25.997 25.997 0 0 0 16.307 0 .699.699 0 0 1 .633.093c.186.13.288.344.288.568v.93a.703.703 0 0 1-.698.698.693.693 0 0 1-.697-.68A27.252 27.252 0 0 1 12 16.837Zm8.372-6.93a.625.625 0 0 1-.223-.037 25.998 25.998 0 0 0-16.307 0 .697.697 0 0 1-.884-.437.71.71 0 0 1 .446-.884 27.272 27.272 0 0 1 17.182 0c.363.12.567.52.437.884a.678.678 0 0 1-.651.474Z" class="Vector"/>
    </g>
  </g>
</svg>
