<svg xmlns="http://www.w3.org/2000/svg" width="24" height="24" fill="none" viewBox="0 0 24 24">
  <g class="logout">
    <g class="logout">
      <path fill="#253017" d="M8.867 22h.127c4.323 0 6.407-1.704 6.767-5.52a.732.732 0 0 0-.662-.8.744.744 0 0 0-.799.663c-.282 3.057-1.723 4.196-5.316 4.196h-.127c-3.963 0-5.365-1.402-5.365-5.365V8.826c0-3.963 1.402-5.365 5.365-5.365h.127c3.612 0 5.053 1.158 5.316 4.274.05.4.39.701.799.662a.731.731 0 0 0 .672-.788C15.44 3.733 13.346 2 8.994 2h-.127c-4.78 0-6.826 2.045-6.826 6.826v6.348C2.041 19.955 4.086 22 8.867 22Z" class="Vector"/>
      <path fill="#253017" d="M9.1 12.73h11.081c.4 0 .73-.33.73-.73 0-.4-.33-.73-.73-.73H9.101c-.4 0-.73.33-.73.73 0 .4.33.73.73.73Z" class="Vector"/>
      <path fill="#253017" d="M18.01 15.992c.185 0 .37-.068.516-.214l3.262-3.262a.735.735 0 0 0 0-1.032l-3.262-3.262a.735.735 0 0 0-1.032 0 .735.735 0 0 0 0 1.032L20.24 12l-2.746 2.746a.735.735 0 0 0 0 1.032.706.706 0 0 0 .516.214Z" class="Vector"/>
    </g>
  </g>
</svg>
