<svg xmlns="http://www.w3.org/2000/svg" width="24" height="24" fill="none" viewBox="0 0 24 24">
  <g class="user">
    <g class="user">
      <path fill="#253017" d="M11.988 12.698a5.356 5.356 0 0 1-5.349-5.35A5.357 5.357 0 0 1 11.99 2c2.948 0 5.348 2.4 5.348 5.349 0 2.949-2.4 5.349-5.349 5.349Zm0-9.303A3.962 3.962 0 0 0 8.035 7.35a3.962 3.962 0 0 0 3.953 3.953 3.962 3.962 0 0 0 3.954-3.953 3.962 3.962 0 0 0-3.954-3.954ZM19.98 22a.703.703 0 0 1-.699-.698c0-3.209-3.274-5.814-7.293-5.814-4.018 0-7.293 2.605-7.293 5.814a.703.703 0 0 1-.697.698.703.703 0 0 1-.698-.698c0-3.972 3.898-7.209 8.688-7.209 4.791 0 8.689 3.237 8.689 7.21a.703.703 0 0 1-.698.697Z" class="Vector"/>
    </g>
  </g>
</svg>
