<svg xmlns="http://www.w3.org/2000/svg" width="662" height="329" fill="none"><g clip-path="url(#a)"><path fill="#fff" d="M0 0h661.5v328.2H0z"/><path fill="#1A1B22" d="M-9-10h679v346H-9z"/><path fill="#fff" fill-rule="evenodd" d="M71 184v-43h1.5v43zm252 0v-43h1.5v43zm13 0v-43h1.5v43zm161 124H170v-1.5h327zm95-124v-43h1.5v43z" clip-rule="evenodd"/><path fill="#fff" d="M100 29h214v267H100z"/><path fill="#1A1B22" fill-rule="evenodd" d="M312.5 30.5h-211v264h211zM100 29v267h214V29z" clip-rule="evenodd"/><path fill="#fff" d="M369 29h214v267H369z"/><path fill="#1A1B22" fill-rule="evenodd" d="M581.5 30.5h-211v264h211zM369 29v267h214V29z" clip-rule="evenodd"/><path fill="#fff" d="M90 29h214v267H90z"/><path fill="#1A1B22" fill-rule="evenodd" d="M302.5 30.5h-211v264h211zM90 29v267h214V29z" clip-rule="evenodd"/><path fill="#fff" d="M359 29h214v267H359z"/><path fill="#1A1B22" fill-rule="evenodd" d="M571.5 30.5h-211v264h211zM359 29v267h214V29z" clip-rule="evenodd"/><path fill="#fff" d="M79 29h214v267H79z"/><path fill="#1A1B22" fill-rule="evenodd" d="M291.5 30.5h-211v264h211zM79 29v267h214V29z" clip-rule="evenodd"/><path fill="#fff" d="M348 29h214v267H348z"/><path fill="#1A1B22" fill-rule="evenodd" d="M560.5 30.5h-211v264h211zM348 29v267h214V29z" clip-rule="evenodd"/><path fill="#1A1B22" fill-rule="evenodd" d="M431.9 42.8a36.5 36.5 0 0 1 26.6 5.6.8.8 0 0 1-1 1.2 35 35 0 0 0-25.8-5.1.7.7 0 0 1-1.2.5 1 1 0 0 1-.4-.7c0-.3.2-.6.3-.7a3 3 0 0 1 1.5-.8m36.7 2.2c-2 .3-3.8.8-4.8 1.2a.8.8 0 0 1-.6-1.4c1.2-.4 3-1 5.2-1.3 2-.3 4.4-.4 6.3.3a21.8 21.8 0 0 1 14 11.9.7.7 0 1 1-1.4.6 20.3 20.3 0 0 0-13-11c-1.7-.6-3.7-.6-5.7-.3m-.1 6.3c.4 0 .8.3.8.7 0 1.6.4 5.6 2.3 8.6a57.8 57.8 0 0 0 9 10.5l.4.1a.8.8 0 0 1 0 1.5c-.4 0-.8-.2-1.2-.4a59.3 59.3 0 0 1-9.5-11 19.7 19.7 0 0 1-2.6-9.3c0-.4.4-.8.8-.8zm-6.2 2c.3.1.5.6.4 1-.5 1.5-.7 6.4 4.4 12.2 3.2 3.7 5.9 6 7.8 7.3a8.5 8.5 0 0 0 2.4 1.2v-.1l-.3-.8-1-1.6a.8.8 0 0 1 1-1c.4.5 1 1.2 1.3 2l.5 1-.1 1.3c-.2.4-.6.6-1 .7l-1-.1c-.7-.2-1.6-.7-2.6-1.3-2-1.4-4.9-3.8-8.2-7.6-5.3-6.2-5.4-11.6-4.6-13.8.1-.3.6-.5 1-.4m-26.5 3.9c.2-.4.6-.6 1-.4 2.7 1.2 11 3.5 14.9 4.5a.8.8 0 0 1-.4 1.4 167 167 0 0 1-15.1-4.5.7.7 0 0 1-.4-1m-1.4 11.3c.2-.3.7-.3 1-.1a18 18 0 0 0 6.7 3.4.8.8 0 1 1-.2 1.4c-1.2-.2-4-1.1-7.3-3.6a.8.8 0 0 1-.2-1zm26.6 2.8c-1.6 0-2.2 1-2.3 1.4a.8.8 0 0 1-1.4-.4c.2-1 1.3-2.5 3.7-2.5a5 5 0 0 1 3.3 1.5c.8.8 1.5 1.7 1.9 2.3a.7.7 0 1 1-1.4.8 9 9 0 0 0-1.6-2c-.7-.7-1.5-1.2-2.2-1.2zm24.2 5.9c-1.4.8-2.6 2-3 2.7a.7.7 0 1 1-1.3-.8c.6-1 2-2.3 3.5-3.2s3.4-1.6 5-.5c1.6 1 2.5 3.4 1.8 6.3-.7 3-2.9 6.6-7.7 10.4a.8.8 0 0 1-1-1.2c4.7-3.7 6.7-7 7.2-9.5.6-2.6-.3-4.2-1.1-4.8-.8-.5-2-.3-3.4.6M451 83.4c.3.3.3.8 0 1.1l-.6.7c-1 1-2.2 2.3-3.2 3.7-1.3 1.8-2.2 3.6-2 5l.3.3 1 .3a13 13 0 0 0 1.7.2h.9a.7.7 0 1 1-.2 1.5h-.8a79 79 0 0 1-2-.2l-1.4-.5c-.4-.3-.8-.7-1-1.4-.2-2 1-4.2 2.3-6a42 42 0 0 1 4-4.6c.2-.3.7-.3 1 0zm-16 8.4c.4-.1.8.1.8.5.7 3.4 2.3 8.3 5 12.5 2.6 4.3 6.3 7.8 11 8.7.7.2 1.5.3 2.3.3a39 39 0 0 0 7.8-.8l5.7-1.8c5.3-2.4 8.4-6 9.8-8.6a.8.8 0 0 1 1.4.8c-1 1.7-2.7 3.9-5.1 5.8l-1 1.7a98 98 0 0 1-7.1 10.6l-1.2 1.1-.8.5-.6.2a.8.8 0 0 1-.4-.2 1 1 0 0 1-.3-.3v-.2a40 40 0 0 1-.9-8l-1 .2a265 265 0 0 1-9.8 10l-.4.3-.6.2a.9.9 0 0 1-.8-.5l-.1-.5v-1c0-.7.3-1.7.5-2.8l1.5-5.7c-5-1.2-8.6-5-11.2-9.2a41.8 41.8 0 0 1-5.1-13c-.1-.4.1-.8.6-.8m17 23.2a105 105 0 0 0-1.9 8l.4-.3a75.5 75.5 0 0 0 7.6-7.7 42 42 0 0 1-6 0zm10.8-.8a39.4 39.4 0 0 0 .6 7.1l1-1a91 91 0 0 0 6-8.7l-2.4.9c-1.6.7-3.3 1.2-5.2 1.7m-.3-13.9c.3.3.3.8 0 1a9 9 0 0 1-7.8 3.5c-2.5-.2-4.8-1.3-6.1-2.3a.8.8 0 0 1 .8-1.2 11 11 0 0 0 5.4 2c2.2.1 4.6-.5 6.6-2.9.3-.3.8-.3 1 0zm-13.3 17c0 .5-.2.8-.6.8-2.5.2-5.4 1.2-8 2.3a47 47 0 0 0-6.2 3.1.7.7 0 1 1-.8-1.2c1.4-.9 3.7-2.2 6.4-3.3s5.7-2.1 8.4-2.3c.5 0 .8.2.8.6" clip-rule="evenodd"/><path fill="#1A1B22" fill-rule="evenodd" d="M455 118.8c.4 0 .8.3.8.7 0 1 0 2.3.5 3.4.2.5.4.9.7 1.1q.3.3.9.3c1-.2 1.9-.7 2.6-1.4.6-.6 1.1-1.3 1.3-1.7a.7.7 0 1 1 1.4.6 8 8 0 0 1-1.7 2.2c-.9.8-2 1.5-3.4 1.7-.8.2-1.5 0-2-.5q-.9-.75-1.2-1.8c-.5-1.3-.6-2.9-.6-3.9 0-.4.3-.8.7-.8zm51.7 17c.4-.1.9 0 1 .4.8 2.4 2.6 8 3 11.7.3 2.5-.7 4.4-2 5.6a7.4 7.4 0 0 1-4.7 1.8h-75.5c-1.8 0-3.1 0-4.2-.2-1 0-2-.2-2.6-.5-.7-.2-1.2-.6-1.5-1.1-.4-.5-.6-1.1-.9-1.7-.3-.7-.3-1.5-.3-2.5s0-2 .2-3l1-6a.8.8 0 0 1 1.5.4 58.4 58.4 0 0 0-1.2 8.6c0 1 0 1.6.2 2 .2.6.4 1 .7 1.3.2.3.4.5.9.6a52 52 0 0 0 6.2.5H504a6 6 0 0 0 3.6-1.3c1.1-1 1.9-2.3 1.7-4.3a63 63 0 0 0-3-11.3c-.1-.4 0-.9.4-1" clip-rule="evenodd"/><path fill="#1A1B22" d="M463 81c0 1.7-.7 3-1.5 3s-1.5-1.3-1.5-3 .7-3 1.5-3 1.5 1.3 1.5 3"/><path fill="#1A1B22" fill-rule="evenodd" d="M186 85.3c0-.5.3-.8.8-.8h48.4a.8.8 0 0 1 0 1.5h-48.4a.8.8 0 0 1-.8-.8zm-88 82c0-.5.3-.8.8-.8h167.4a.8.8 0 0 1 0 1.5H98.8a.8.8 0 0 1-.8-.8zm0 8c0-.5.3-.8.8-.8h167.4a.8.8 0 0 1 0 1.5H98.8a.8.8 0 0 1-.8-.8zm86 17c0-.5.3-.8.8-.8h28.4a.8.8 0 0 1 0 1.5h-28.4a.8.8 0 0 1-.8-.8zm0 9c0-.5.3-.8.8-.8h28.4a.8.8 0 0 1 0 1.5h-28.4a.8.8 0 0 1-.8-.8zm0 9c0-.5.3-.8.8-.8h28.4a.8.8 0 0 1 0 1.5h-28.4a.8.8 0 0 1-.8-.8zm2-117c0-.5.3-.8.8-.8h48.4a.8.8 0 0 1 0 1.5h-48.4a.8.8 0 0 1-.8-.8zm0 7c0-.5.3-.8.8-.8h48.4a.8.8 0 0 1 0 1.5h-48.4a.8.8 0 0 1-.8-.8zm84.5-37.8h-83v12h83zM186 61v15h86V61zm-3.5 73.5h-83v22h83zM98 133v25h86v-25zm172.2 1.4-.8 6.3-.3 2-.8 6.4-.6 5.5a.8.8 0 0 0 1.6 0l.5-5.3.8-6.4c0-.7.2-1.3.3-2a289 289 0 0 0 1-9.8l-.1-.4c0-.1-.2-.3-.5-.4s-.6 0-.7.1a1 1 0 0 0-.2.2v.2l-.3.6c-.5 1-1.1 2.3-2.5 4.2a36.4 36.4 0 0 1-9.5 8.4.7.7 0 1 0 .8 1.3 37.9 37.9 0 0 0 11.3-10.9m-68-2c-1.1.5-2 1.5-2 3.2a.7.7 0 1 1-1.4 0c0-2.3 1.1-3.8 2.7-4.6s3.5-.9 5.1-.6a6 6 0 0 1 4.7 4c.8 2.4-.2 5.7-4.3 9.8l-.2.2c-5.5 5.5-7.4 7.4-8.6 8.4h3.5c3.3 0 7.4-.3 10.3-.4a.8.8 0 1 1 0 1.5 277 277 0 0 1-14.4.4l-1.2-.2-.3-.1c-.1 0-.3-.2-.4-.5a.8.8 0 0 1 0-.7l.4-.3c1.4-1 1.8-1.4 9.9-9.4 3.9-4 4.4-6.7 4-8.3-.6-1.7-2.3-2.7-3.6-3a7 7 0 0 0-4.2.6m41 0c-1.1.5-2 1.5-2 3.2a.7.7 0 1 1-1.4 0c0-2.3 1.1-3.8 2.7-4.6s3.5-.9 5.1-.6a6 6 0 0 1 4.7 4c.8 2.4-.2 5.7-4.3 9.8l-.2.2c-5.5 5.5-7.4 7.4-8.6 8.4h3.5c3.3 0 7.4-.3 10.3-.4a.8.8 0 1 1 0 1.5 277 277 0 0 1-14.4.4l-1.2-.2-.3-.1c-.1 0-.3-.2-.4-.5a.8.8 0 0 1 0-.7l.4-.3c1.4-1 1.8-1.4 9.9-9.4 3.9-4 4.4-6.7 4-8.3-.6-1.7-2.3-2.7-3.6-3a7 7 0 0 0-4.2.6m-29 12.2c0-6.8 4.8-11.2 9.8-11.2 3.5 0 6 1.6 7.2 4.1a14 14 0 0 1 1 8.8c-.5 3.1-2 5.3-3.8 6.7a10 10 0 0 1-5.9 1.9 8 8 0 0 1-5.2-2.6c-1.7-1.7-3-4.2-3-7.7zm9.8-9.7c-4 0-8.3 3.6-8.3 9.7 0 3 1.2 5.3 2.6 6.7 1.5 1.4 3.2 2 4.2 2 1.6 0 3.5-.4 5-1.5 1.5-1.2 2.8-3 3.3-5.8.4-2.9.2-5.7-.9-7.8-1-2-3-3.3-5.9-3.3m-39.2 102.2c4.3-.5 6.8 1.8 7.4 4.2.2.8 0 1.7-.5 2.7a18 18 0 0 1-2.2 3.3c-2 2.5-5.2 5.6-9.4 8.8-6.2 4.8-14.9 10-25.8 14.4l-.4 1.4c-.7 2.8-.6 4.9.1 6.3s2 2.3 4 2.6a67 67 0 0 0 25.6-5.5l-.3-2.4c-.1-1.8.3-3.6 1-5.2 2.4-5 6.9-7.3 10.1-7.2 1.6 0 3.1.8 3.6 2.4.4 1.5-.2 3.4-1.9 5.6a24.7 24.7 0 0 1-7.6 6l-2.8 1.4.4.5c.8.8 2 1.3 3.9 1 1.8-.4 4.3-1.5 7.5-4a55.2 55.2 0 0 0 10-10.5l.1-.2.1-.1v-.1h.1l.1-.1.2-.1.8.1c.2.2.2.6.2.7a1.3 1.3 0 0 1 0 .2l-.1.1-.1.1-.3.4c-1 1.4-2.3 3.6-3.3 5.6-.4 1-.8 2-.9 2.7-.1.8 0 1.1.1 1.3h.4l1.2-.1a73.7 73.7 0 0 0 11.5-6 .7.7 0 1 1 .8 1.2 75 75 0 0 1-8 4.7c-1.4.7-2.8 1.2-4 1.5l-1.5.3a2 2 0 0 1-1.4-.6c-.7-.6-.7-1.7-.6-2.5.1-.7.4-1.4.7-2.2a44 44 0 0 1-5.1 4.8c-3.3 2.5-6 3.9-8.3 4.2-2.2.4-4-.1-5.2-1.3l-.7-1a68.6 68.6 0 0 1-26.4 5.7c-2.4-.2-4.3-1.4-5.2-3.3-1-2-1-4.4-.3-7.3v-.4c-3.1 1.3-6.6 2.4-10.2 3.5a.8.8 0 0 1-.4-1.4c4-1.2 7.7-2.5 11.3-4 1.9-5.4 6.3-12.3 13.4-19.8 8-8.6 14-11.8 18.3-12.4m-29.9 31.5c10.3-4.2 18.4-9.2 24.3-13.7 4.2-3.2 7.2-6.1 9.1-8.5 1-1.2 1.7-2.3 2-3 .5-1 .5-1.5.5-1.7-.4-1.6-2.2-3.5-5.8-3-3.8.4-9.5 3.4-17.5 11.8a62.4 62.4 0 0 0-12.6 18.1m30.2 6 2.7-1.4c3-1.7 5.6-3.6 7.1-5.7 1.6-2 1.8-3.4 1.6-4.2-.2-.7-.9-1.2-2.2-1.3-2.5-.1-6.5 1.8-8.6 6.3-.7 1.4-1 3-1 4.5z" clip-rule="evenodd"/><path fill="#fff" d="M-29 61h93v163h-93z"/><path fill="#1A1B22" fill-rule="evenodd" d="M62.5 62.5h-90v160h90zM-29 61v163h93V61z" clip-rule="evenodd"/><path fill="#fff" d="M-40 61h93v163h-93z"/><path fill="#1A1B22" fill-rule="evenodd" d="M51.5 62.5h-90v160h90zM-40 61v163h93V61z" clip-rule="evenodd"/><path fill="#fff" d="M-50 61h93v163h-93z"/><path fill="#1A1B22" fill-rule="evenodd" d="M41.5 62.5h-90v160h90zM-50 61v163h93V61z" clip-rule="evenodd"/><path fill="#fff" d="M149-10h93v28h-93z"/><path fill="#1A1B22" fill-rule="evenodd" d="M240.5-8.5h-90v25h90zM149-10v28h93v-28z" clip-rule="evenodd"/><path fill="#fff" d="M149 316h93v28h-93z"/><path fill="#1A1B22" fill-rule="evenodd" d="M240.5 317.5h-90v25h90zM149 316v28h93v-28z" clip-rule="evenodd"/><path fill="#fff" d="M404-10h93v28h-93z"/><path fill="#1A1B22" fill-rule="evenodd" d="M495.5-8.5h-90v25h90zM404-10v28h93v-28z" clip-rule="evenodd"/><path fill="#fff" d="M404 316h93v28h-93z"/><path fill="#1A1B22" fill-rule="evenodd" d="M495.5 317.5h-90v25h90zM404 316v28h93v-28z" clip-rule="evenodd"/><path fill="#fff" d="M601 61h93v163h-93z"/><path fill="#1A1B22" fill-rule="evenodd" d="M692.5 62.5h-90v160h90zM601 61v163h93V61z" clip-rule="evenodd"/><path fill="#fff" d="M223-21h215v163H223z"/><path fill="#1A1B22" fill-rule="evenodd" d="M436.5-19.5h-212v160h212zM223-21v163h215V-21z" clip-rule="evenodd"/><path fill="#fff" d="M223 184h215v163H223z"/><path fill="#1A1B22" fill-rule="evenodd" d="M436.5 185.5h-212v160h212zM223 184v163h215V184z" clip-rule="evenodd"/><path fill="#fff" d="M-40-21h215v163H-40z"/><path fill="#1A1B22" fill-rule="evenodd" d="M173.5-19.5h-212v160h212zM-40-21v163h215V-21z" clip-rule="evenodd"/><path fill="#fff" d="M-40 184h215v163H-40z"/><path fill="#1A1B22" fill-rule="evenodd" d="M173.5 185.5h-212v160h212zM-40 184v163h215V184z" clip-rule="evenodd"/><path fill="#fff" d="M486-21h215v163H486z"/><path fill="#1A1B22" fill-rule="evenodd" d="M699.5-19.5h-212v160h212zM486-21v163h215V-21z" clip-rule="evenodd"/><path fill="#fff" d="M486 184h215v163H486z"/><path fill="#1A1B22" fill-rule="evenodd" d="M699.5 185.5h-212v160h212zM486 184v163h215V184zM-4 63.3c0-.5.3-.8.8-.8h83.5a.8.8 0 0 1 0 1.5H-3.3a.8.8 0 0 1-.8-.8zm246 30c0-.5.3-.8.8-.8h97.4a.8.8 0 0 1 0 1.5h-97.4a.8.8 0 0 1-.8-.8zm271-84c0-.5.3-.8.8-.8h132.5a.8.8 0 0 1 0 1.5H513.8a.8.8 0 0 1-.8-.8zm-271 94c0-.5.3-.8.8-.8h97.4a.8.8 0 0 1 0 1.5h-97.4a.8.8 0 0 1-.8-.8zm271-84c0-.5.3-.8.8-.8h132.5a.8.8 0 0 1 0 1.5H513.8a.8.8 0 0 1-.8-.8zm-271 95c0-.5.3-.8.8-.8h58.4a.8.8 0 0 1 0 1.5h-58.4a.8.8 0 0 1-.8-.8zm12-77c0-.5.3-.8.8-.8h59.4a.8.8 0 0 1 0 1.5h-59.4a.8.8 0 0 1-.8-.8zm88 0c0-.5.3-.8.8-.8h59.4a.8.8 0 0 1 0 1.5h-59.4a.8.8 0 0 1-.8-.8z" clip-rule="evenodd"/><path fill="#1A1B22" fill-rule="evenodd" d="M515 319.3c0-.5.3-.8.8-.8h50.5a.8.8 0 0 1 0 1.5h-50.5a.8.8 0 0 1-.8-.8zm83 0c0-.5.3-.8.8-.8h50.5a.8.8 0 0 1 0 1.5h-50.5a.8.8 0 0 1-.8-.8zm-344-298c0-.5.3-.8.8-.8h59.4a.8.8 0 0 1 0 1.5h-59.4a.8.8 0 0 1-.8-.8zm-182 280c0-.5.3-.8.8-.8h59.5a.8.8 0 0 1 0 1.5H72.7a.8.8 0 0 1-.7-.8zm270-280c0-.5.3-.8.8-.8h59.4a.8.8 0 0 1 0 1.5h-59.4a.8.8 0 0 1-.8-.8zm190 29c0-.5.3-.8.8-.8h76.5a.8.8 0 0 1 0 1.5h-76.5a.8.8 0 0 1-.8-.8zm0 30c0-.5.3-.8.8-.8h33.5a.8.8 0 0 1 0 1.5h-33.5a.8.8 0 0 1-.8-.8zm0 30c0-.5.3-.8.8-.8h54.5a.8.8 0 0 1 0 1.5h-54.5a.8.8 0 0 1-.8-.8zm-278-98c0-.5.3-.8.8-.8h59.4a.8.8 0 0 1 0 1.5h-59.4a.8.8 0 0 1-.8-.8zm-182 280c0-.5.3-.8.8-.8h72.5a.8.8 0 0 1 0 1.5H72.7a.8.8 0 0 1-.7-.8zm271 4c0-.5.3-.8.8-.8h72.4a.8.8 0 0 1 0 1.5h-72.4a.8.8 0 0 1-.8-.8zm0 7c0-.5.3-.8.8-.8h72.4a.8.8 0 0 1 0 1.5h-72.4a.8.8 0 0 1-.8-.8zm0 8c0-.5.3-.8.8-.8h55.4a.8.8 0 0 1 0 1.5h-55.4a.8.8 0 0 1-.8-.8zm-271 2c0-.5.3-.8.8-.8h72.5a.8.8 0 0 1 0 1.5H72.7a.8.8 0 0 1-.7-.8zm167 5c0-.5.3-.8.8-.8h82.4a.8.8 0 0 1 0 1.5h-82.4a.8.8 0 0 1-.8-.8zm103-306c0-.5.3-.8.8-.8h59.4a.8.8 0 0 1 0 1.5h-59.4a.8.8 0 0 1-.8-.8zm190 29c0-.5.3-.8.8-.8h76.5a.8.8 0 0 1 0 1.5h-76.5a.8.8 0 0 1-.8-.8zm0 30c0-.5.3-.8.8-.8h76.5a.8.8 0 0 1 0 1.5h-76.5a.8.8 0 0 1-.8-.8zm0 30c0-.5.3-.8.8-.8h59.5a.8.8 0 0 1 0 1.5h-59.5a.8.8 0 0 1-.8-.8zm-533-26c0-.5.3-.8.8-.8h80.5a.8.8 0 0 1 0 1.5H-.3a.8.8 0 0 1-.8-.8zm0 13c0-.5.3-.8.8-.8h80.5a.8.8 0 0 1 0 1.5H-.3a.8.8 0 0 1-.8-.8zm0 141c0-.5.3-.8.8-.8h66.5a.8.8 0 0 1 0 1.5H-.3a.8.8 0 0 1-.8-.8zm0 12c0-.5.3-.8.8-.8h78.5a.8.8 0 0 1 0 1.5H-.3a.8.8 0 0 1-.8-.8zm55-192c0-.5.3-.8.8-.8h25.5a.8.8 0 0 1 0 1.5H54.8a.8.8 0 0 1-.8-.8zm-37-27c0-.5.3-.8.8-.8h32.5a.8.8 0 0 1 0 1.5H17.8a.8.8 0 0 1-.8-.8zm71 27c0-.5.3-.8.8-.8h10.5a.8.8 0 0 1 0 1.5H88.8a.8.8 0 0 1-.8-.8zm36 77.2a29.5 29.5 0 1 0 0-59 29.5 29.5 0 0 0 0 59m0 1.5a31 31 0 1 0 0-62 31 31 0 0 0 0 62m262-1.5a29.5 29.5 0 1 0 0-59 29.5 29.5 0 0 0 0 59m0 1.5a31 31 0 1 0 0-62 31 31 0 0 0 0 62m264-1.5a29.5 29.5 0 1 0 0-59 29.5 29.5 0 0 0 0 59m0 1.5a31 31 0 1 0 0-62 31 31 0 0 0 0 62" clip-rule="evenodd"/><path fill="#1A1B22" d="M248 12.5a2.5 2.5 0 1 1-5 0 2.5 2.5 0 0 1 5 0m-182 280a2.5 2.5 0 1 1-5 0 2.5 2.5 0 0 1 5 0m0 21a2.5 2.5 0 1 1-5 0 2.5 2.5 0 0 1 5 0m271-301a2.5 2.5 0 1 1-5 0 2.5 2.5 0 0 1 5 0m-89 24a2.5 2.5 0 1 1-5 0 2.5 2.5 0 0 1 5 0m89 0a2.5 2.5 0 1 1-5 0 2.5 2.5 0 0 1 5 0m173 282a2.5 2.5 0 1 1-5 0 2.5 2.5 0 0 1 5 0m83 0a2.5 2.5 0 1 1-5 0 2.5 2.5 0 0 1 5 0"/><path fill="#1A1B22" fill-rule="evenodd" d="M36.5 287.5h-62v12h62zM-27 286v15h65v-15zm348.5 11.5h-81v12h81zM239 296v15h84v-15zm451.5-10.5h-81v15h81zM608 284v18h84v-18zM36.5 308.5h-62v12h62zM-27 307v15h65v-15zm677-39.5a29.5 29.5 0 1 0 0-59 29.5 29.5 0 0 0 0 59m0 1.5a31 31 0 1 0 0-62 31 31 0 0 0 0 62m-264-1.5a29.5 29.5 0 1 0 0-59 29.5 29.5 0 0 0 0 59m0 1.5a31 31 0 1 0 0-62 31 31 0 0 0 0 62m-262-1.5a29.5 29.5 0 1 0 0-59 29.5 29.5 0 0 0 0 59m0 1.5a31 31 0 1 0 0-62 31 31 0 0 0 0 62M-4 49.3c0-.5.3-.8.8-.8h48.5a.8.8 0 0 1 0 1.5H-3.3a.8.8 0 0 1-.8-.8zm334.5 8.2h-87v20h87zM242 56v23h90V56zm272.7 41.6-8 1.1a.8.8 0 0 1-.3-1.4 332 332 0 0 1 13.1-1.6l.3.1a.8.8 0 0 1 .4 1l-.1.2-.2.2-.4.3-1.3.9a140 140 0 0 1-7.7 4.3 75 75 0 0 1 5.8.1l1.7.4c.4.2 1 .5 1.2 1a5.7 5.7 0 0 1-.4 5.9c-1.6 2.3-5.5 4.1-13.3 4.6a.7.7 0 1 1 0-1.4c7.7-.5 10.8-2.4 12-4.1 1.3-1.7.8-3.5.3-4.4l-.4-.2-1.3-.3a27.4 27.4 0 0 0-6.6 0h-.8a13 13 0 0 1-1.3 0l-.4-.1-.3-.5.1-.6.4-.3a260 260 0 0 0 9.8-5.5zM535 239l.4-.2c.8-.6 2-1 3.1-1 1.3 0 2.6.2 3.5.7l.6.4c1-2.8 3.6-4.8 6-6a.7.7 0 1 1 .7 1.3c-3 1.5-5.5 3.8-5.5 6.8 0 1.7.3 3.7 1.5 5.4 1.1 1.6 3.2 2.8 6.7 2.8 3.6 0 6-1.1 7.5-2.8a8.7 8.7 0 0 0 2.3-5.9c0-.3-.2-1-.6-1.7-.4-.8-1-1.7-1.9-2.5-1.6-1.7-4-3-7.3-3a.8.8 0 0 1 0-1.6 11.7 11.7 0 0 1 10.5 6.4c.5.9.8 1.7.8 2.4 0 2.4-.9 5-2.7 7s-4.7 3.3-8.6 3.3c-4 0-6.4-1.5-8-3.5-1.4-2-1.7-4.4-1.8-6.3 0-.4-.3-.8-1-1.2a6 6 0 0 0-2.7-.6c-.8 0-1.6.4-2.2.8s-1 .8-1 1.1c0 2-.6 3.5-1.5 4.7s-2.1 2-3.4 2.5c-2.5 1-5.4 1-6.9 1-1.1 0-3.4-.3-5.4-1.5a7.4 7.4 0 0 1-3.9-6.8c0-3.5 1.3-5.7 3.2-7.1a14.5 14.5 0 0 1 9.6-2c1.1.2 2.4.6 3.6 1.3 2 1 3.9 3 4.5 5.9zm-8.2-5.6c-1-.2-1.8-.2-2.2-.2a13 13 0 0 0-6.3 2c-1.5 1-2.5 2.8-2.5 5.8a6 6 0 0 0 3 5.5c1.8 1 3.8 1.3 4.7 1.3 1.5 0 4.1 0 6.4-1 1-.4 2-1 2.7-2 .7-.8 1.1-2 1.1-3.8a7 7 0 0 0-3.8-6.5c-1-.6-2.2-1-3.1-1.1M412 163.3c0-.5.3-.8.8-.8h96.4a.8.8 0 0 1 0 1.5h-96.4a.8.8 0 0 1-.8-.8zm0 12c0-.5.3-.8.8-.8h96.4a.8.8 0 0 1 0 1.5h-96.4a.8.8 0 0 1-.8-.8zm35 12c0-.5.3-.8.8-.8h21.4a.8.8 0 0 1 0 1.5h-21.4a.8.8 0 0 1-.8-.8zm-3 21c0-.5.3-.8.8-.8h30.4a.8.8 0 0 1 0 1.5h-30.4a.8.8 0 0 1-.8-.8zm0 11c0-.5.3-.8.8-.8h30.4a.8.8 0 0 1 0 1.5h-30.4a.8.8 0 0 1-.8-.8zm0 12c0-.5.3-.8.8-.8h30.4a.8.8 0 0 1 0 1.5h-30.4a.8.8 0 0 1-.8-.8zm0 12c0-.5.3-.8.8-.8h30.4a.8.8 0 0 1 0 1.5h-30.4a.8.8 0 0 1-.8-.8zm0 12c0-.5.3-.8.8-.8h30.4a.8.8 0 0 1 0 1.5h-30.4a.8.8 0 0 1-.8-.8zM6.7 10.3a374 374 0 0 1-2 14.7l-.4 5.5a.8.8 0 0 0 1.5 0l.5-5.3.8-6.4A2972 2972 0 0 0 8.4 7l-.1-.5s-.2-.3-.5-.4l-.7.2a1 1 0 0 0-.2.2v.2c-.2.1-.2.3-.3.6-.5.9-1.1 2.3-2.5 4.2a36.4 36.4 0 0 1-9.5 8.4.7.7 0 1 0 .8 1.2A37.9 37.9 0 0 0 6.7 10.3m123.5 0-.8 6.3-.3 2-.8 6.4-.6 5.5a.8.8 0 0 0 1.5 0l.6-5.3.8-6.4c0-.7.2-1.4.3-2a288 288 0 0 0 1-9.8l-.1-.5s-.2-.3-.5-.4l-.7.2-.2.2v.2c-.2.1-.2.3-.3.6-.5.9-1.1 2.3-2.5 4.2a36.4 36.4 0 0 1-9.5 8.4.8.8 0 0 0 .8 1.2 37.9 37.9 0 0 0 11.3-10.8m-68-2.1c-1.1.6-2 1.6-2 3.3a.7.7 0 1 1-1.4 0c0-2.3 1.1-3.8 2.7-4.6s3.5-1 5.1-.6a6 6 0 0 1 4.7 4c.8 2.4-.2 5.7-4.3 9.7l-.2.3c-5.5 5.5-7.4 7.4-8.6 8.4h3.5c3.3 0 7.4-.3 10.3-.4a.7.7 0 1 1 0 1.4 278 278 0 0 1-14.4.4l-1.2-.1-.3-.2c-.1 0-.3-.1-.4-.4a.8.8 0 0 1 0-.7l.4-.3c1.4-1 1.8-1.4 9.9-9.4 3.9-4 4.4-6.7 4-8.3-.6-1.7-2.3-2.7-3.6-3a7 7 0 0 0-4.2.5m41 0c-1.1.6-2 1.6-2 3.3a.8.8 0 0 1-1.4 0c0-2.3 1.1-3.8 2.7-4.6s3.5-1 5.1-.6a6 6 0 0 1 4.7 4c.8 2.4-.2 5.7-4.3 9.7l-.2.3c-5.5 5.5-7.4 7.4-8.6 8.4h3.5c3.3 0 7.4-.3 10.3-.4a.8.8 0 1 1 0 1.4 278 278 0 0 1-14.4.4l-1.2-.1-.3-.2c-.1 0-.3-.1-.4-.4a.8.8 0 0 1 0-.7l.4-.3c1.4-1 1.8-1.4 9.9-9.4 3.9-4 4.4-6.7 4-8.3-.6-1.7-2.3-2.7-3.6-3a7 7 0 0 0-4.2.5m-29 12.3c0-6.9 4.8-11.2 9.8-11.2 3.5 0 6 1.6 7.2 4.1a14 14 0 0 1 1 8.7c-.5 3.2-2 5.4-3.8 6.8a10 10 0 0 1-5.9 1.9 8 8 0 0 1-5.2-2.6c-1.7-1.7-3-4.2-3-7.7zm9.8-9.7c-4 0-8.2 3.6-8.2 9.7 0 3 1.1 5.2 2.5 6.7 1.5 1.4 3.2 2 4.2 2 1.6 0 3.5-.4 5-1.6 1.5-1 2.8-2.9 3.3-5.7.4-3 .2-5.7-.9-7.8-1-2-3-3.3-5.9-3.3m430.7 26.4v.1a189 189 0 0 0-3.1 13.2l6.4.3a.8.8 0 1 1 0 1.4l-14.6-.4a21 21 0 0 1-.8 0l-.2-.1-.3-.2v-1l.4-.2h.9a66 66 0 0 0 6.9-.6l.1-1A60 60 0 0 1 512 42l.4-2-1.1 1a66 66 0 0 1-4.9 3.6.8.8 0 0 1-.8-1.2 64.4 64.4 0 0 0 7.4-6.1l.2-.4v-.2a8 8 0 0 1 .2-.3s.6-.4 1.1-.2l.3.6a1 1 0 0 1 0 .1v.3zm-5.5 30.5c-1.4.6-2.6 1.5-3 3a.7.7 0 1 1-1.4-.4c.6-2 2.2-3.3 3.9-4s3.5-.8 5-.5c1.8.3 3 2.6 2 5.3-.7 2.4-3.1 5.3-8.2 8.4a162 162 0 0 0 2.8-.1l8.2-.2a.8.8 0 0 1 0 1.5l-8.2.2h-1.7a57 57 0 0 1-4-.2.8.8 0 0 1-.2-1.2l.3-.2c6.4-3.4 9-6.5 9.7-8.7s-.4-3.2-1-3.4a7.8 7.8 0 0 0-4.2.5" clip-rule="evenodd"/><path fill="#1A1B22" d="M524 51a1 1 0 1 1-2 0 1 1 0 0 1 2 0m0 29a1 1 0 1 1-2 0 1 1 0 0 1 2 0m0 33a1 1 0 1 1-2 0 1 1 0 0 1 2 0"/><path fill="#FF444F" d="M245.5 214a35.7 35.7 0 0 0-3.5 17.5c0 1 1 4 5 3 3.2-.8 12-14 16-20.5a77 77 0 0 0 12 19c4.5 3.5 9 3.5 12 2.5s5 3 4.5 5c-.4 1.6-4.2 5.7-6 7.5.3.8 2.6 3 9 5 8 2.5 12-5 13-12.5s-1-6.5-9.5-23.5-29-19-36-17.5-12.5 8-16.5 14.5m2.5 66c-2-3.5 3.5-8 11-13.5l3-2.5c.3.5 1.8 1.7 5 2.5s9.7-1.3 12.5-2.5c1.5.8 4.8 2.3 6 1.5 1.5-1 7.5 2 12.5 6.5s3.5 8 0 12.5-25.5 3-35 3-13-4-15-7.5"/><path fill="#1A1B22" fill-rule="evenodd" d="M270.6 198.6c-7.8.1-16.5 2.6-23 9.9a38.3 38.3 0 0 0-8.3 25.9 71 71 0 0 0 2 16.4c0 .5.2.7.3.8l.6.2a15 15 0 0 0 2 .2l2.9.3a.7.7 0 1 1-.2 1.4l-2.7-.2h-.3l-2-.2c-.5-.1-1-.3-1.4-.7a3 3 0 0 1-.7-1.4c-.3-1-2-8.1-2-16.8s1.7-19.2 8.6-26.9c7-7.7 16.1-10.2 24.2-10.4 4-.1 7.8.4 10.9 1.1 3 .7 5.5 1.7 7 2.7 2.2 1.5 6 4.5 9.1 10.7a66 66 0 0 1 5.7 31.3c0 1.8 0 3.4-.2 4.8a7.8 7.8 0 0 1-1.7 4.5 10 10 0 0 1-5.3 2.8c-2.4.6-5.7 1-10 1.2a.8.8 0 0 1-.1-1.4c4.3-.3 7.5-.7 9.8-1.3a8.6 8.6 0 0 0 4.5-2.3c.8-1 1.2-2.1 1.3-3.7.2-1.3.2-2.8.2-4.5v-1.5c0-14.2-2.5-23.3-5.5-29.2-3-6-6.5-8.7-8.7-10.2-1.2-.8-3.5-1.7-6.5-2.4-3-.8-6.6-1.2-10.5-1.1m-7.3 10.7c.4.2.6.6.4 1-1.6 3.4-4.3 8.9-7.3 14-3 5.2-6.2 10.3-8.9 12.8a.8.8 0 0 1-1-1.2c2.5-2.3 5.7-7 8.6-12.3 3-5.1 5.6-10.5 7.2-14 .2-.3.6-.5 1-.3m12 0c.4-.1.8.1 1 .5.7 3.7 5 12.4 16 17.5a.7.7 0 1 1-.6 1.4 30 30 0 0 1-17-18.5c0-.4.2-.8.6-1zm-11.5 3.5c.4-.1.8 0 1 .5.7 2.5 2.5 6.6 5.3 10.6a29 29 0 0 0 11.2 10 .8.8 0 0 1-.6 1.3c-5-2.3-8.9-6.4-11.8-10.5a44 44 0 0 1-5.6-11c-.1-.4 0-.8.5-1zm-6.3 1.6c.3.3.3.7.1 1a213 213 0 0 0-10.7 15.6 16 16 0 0 0-1.7 3.7.7.7 0 1 1-1.4-.4c.2-1 .9-2.4 1.8-4a213 213 0 0 1 10.8-15.7c.3-.4.7-.4 1-.2zm11.2 14c.3.2.6.6.6 1.1s0 1.5-.3 2.3c0 .4-.2.9-.6 1.3-.3.4-.8.7-1.4.7s-1-.3-1.4-.8a2 2 0 0 1-.2-1.2l.2-1a17 17 0 0 1 .1-.8v-.2c.3-1 1-1.6 1.8-1.7.4 0 .8 0 1.2.2zm-1.5 1.7-.1 1a8 8 0 0 0-.2 1.1h.4l.3-.8.1-1.8s-.3 0-.5.5m-8.8 2.3c.3.2.5.6.2 1a26 26 0 0 0-2.4 5.5 8 8 0 0 0-.4 2.6c0 .7.3 1.2.6 1.4a.7.7 0 1 1-.8 1.2c-.9-.6-1.2-1.5-1.3-2.5 0-1 .1-2 .5-3 .6-2.2 1.7-4.5 2.6-6 .2-.3.6-.5 1-.2m27.3 4.7c-.6.7-.9 1.5-1 2a.7.7 0 1 1-1.4-.2c0-.8.5-2 1.4-2.8 1-1 2.4-1.6 4.4-1.3 1.4.1 2.4 1 2.8 2.2.4 1.1.3 2.6-.2 4-1 2.8-3.5 5.9-7.5 7.2a.8.8 0 0 1-.4-1.4c3.5-1.2 5.7-3.9 6.5-6.3a5 5 0 0 0 .2-3c-.3-.7-.8-1.2-1.6-1.3-1.6-.1-2.6.3-3.2 1zm-38.6 2.2c.4 0 .7.4.6.8-.3 3.7 1 8.4 3.6 12.1s6.5 6.4 11.7 6.1c4.2-.2 9.4-2.4 15.5-7.9a.7.7 0 1 1 1 1.2 28.2 28.2 0 0 1-15.8 8.2v4.4l.2.1.8.4c.8.2 2 .4 3.8.3a30 30 0 0 0 5.4-.6 23.7 23.7 0 0 0 6-2 .7.7 0 1 1 1.1 1.1l-.2.2 2.3 2 1.5-.8a.7.7 0 1 1 .8 1.2l-2 1.2a35.5 35.5 0 0 1-15 3.5c-5.7 0-8.3-2.4-9-4.2-2.8 1-6 2.5-9.2 4.3a27.3 27.3 0 0 0-11 10c-1.3 2.4-1.7 4-1.6 5q0 .6.3.9c.1.2.4.4.8.5.8.3 2 .3 3.5.2a81 81 0 0 0 4.8-.3h13.3v-.4c.4-1.6 1.5-4.4 2-5.6a.7.7 0 1 1 1.4.6c-.5 1.2-1.6 3.8-2 5.4a3605 3605 0 0 0 21.5-.1c-.2-.6-.2-1.3-.2-2 0-.8 0-1.6.2-2.5l1-4.3a.8.8 0 0 1 1.5.4 28.7 28.7 0 0 0-1.2 6.4c0 .7 0 1.3.2 1.6v.4a1086 1086 0 0 0 24.7-.7v-1.3c0-1-.3-2.2-.8-3.8-1.2-3-3.9-7-9.5-11.2-.2 0-.3-.2-.4-.3l-.1.1c-.4.6-1.6 2.9-2.4 7.2a.8.8 0 1 1-1.4-.2 21.2 21.2 0 0 1 2.7-8c-3.9-2.6-7-4.1-9.3-5-2.7-.9-4.4-.9-5-.7l-.6.2-.3-.6a36 36 0 0 1-.5-5.7c0-2.3.3-4.7.5-6.2a.7.7 0 1 1 1.4.2 77 77 0 0 0-.2 10.5 13 13 0 0 1 5.2 1c2.8 1 6.6 2.9 11.2 6.3a28 28 0 0 1 10 11.9 14 14 0 0 1 1 5.6l-.2 1a.8.8 0 0 1-.5.3l-.2.1-.6.1-2 .2-6.5.2c-5.4.2-12.7.3-20.1.3l-33.8.1-3.3.2h-1.4c-1.5.2-3 .2-4-.2-.7-.2-1.2-.5-1.6-1a3 3 0 0 1-.6-1.8c-.1-1.4.5-3.2 1.7-5.7 2.1-4.2 6.8-7.8 11.6-10.6a71 71 0 0 1 12.8-5.7v-4c-5.3 0-9.5-3-12.2-6.8-2.8-4-4.1-9-3.7-13.2 0-.4.4-.7.8-.6m15.7 26-2 .7a4 4 0 0 0 1.7 1.9l1-2a3.7 3.7 0 0 1-.7-.5zm2.1 1-1 2.2c1 .4 2.2.7 3.9.8v-2.8c-1.2 0-2.1 0-2.9-.2m4.4.2v2.8h.7c1.8-.2 3.5-.4 5.2-.8l-1.6-2.6a58 58 0 0 1-4.4.6zm5.9-.9 1.4 2.5c2-.4 3.7-1 5-1.7l-2.2-2c-1 .4-2.3.9-4.2 1.2m-19.8-17c.3-.4.7-.4 1-.2 1.1.9 3 1.9 5.3 2.2 2.2.3 4.6-.1 6.8-2.2a.8.8 0 0 1 1 1.2 9.6 9.6 0 0 1-8 2.5c-2.5-.4-4.7-1.5-6-2.5a.7.7 0 0 1 0-1zm17.3 23.7c.4 0 .6.5.5 1l-1.5 5.4a.8.8 0 0 1-1.4-.4l1.5-5.5c0-.4.5-.6 1-.5zm-23.9 4c.4.2.6.7.4 1-.3.6-1 2.6-1.5 5.3a.8.8 0 0 1-1.4-.2 21 21 0 0 1 1.5-5.7c.2-.4.7-.6 1-.4m53.5 3.5c.4-.1.8 0 1 .5 0 .5.3 1.4.5 2.3a6 6 0 0 1 0 2.6.8.8 0 0 1-1.5-.4v-2l-.5-2c-.1-.5 0-.9.5-1" clip-rule="evenodd"/><path fill="#FF444F" d="M513 303a81 81 0 0 0 0-20.5h4c.5.5 1.5 1.9 1.5 3.5v8c1.3-.8 4.2-2.5 5-2.5 1 0 2.5 2 6 6.5s-2 5-3.5 7.5c-1.2 2-7.8.8-11 0-1.2 0-3.2-.5-2-2.5m7-20.5c-1.6 1.6 1.7 5 3.5 6.5l6-4-3.5-4c-1.3-.2-4.4-.1-6 1.5m19.5 23c-3.5 0-3.5-4-3.5-6s3.2-3.8 6.5-5.3c-2-1.7-5.5-.2-6-4.2a4.4 4.4 0 0 1 3-5 21 21 0 0 1-6.5-2.5c-2-1.5-5-4.5-2.5-6s3.5-5 5.5-2.5 5.5 2.5 9.5 2.5 12 2.5 16 0 6.5-5.5 8.5-4 9 7 4.5 8.5l-7.5 2.5c2.3 1.5 6.6 4.7 5 5.5a21 21 0 0 0-5 5c-3.7-.3-10.7-1.8-9.5-5s.5-4 0-4l-6 2-6 4.5-3 2.7.5-.2c1.3 0 4.5.8 6.5 4 2.5 4 .5 3 0 5s-6.5 2.5-10 2.5M560 303c-1.5-2.5 1.5-5 4-6.5 2 1 6 3.7 6 6.5s-2.7 2.5-4 2c-1.5.2-4.8 0-6-2m19-9c0-4 2.5-9 6-13h1.5c1.3 0 4 .3 4 1.5 0 1.5-4 4.5-4 7.5s-1.5 9.5-1.5 13-3 2-5 1.5-1-6.5-1-10.5"/><path fill="#1A1B22" fill-rule="evenodd" d="m530 209.6.5.9.5.1h1.3c1 0 2.5-.2 4.1-.5l.7-.1c3.2-.6 7-1.3 10.9-1.3 5.6 0 10.1 2.5 12.5 4.4a43 43 0 0 1 2.5-8.1l.7-1.1q.45-.45 1.2-.6c.3-.1.6 0 1 .2.2.2.4.4.4.7.2.5.2 1 .2 1.7a32.7 32.7 0 0 1-1.2 7.1v.2l-.5 1.9v.2l1.3-.3a29.3 29.3 0 0 1 7.9-.4c.5 0 1 .2 1.5.5.4.3.8.8.8 1.4 0 .8-.6 1.5-1.1 2L573 220c-.9.5-1.9.9-2.8 1.2 1 .5 2 1.2 3.2 2 2 1.3 4 3.2 5.3 5.5a9.6 9.6 0 0 1 .7 7c-.2 1.2-.7 2.3-1.2 3.2.5 0 1 .3 1.3.7.8.8 1.4 2.3 1.5 4 .1 1.8-.1 3.9-1 6-1.8 4.1-6 8-14.3 9.2l-.1 1a424 424 0 0 0-.8 12l3.6-.4c.8-.2 1.6.2 2.3.7a13 13 0 0 1 2 2.1c1.3 1.5 2.5 3.4 3.3 4.7 2.3.3 5 .4 7.7.6h2l5.9.4c3.4.2 5.6 2 7 4.5a19 19 0 0 1 2 8.6 34.3 34.3 0 0 1-1.6 11.2l-.5 1c-.1.2-.4.5-.8.6a15230 15230 0 0 1-92.2.5c-1 0-1.8-.7-2.3-1.6q-.75-1.5-.9-3.9a27 27 0 0 1 2.5-12c2.2-5 7-7.3 12-8.2 4.5-.8 9.2-.5 12.5.1 0-1.6.3-4.1 1-5.9.3-.8 1-1.2 1.8-1.5.7-.2 1.6-.4 2.5-.4a23.4 23.4 0 0 1 5.1.5v-6c-1.4-.2-3.9-.5-6.6-1.3-3.4-1.1-7.2-3-9.7-6.6a16.2 16.2 0 0 1-2.3-6.1c-.5-2.6-.8-5.4-1-8.4 0-5.7.4-11.7 1-16-5.7-3.2-8.5-6.8-9.4-9.9-1-3.2 0-6 1.9-7.1.5-.4 1.2-.5 1.9-.5a8 8 0 0 1 2.1.5 25 25 0 0 1 5 2.4c-1.9-3-2.9-6-3.2-8.6-.3-2-.2-3.8.2-5.3.4-1.4 1-2.6 2-3a2 2 0 0 1 2 0l1.3 1.3c.8 1.1 1.6 2.7 2.3 4.4l1.4 3.3a191 191 0 0 0 1.4 3.2zm-3.3 7.5a21 21 0 0 1-5.8-11.6c-.3-1.9-.2-3.5.1-4.7.4-1.2.9-1.9 1.3-2.1h.5l1 1a22 22 0 0 1 2 4 117 117 0 0 1 2.9 6.6c.2.5.5 1 .8 1.2.3.4.8.5 1.3.6h1.6c1.1 0 2.6-.3 4.3-.5l.6-.2c3.2-.5 7-1.2 10.7-1.2a19 19 0 0 1 12.5 4.8l1 1 .2-1.4a43.4 43.4 0 0 1 2.6-8.9 3.5 3.5 0 0 1 .7-.9v1a31 31 0 0 1-1.2 6.9v.2a115 115 0 0 0-.7 3.5l.1.4.3.4h.5c.3 0 .5-.1.5-.2h.1l.4-.2 1.4-.3a27.7 27.7 0 0 1 7.3-.5c.5.1.8.2 1 .4v.1c0 .2 0 .5-.5.9l-1.9 1.2c-1.5.7-3.3 1.3-4.5 1.7l-2.3.6 2.2.8c1.2.4 3 1.3 4.8 2.6 1.9 1.3 3.7 3 4.8 5s1.1 4.1.7 6c-.4 1.5-1 2.8-1.7 3.7-1 .4-2 1-2.9 1.9l-2.7 2.4v.1l-1 1-.6.5a.7.7 0 1 0 .8 1.2c.3-.1.6-.4.9-.7l.9-.9v-.1a42 42 0 0 1 4.5-3.7c.3.1.7 0 .9-.2l.1-.2c.6-.2 1 0 1.3.2.4.5.9 1.6 1 3.1.1 1.6 0 3.4-.9 5.3-1.5 3.6-5.4 7.4-13.7 8.4h-.6v.6l.7.1h-.7v.4a669 669 0 0 0-1 14.1v.8h.7c.7 0 2.6-.2 4.6-.6.2 0 .6 0 1.2.5.5.5 1.2 1.1 1.8 1.9 1.3 1.5 2.5 3.5 3.2 4.8l.2.3h.4c1.6.3 3.4.4 5.2.5L565.8 294l-10.5-8 1.1-.8a.8.8 0 0 0-.8-1.2l-2 1.3-9 6-13.8-10c0-1.5.2-4.2.9-6 0-.1.3-.4.9-.6.5-.2 1.2-.3 2-.3a22 22 0 0 1 5.1.4v1.9l.1.2a.8.8 0 0 0-.9.2c-.5.6-1 1.6-1.4 2.8-.3 1.2-.4 2.6.3 4a.7.7 0 1 0 1.4-.6c-.5-1-.5-2-.2-3 .2-1 .7-1.8 1-2.2l.2-.3c1 1.6 3.4 3.2 8 2.5a26 26 0 0 0 .6 0c0 .3.3 1.8-.5 4a.7.7 0 0 0 1.4.5c.8-2.4.8-4.1.5-4.9 4-.9 7.9-2.5 10.1-3.6-.1.3 0 .6.2.8l.1.3.4 1c.3 1 .6 2.3.8 4.3a.7.7 0 1 0 1.4-.2 25 25 0 0 0-1.2-5.7c-.1-.3-.3-.6-.5-.7a.7.7 0 0 0-.3-.2l.2-.1a.7.7 0 1 0-.8-1.4 45.6 45.6 0 0 1-12.7 4.5c-4.8.7-6.4-1.5-6.6-2.4v-10.6h-.8c-1 0-3.8-.3-7-1.3s-6.6-2.8-8.9-6c-.9-1.2-1.6-3.1-2-5.5-.6-2.4-.8-5.2-1-8.1-.1-5.9.4-12 1.1-16.3l.1-.5-.4-.3c-6-3.2-8.5-6.5-9.3-9.2s.1-4.7 1.3-5.5l1-.2c.5 0 1 .2 1.7.4a45.2 45.2 0 0 1 8.8 5.2l.2.1a1 1 0 0 0 .2.1h.3s.3 0 .5-.2a.8.8 0 0 0 0-1 8 8 0 0 0-.5-.5zm3 65.1c-2.9-.6-7-1-11.2-.4l6 7.1 6-5a.7.7 0 1 1 1 1.2l-6 5 7.7 8.8 10-6.7zm14.8 11-10.3 6.8 3.9 4.5.1.2h15.5l3-2.7-12.2-8.9zM558 303l-2 1.7h4.3zm4.8 1.6-3.6-2.7 6.8-6 11.3 8.7zm17 0a2442 2442 0 0 0 17.6-.4l.3-.6a32.9 32.9 0 0 0 1.5-10.6c0-3-.5-5.8-1.8-8a7 7 0 0 0-5.9-3.8l-5.8-.3a580 580 0 0 1-3.1.2L567 294.9l12.5 9.5.1.2zm-15-9.7-6.9 6.1-12-8.8 8.2-5.4 10.6 8.1zm-28.4 9.8-3.4-3.8-5.7 3.8h9zm-11.8 0 7.5-5-7.6-8.7-8.1 6.8v7h8.2zm-9.7 0v-7.2c-.2-4.8-.6-10.2-1.5-13.8-.1-.3 0-.6.2-.7a12 12 0 0 0-7.3 6.3c-2 4.5-2.6 8.5-2.4 11.4.1 1.4.4 2.5.7 3.2.4.7.8.9 1 .9h9.3zm-.7-22c.3 0 .5.3.6.6 1 3.4 1.3 8.2 1.5 12.6l7.2-6-6.7-7.8-2.6.7zm38.1-65.3c0 .5-.2.8-.6.8-2.2.2-5.4.6-8.2 1.4-1.4.3-2.7.7-3.6 1.2-1 .5-1.5 1-1.6 1.4l.1.5c.2.3.6.5 1.1.8 1 .5 2.7 1 4.5 1.3a44.8 44.8 0 0 0 10.3.5.8.8 0 0 1 0 1.2l-.1.1-.6.3a36 36 0 0 0-2.4 1.1 2 2 0 0 0-.3.3l.6.2 2.3.5 5.3.3a.8.8 0 0 1 0 1.4 49.3 49.3 0 0 1-8-.7l-1-.5c-.3-.1-.6-.4-.7-.8-.2-.4 0-.9.2-1.2.2-.2.4-.5.7-.6a37 37 0 0 1-11.5-2c-.6-.4-1.2-.8-1.5-1.2a2 2 0 0 1-.4-2c.3-1 1.2-1.7 2.3-2.2 1-.6 2.4-1 3.9-1.4 2.9-.7 6.2-1.2 8.4-1.3.5 0 .8.2.8.6m-24.6 11.2-.4.6a.7.7 0 1 1-1.4-.4c.1-.4.4-.9.8-1.3s1-.8 1.9-.8c2 0 4.3 1.9 4.3 4.8a.8.8 0 0 1-1.5 0c0-2-1.7-3.3-2.8-3.3-.4 0-.7.2-.9.4M540 242c.3.3.3.8 0 1.1-.6.8-1.5 1.8-2 2.7v1c0 .1.1.4.7.6a.8.8 0 0 1-.4 1.4q-1.5-.45-1.8-1.5c-.2-.7 0-1.5.2-2a13 13 0 0 1 2.2-3.2c.3-.3.8-.3 1.1 0zm-7.5 9c.3-.2.7-.2 1 0 .6.6 2.4 1.8 4.5 1.8a30.4 30.4 0 0 0 5.3-.6l2.7-.4h2.2c.5.2.9.6 1 1 .3.4.5 1 .5 1.4.2 1.1 0 2.4-.6 3.7a6.3 6.3 0 0 1-3.3 3c-1.6.7-3.7 1-6.4.4-5.4-1-7.6-2.8-8.3-4.8a4 4 0 0 1-.1-2.4l.2-.8v-.4a.7.7 0 0 1 1.5.1v.6h-.1l-.2.7a3 3 0 0 0 .1 1.6c.3.7 1 1.6 2.6 2.5v-.4a15.8 15.8 0 0 1 0-3.2 15 15 0 0 0 .2-1 8.2 8.2 0 0 1-2.8-1.8.7.7 0 0 1 0-1m4.2 3.2a26 26 0 0 1-.1 2.4 15 15 0 0 0 0 2c.1.2.2.4.1.5a22.7 22.7 0 0 0 5 1l-.1-1.2a23.3 23.3 0 0 1 .1-5 24.7 24.7 0 0 1-5 .3m6.5-.5a48 48 0 0 0 0 6.4 7 7 0 0 0 2-.5c1.3-.6 2.1-1.4 2.6-2.4.4-1 .5-2 .4-2.8l-.2-.9-.2-.2h-1.7c-.8 0-1.7.2-2.6.4zm50 28.7c.1.4 0 .8-.5 1l-.8.2h-.3l-.8.3c-.5.3-1 .6-1.3 1.3-.4.8-.8 2-1.1 4s-.5 4.7-.7 8.4a.7.7 0 1 1-1.5 0c.2-3.8.4-6.6.7-8.6.3-2.1.7-3.5 1.3-4.5.5-1 1.2-1.6 2-2a7.7 7.7 0 0 1 1.3-.4l.8-.2c.4-.1.8 0 1 .5z" clip-rule="evenodd"/><path fill="#1A1B22" d="M528 239.5c0 1.4-.4 2.5-1 2.5s-1-1.1-1-2.5.4-2.5 1-2.5 1 1.1 1 2.5m25 0c0 1.4-.4 2.5-1 2.5s-1-1.1-1-2.5.4-2.5 1-2.5 1 1.1 1 2.5M96 74l26.5 24.5c-4.8 5.3-16.3 17.9-23.5 25.5-9 9.5-1 8.5 3 4l24-26c9.5 8.3 29 24.8 31 24 2.5-1-2.5-5.5-4.5-7.5-1.6-1.6-15.7-14-22.5-20L154.5 72c5-5.5 1.5-6 0-4A1037 1037 0 0 1 126 95c-7.5-6-23.4-18.6-27-21-4.5-3-4-1-3 0m530.3 130.1 26 25c-5 5.3-16.7 17.6-24 25-9.2 9.4-1.2 8.5 2.9 4.1a3217 3217 0 0 1 24.5-25.5c9.3 8.6 28.5 25.4 30.5 24.7 2.5-1-2.4-5.6-4.3-7.6l-22.1-20.5c6.6-6.8 21-21.6 25-26 5.2-5.4 1.7-6 .1-4-1.2 1.6-19.8 18.3-29 26.4a861 861 0 0 0-26.6-21.5c-4.4-3.1-4-1.1-3-.1m-268.8 5.4c1.6 1.2 19 12.2 27.5 17.5-7.3 6-23.7 19.2-30.5 24-8.5 6-16 14-14.5 15.5s6-2 9-4.5c2.4-2 28-21.8 40.5-31.5 3.5 2 12.3 7.2 19.5 12 9 6 23.5 15.5 25 13.5s-1.5-4-5.5-6.5L394 227c6.2-4.8 19.5-15.6 23.5-20 5-5.5 2-4.5-1.5-2l-26.5 19a506 506 0 0 0-26.5-14.5c-7.5-3.5-7.5-1.5-5.5 0m263.2-137c1.6 1.2 19 12.2 27.5 17.5-7.3 6-23.7 19.2-30.5 24-8.5 6-16 14-14.5 15.5s6-2 9-4.5c2.4-2 28-21.8 40.5-31.5 3.5 2 12.3 7.2 19.5 12 9 6 23.5 15.5 25 13.5s-1.5-4-5.5-6.5L657.2 90a295 295 0 0 0 23.5-20c5-5.5 2-4.5-1.5-2l-26.5 19a507 507 0 0 0-26.5-14.5c-7.5-3.5-7.5-1.5-5.5 0"/><path fill="#FF444F" d="M154.5 198.5c-2.4 2.8-21.7 36.5-31 53a586 586 0 0 0-26-36.5c-5.5-6-7.5 0-4.5 2.5 2.8 2.3 27.5 40 30.5 40s21-35.5 31-50.5 3-12 0-8.5M413.5 42c-2 4.4-22.8 46.2-33 66.5-9-9.8-23.5-25-26.5-27.5-3.5-3-5.5.5-2 3s25.5 31 28.5 31.5S412 56 417 46.5s-1-10-3.5-4.5"/><path fill="#1A1B22" d="M543.5 223c-1.4-1.1 5-4 8.5-5.5-6 0-12.5 2.5-14.5 3.5-1.6.8-.7 2.3 0 3-2.5 2.5-14.7 4.8-18 2.5-5-3.5-5.5-10-4.5-11.5.8-1.3 8.8 1.4 10.7 2.2-1.2-1.5-3.5-9.8-1.7-10.7 2-1 6.5 5 8 5.5s3.5-2 20-2c2 0 6.8 2.7 9 4 .2-1.3.7-4.5 1.5-6.5 1-2.5 2.5.5 3 2.5.4 1.6-.8 5-1.5 6.5 2.5 0 7.8.2 9 1s-3.2 2.7-5.5 3.5c2.7 1.8 9 5 10 6.5 1.5 2.5 2 6 1.5 7.5s-5.5 7.5-6 6.5c-.4-.8-6.5.3-9.5 1l-2-5c-2.7-1.8-8-5.7-8-6.5s4-1 6-1c-1.2-.7-3-1.1-5-1.5s-1.8-2.8-1-3.5c-2.7-.3-7.5 0-10-2"/></g><defs><clipPath id="a"><path fill="#fff" d="M0 0h661.5v328.2H0z"/></clipPath></defs></svg>