<svg xmlns="http://www.w3.org/2000/svg" width="662" height="329" fill="none"><path fill="#fff" d="M0 0h661.5v328.2H0z"/><path fill="#1A1B22" d="m178 49 212-30.3L427.6 284l-211.8 30.2L178 48.9z"/><path fill="#fff" fill-rule="evenodd" d="M388.6 20.5 179.7 50.2 217 312.6l209-29.8zM178 48.9l37.8 265.4L427.6 284 390 18.8z" clip-rule="evenodd"/><path fill="#1A1B22" d="m251.3 32 213.8 9-11.3 267.8-213.8-9z"/><path fill="#fff" fill-rule="evenodd" d="m463.6 42.5-210.8-9-11.2 264.8 210.8 9zM251.3 32 240 299.8l213.8 9L465.1 41z" clip-rule="evenodd"/><path fill="#fff" d="M222 20h214v268H222z"/><path fill="#1A1B22" fill-rule="evenodd" d="M434.5 21.5h-211v265h211zM222 20v268h214V20z" clip-rule="evenodd"/><path fill="#FF444F" d="M343.5 109c-3.5 0-22 .5-25.5 2-.8.3-2.4 1.6-2 4 .5 3 5.5 3.5 9 3.5s27.5 1 31.5 1h35c1.5 0 4.5-.5 4.5-4.5s-6-4-10-4-39-2-42.5-2m7.3 139.6c-3.5 0-22.3-1.2-25.8-2.7a3.3 3.3 0 0 1-1.9-3.9c.6-2.8 5.7-3.1 9.2-3h32l35.6 1.2c1.5 0 4.5.6 4.4 4.4s-6.2 3.7-10.3 3.5c-4-.1-39.6.6-43.2.5M380 44.5c-3.5 0-32.5 1-41.5 1.5H328c-8 0-9-3-9-5.5 0-3 15-4.5 19.5-4.5s42.5-1 56.5 0 8 7 4.5 8.5c-2 .8-16 0-19.5 0M249.5 55l6.5-3.5.5 3-2 1.5H249zm5-8.5c0-.8 2.7-.3 4 0l-1-4 4 1-2-6.5 7 5.5c.7.2 2.9.5 6.5.5s7.5 4 9 6c1.5-.5 2.5-1 4 1.5 3 5-3.5 7.5-6.5 8s0-2.5-1.5-2.5c-1.2 0-1-1.7-.5-2 .7-1.3.5-2.5-1-2-2.7 1-10.7.3-14.5-.5-2.5-1.3-7.5-4.2-7.5-5M290 68c.4-1.6-1.2-3-2-3.5l-4 3h-2.5v9a27 27 0 0 1 4.5-.5c2 0 0-2.5 2-2.5 1.6 0 .7-1.3 0-2 .5-.5 1.6-1.9 2-3.5m-29.5 16c3 0 1-.5 2.5 1v1c1.5-.3 4.9-1 6.5-1h4.5l1.5 3 2-1c2.8-.7 9.3-1.8 12.5-1 4 1 5 2 5.5 6.5.4 3.6-2.8 5.5-4.5 6l-38.5-.5v-1.5c-1.2 0-3.8-.2-5-1-1.5-1 2-5 3.5-7.5s6.5-4 9.5-4"/><path fill="#1A1B22" fill-rule="evenodd" d="M269.7 96.7a8 8 0 0 0-.7 1.5l-1-.4a9 9 0 0 1 1-1.6c.1-.3.3-.6.6-.8a1.23 1.23 0 0 1 1.9.1c.3.2.4.6.5.9l.2 1c0 .3 0 .7-.3 1l-.8-.8v-.2a2 2 0 0 0-.3-1.2c-.1-.2-.2-.2-.3-.2l-.3.2a3 3 0 0 0-.5.5" clip-rule="evenodd"/><path fill="#1A1B22" fill-rule="evenodd" d="M277.8 44.7c.2-.4.6-.6 1-.4a7 7 0 0 1 1.7 1c.6.5 1.3 1.3 1.3 2.2a.8.8 0 0 1-1.6 0c0-.3-.1-.6-.6-1s-1-.7-1.4-.8a.7.7 0 0 1-.4-1m-5 .8c0-.4.3-.8.7-.8l.5.1.6.2a17 17 0 0 1 3 1.6c.4.3.9.6 1 1a.8.8 0 0 1-1.3.7l-.6-.5a11.2 11.2 0 0 0-2.6-1.3l-.5-.2h-.1a.8.8 0 0 1-.8-.8zm-16.3 3.8c.4 0 .8.3.8.7l-.1 3.2c.8-.1 2-.2 3 0 .7.2 1.3.4 1.8.9s.8 1.1.8 1.9v4.3l-.3.2a37 37 0 0 0-2.1 2.4l.7.7 1.8 1.3a.7.7 0 1 1-.8 1.2 33 33 0 0 1-3.1-2.5s-.3-.3-.3-.6l.2-.6.3-.4.7-.8 1.4-1.5V56a1 1 0 0 0-.4-.8 2 2 0 0 0-1-.5c-.8-.2-2-.1-2.8 0a438 438 0 0 0 .1 13.6c.3 1 .7 2.8 2.3 4.2 1.5 1.4 4.3 2.5 9.4 1.8a.7.7 0 1 1 .2 1.4l-1.8.2.4 3.5a33 33 0 0 0 3.8.9h1.3a41.4 41.4 0 0 1 8-.9V68.5a.8.8 0 0 1 1.4 0v7.3h3.2a32 32 0 0 0-1.7-1.6l-.1-.2a.8.8 0 0 1 1.2-.8 6 6 0 0 1 .5.4l.7.1a10.6 10.6 0 0 0 3.3 0l-.3-.3c-.5-.5-1-1-1.5-1.3l-1.6-1.3h2.1c.8 0 2.7-.2 3.8-.5l.3-.3.4-1 .2-1-1.3.3a6 6 0 0 1-2.6 0c-.9-.4-1.3-1-1.5-1.5-.2-.6-.1-1.2 0-1.5a.7.7 0 1 1 1.4.4v.6c0 .2.2.4.5.5h2l2-.5 1-.3v1c0 .6 0 1.6-.3 2.5l-.5 1.3c-.3.4-.6.7-1.2 1-.6.1-1.5.3-2.3.3a9.5 9.5 0 0 1 1.2 1.3l.1.6c0 .4-.2.6-.3.7l-.3.2a12.8 12.8 0 0 1-3.5.5 6 6 0 0 1 .6.7v.3a.8.8 0 0 1-.7.8h-4.8v2h1.7l-.5 4a171 171 0 0 1 13.3.3c.4 0 .8.2 1.1.3l.6.3c.8.4 1.7.8 2.4 1.5 1 1 1.4 2.3 1.4 4.4a.8.8 0 0 1-1.4 0c0-1.9-.5-2.8-1-3.3-.6-.5-1.2-.8-2-1.2l-.6-.3a171 171 0 0 0-14.6-.4h-1l.4-2.7-7.3 7.2-2.2-5.7c-1.3 1.5-3.2 4-4.9 6.6a17.1 17.1 0 0 0-2.9 7.8.8.8 0 0 1-1.4 0c0-2.6 1.4-5.8 3-8.6 1.5-2.4 3.2-4.6 4.5-6.2l-9.2 4.9 1.7-4.6a144 144 0 0 1-7.8 1.8h-.4c-2 0-6-.2-8.5 3.6a15.2 15.2 0 0 0-2.4 9 .7.7 0 1 1-1.4.2c-.2-1.8 0-6.2 2.6-10 3-4.5 7.9-4.4 9.7-4.4h.4l1.4-.2a56 56 0 0 0 7-1.7l1.1-3.3.8.3.3.1-.3-3c-3.5 0-5.8-1-7.3-2.3a9.3 9.3 0 0 1-2.7-4.9l-.2-1.2a42.5 42.5 0 0 1 0-6.3 24.5 24.5 0 0 1-3.3-1.2l-.5-.5V59c0-.2 0-.4.2-.5a17 17 0 0 0 1-1.3 83 83 0 0 1-5.5-.3l-.4-.2s-.3-.3-.3-.7v-.4l.2-.2.3-.3.8-.4a190 190 0 0 1 7.7-3.9V50c0-.4.3-.8.7-.7m-.8 3.2a183 183 0 0 0-6.3 3.1 39 39 0 0 0 5.1.1h1.1v-3.2zm-.1 3.8-.5.7a79 79 0 0 1-1.6 2h.4c.5.3 1.1.5 1.6.6zm17.8 25.4 1.9 5 5.8-5.8a193 193 0 0 0-7.7.8m-2.8 0a21.8 21.8 0 0 1-4.6-1.2l-1.6 4.4zm-3.4-24.4c0-.1.3-.5.8-.5h.5c.5 0 .8.3.8.5l.2.6V59a9 9 0 0 1-.2 1.9c0 .1 0 .3-.3.5-.2.2-.6.5-1 .3a1 1 0 0 1-.6-.6 2.2 2.2 0 0 1-.1-.6v-.1a25 25 0 0 1-.3-2.6c0-.2 0-.4.2-.6zm3.3 9.5c.4 0 .8.3.8.7l-.2.4-.1.3-.5.5c-.4.3-1 .8-2.1 1.4-1.3.8-3 .7-4.4.4-1.5-.3-3-.9-3.8-1.3a.8.8 0 1 1 .6-1.4c.8.4 2.1 1 3.5 1.2 1.4.3 2.6.3 3.3-.1a13.5 13.5 0 0 0 2.2-1.6c0-.3.4-.5.7-.5m-30.4 74.5q2.1-.6 6.9-.6c2.7 0 4.4.7 5.2 1.8.9 1.1.8 2.4.5 3.3-.2.6-.8.8-1.2.8l.4.6c.6.8.8 2 .8 3.8 0 .4-.2.6-.3.7a1 1 0 0 1-.3.1h-.4l-1.3.2a82 82 0 0 1-7.6-.2h-2.3c-.8 0-1.5-.2-2-.6-.6-.4-.8-1-.8-1.7a3 3 0 0 1 1-2.1l1-.8a3 3 0 0 1-.8-.4c-.8-.4-1.2-1.2-1.2-2.2 0-.6.2-1.2.7-1.7.4-.5 1-.8 1.7-1m-.6 2c-.2.1-.3.3-.3.7 0 .6.2.8.4 1 .3.1 1 .3 1.9.3h.4l.4.1.4.4v.7a1 1 0 0 1-.4.3 5 5 0 0 1-.5.3h-.1l-.6.4a6 6 0 0 0-1.3 1c-.4.3-.6.6-.6 1s.1.5.2.5c.1.1.4.3 1.1.3a107 107 0 0 1 6.3.1 82 82 0 0 0 4.4 0c0-1.3-.2-2-.5-2.4-.3-.5-.8-.8-1.4-1.3h-.2l-.3-.3-.2-.3-.1-.4a.8.8 0 0 1 .6-.7h.9a16 16 0 0 0 1.3.1c.2-.5.2-1.1-.3-1.6-.4-.6-1.5-1.3-4-1.3-3.3 0-5.3.2-6.5.5-.6.2-.9.4-1 .6m171-104.8h-89v9h89zM320 37v12h92V37zm90.5 70.5h-89v9h89zM320 106v12h92v-12zm90.5 131.5h-89v9h89zM320 236v12h92v-12zm0-178.7c0-.5.3-.8.8-.8h57.4a.8.8 0 0 1 0 1.5h-57.4a.8.8 0 0 1-.8-.8zm0 27c0-.5.3-.8.8-.8h73.4a.8.8 0 0 1 0 1.5h-73.4a.8.8 0 0 1-.8-.8zm-81 24c0-.5.3-.8.8-.8h61.4a.8.8 0 0 1 0 1.5h-61.4a.8.8 0 0 1-.8-.8zm0 105c0-.5.3-.8.8-.8h61.4a.8.8 0 0 1 0 1.5h-61.4a.8.8 0 0 1-.8-.8zm22-66c0-.5.3-.8.8-.8h39.4a.8.8 0 0 1 0 1.5h-39.4a.8.8 0 0 1-.8-.8zm27-16c0-.5.3-.8.8-.8h12.4a.8.8 0 0 1 0 1.5h-12.4a.8.8 0 0 1-.8-.8zm-27 0c0-.5.3-.8.8-.8h21.4a.8.8 0 0 1 0 1.5h-21.4a.8.8 0 0 1-.8-.8zm-22 89c0-.5.3-.8.8-.8h61.4a.8.8 0 0 1 0 1.5h-61.4a.8.8 0 0 1-.8-.8zm0 31c0-.5.3-.8.8-.8h61.4a.8.8 0 0 1 0 1.5h-61.4a.8.8 0 0 1-.8-.8zm0-24c0-.5.3-.8.8-.8h61.4a.8.8 0 0 1 0 1.5h-61.4a.8.8 0 0 1-.8-.8zm0 31c0-.5.3-.8.8-.8h61.4a.8.8 0 0 1 0 1.5h-61.4a.8.8 0 0 1-.8-.8zm0-24c0-.5.3-.8.8-.8h20.4a.8.8 0 0 1 0 1.5h-20.4a.8.8 0 0 1-.8-.8zm0-40c0-.5.3-.8.8-.8h9.4a.8.8 0 0 1 0 1.5h-9.4a.8.8 0 0 1-.8-.8zm0-14c0-.5.3-.8.8-.8h9.4a.8.8 0 0 1 0 1.5h-9.4a.8.8 0 0 1-.8-.8zm0-14c0-.5.3-.8.8-.8h9.4a.8.8 0 0 1 0 1.5h-9.4a.8.8 0 0 1-.8-.8zm0 99c0-.5.3-.8.8-.8h20.4a.8.8 0 0 1 0 1.5h-20.4a.8.8 0 0 1-.8-.8zm81-126c0-.5.3-.8.8-.8h93.4a.8.8 0 0 1 0 1.5h-93.4a.8.8 0 0 1-.8-.8zm0 58c0-.5.3-.8.8-.8h93.4a.8.8 0 0 1 0 1.5h-93.4a.8.8 0 0 1-.8-.8zm0-50c0-.5.3-.8.8-.8h93.4a.8.8 0 0 1 0 1.5h-93.4a.8.8 0 0 1-.8-.8zm0 58c0-.5.3-.8.8-.8h93.4a.8.8 0 0 1 0 1.5h-93.4a.8.8 0 0 1-.8-.8zm0-50c0-.5.3-.8.8-.8h93.4a.8.8 0 0 1 0 1.5h-93.4a.8.8 0 0 1-.8-.8zm0 102c0-.5.3-.8.8-.8h93.4a.8.8 0 0 1 0 1.5h-93.4a.8.8 0 0 1-.8-.8zm0-44c0-.5.3-.8.8-.8h93.4a.8.8 0 0 1 0 1.5h-93.4a.8.8 0 0 1-.8-.8zm0-50c0-.5.3-.8.8-.8h26.4a.8.8 0 0 1 0 1.5h-26.4a.8.8 0 0 1-.8-.8zm0 102c0-.5.3-.8.8-.8h26.4a.8.8 0 0 1 0 1.5h-26.4a.8.8 0 0 1-.8-.8zm0-44c0-.5.3-.8.8-.8h26.4a.8.8 0 0 1 0 1.5h-26.4a.8.8 0 0 1-.8-.8zm0-155c0-.5.3-.8.8-.8h31.4a.8.8 0 0 1 0 1.5h-31.4a.8.8 0 0 1-.8-.8zm0 27c0-.5.3-.8.8-.8h40.4a.8.8 0 0 1 0 1.5h-40.4a.8.8 0 0 1-.8-.8zm-81 23c0-.5.3-.8.8-.8h33.4a.8.8 0 0 1 0 1.5h-33.4a.8.8 0 0 1-.8-.8z" clip-rule="evenodd"/><path fill="#1A1B22" fill-rule="evenodd" d="M238.3 34.3h11.2a.8.8 0 0 1 0 1.5h-9.8v62h61v-62H269a.8.8 0 0 1 0-1.5h33.3v65h-64z" clip-rule="evenodd"/><path fill="#FF444F" d="M261 166.5a2.5 2.5 0 1 1-5 0 2.5 2.5 0 0 1 5 0m0 14a2.5 2.5 0 1 1-5 0 2.5 2.5 0 0 1 5 0m0 13a2.5 2.5 0 1 1-5 0 2.5 2.5 0 0 1 5 0m8-27a2.5 2.5 0 1 1-5 0 2.5 2.5 0 0 1 5 0m0 14a2.5 2.5 0 1 1-5 0 2.5 2.5 0 0 1 5 0m0 13a2.5 2.5 0 1 1-5 0 2.5 2.5 0 0 1 5 0m8-27a2.5 2.5 0 1 1-5 0 2.5 2.5 0 0 1 5 0m0 14a2.5 2.5 0 1 1-5 0 2.5 2.5 0 0 1 5 0m0 13a2.5 2.5 0 1 1-5 0 2.5 2.5 0 0 1 5 0m6.5 0v2.5a2.5 2.5 0 1 1 0-5zm1.5-27a2.5 2.5 0 1 1-5 0 2.5 2.5 0 0 1 5 0m0 14a2.5 2.5 0 1 1-5 0 2.5 2.5 0 0 1 5 0m8-14a2.5 2.5 0 1 1-5 0 2.5 2.5 0 0 1 5 0m0 14a2.5 2.5 0 1 1-5 0 2.5 2.5 0 0 1 5 0m8-14a2.5 2.5 0 1 1-5 0 2.5 2.5 0 0 1 5 0"/><path fill="#1A1B22" fill-rule="evenodd" d="M236.3 126c1.4-2 3.7-3.3 7.2-3.3 1.9 0 3.4.5 4.5 1.3a6 6 0 0 1 2.3 3.1c.7 2.4.2 5.2-1.2 6.9-.6.7-1.4 1.1-2.2 1a3 3 0 0 1-1.7-1.3 9 9 0 0 1-1-1.7l-.2.4c-.4 1-1.2 2-2.3 2.3a2 2 0 0 1-1.8-.3c-.5-.4-.7-1-.8-1.6-.2-1 0-2.4.2-3.5.3-1.1 1.2-1.7 2-2 .9-.2 1.7-.1 2.3 0a.8.8 0 0 1-.2 1.4l-1.7.1c-.5.2-.9.4-1 .9-.2 1-.3 2-.2 2.8l.3.7c.1 0 .2.2.5 0 .5 0 1-.5 1.3-1.4.4-.8.6-1.8.7-2.4l1.4-.1c.3 1.1 1 2.6 1.6 3.5.4.5.7.6.9.7 0 0 .3 0 .7-.5a6 6 0 0 0 1-5.4c-.4-1-.9-1.7-1.7-2.3-.9-.6-2-1-3.7-1-3 0-5 1.1-6 2.5a6.1 6.1 0 0 0-1.3 4.6c.3 1.4.9 3.3 2.5 4.5s4.5 1.8 9.6.4a.8.8 0 0 1 .4 1.4c-5.4 1.6-8.8 1-10.9-.6a8.3 8.3 0 0 1-3-5.5c-.3-1.7 0-3.9 1.5-5.7zm154.9-3.5c-.3-.2-.8-.3-1.6-.3-3.6.3-6 1.7-7.2 3.2-.7.7-1 1.5-1.3 2v1.2l.5-.1 1.3-1.4a.7.7 0 1 1 1.2.8c-.3.5-1 1.3-1.6 1.8-.4.2-.8.5-1.3.5s-1-.3-1.3-.8c-.5-.6-.4-1.5-.2-2.3.3-.9.8-1.8 1.6-2.7 1.5-1.8 4.2-3.4 8.1-3.6 1-.1 1.9 0 2.5.4.7.3 1 1 1.2 1.6 0 .7 0 1.4-.3 2a11.5 11.5 0 0 1-1.2 2.5 67 67 0 0 1 6.6-.8c1 0 1.7.2 2.2.5l.5.5c2.7-.9 6.3-1.4 10.6-1.2a.7.7 0 1 1 0 1.4c-4.4-.2-7.9.5-10.4 1.3-.1.5-.4.9-.6 1.3-.7.9-1.8 1.8-2.8 2.4l-1.4.7h-.7a1 1 0 0 1-.8-.7c-.2-.4 0-.8.1-1.2l.8-1a11 11 0 0 1 3.6-2.4l-1.2-.1a57 57 0 0 0-7.8 1.1 24 24 0 0 1-3 3l-.6.4c-.2.1-.4.3-.7.3-.5 0-1.2-.3-1.6-.7-.2-.2-.4-.6-.4-1s.2-.8.4-1a7 7 0 0 1 3-1.8l2-.5a18.7 18.7 0 0 0 2-3.4c.2-.6.2-1 .2-1.4 0-.2-.2-.4-.4-.5m-3.6 7.4a5.1 5.1 0 0 0-2.1 1.2l.4.1h.1l.4-.3c.4-.2.8-.6 1.2-1m10.9.2a8.2 8.2 0 0 0-1.8 1.5l.2-.2a10 10 0 0 0 1.7-1.2zm-75.2-5.4a17.6 17.6 0 0 0-2.6 3.7.7.7 0 1 1-1.4-.8 19 19 0 0 1 3-4c.6-.6 1.3-1.2 2-1.6.7-.3 1.6-.5 2.4-.2.7.2 1 .7 1.3 1.3.1.5.2 1.1.1 1.7h2c2.1.3 3.3 1.8 3.8 3.2l.4 1.2a19 19 0 0 1 2.8-2c.8-.3 1.7-.6 2.5-.4 1.2.2 2.2.9 2.8 1.6l.9-1c.4-.5 1-1 1.5-1.1 1-.3 1.9.2 2.4.7.7.5 1.2 1.1 1.4 1.6a.8.8 0 0 1-1.2.8c-.3-.4-.7-1-1.1-1.3-.5-.4-.8-.5-1-.4-.3 0-.6.3-1 .7a7 7 0 0 0-1 1.4l.2.6-.1.9a1 1 0 0 1-.9.4 1 1 0 0 1-1-.6v-.8l.2-.5a4 4 0 0 0-2.3-1.6c-.4 0-1 0-1.6.4-.7.3-1.4.8-2 1.2a18 18 0 0 0-1.8 1.8h-.2l-.1.2-.7-.1a.8.8 0 0 1-.2-1v-.1h.1v-.6l-.3-1.5c-.5-1-1.3-2-2.7-2.3-.7 0-1.4 0-2.1.4a17.6 17.6 0 0 1-2.8 5.6c-.4.4-.8.8-1.2.9l-1-.1-.5-.7c-.4-.9-.2-1.9.2-2.7a8 8 0 0 1 1.8-2.5c.6-.6 1.4-1.2 2.2-1.6l.1-.8v-1.2l-.3-.3c-.4-.1-.8 0-1.3.2-.6.2-1.1.7-1.7 1.3m2.5 3a6.5 6.5 0 0 0-1.9 2.4c-.3.6-.3 1-.3 1.3l.2-.2a12.4 12.4 0 0 0 2-3.4zm32-.7c0-.4.3-.8.7-.8h13a.8.8 0 0 1 0 1.5h-13a.8.8 0 0 1-.8-.7zm27.9 44.8c.5-.3 1.1-.3 1.7 0a4 4 0 0 1 1.7 1.9 3 3 0 0 1 0 2.2 9.5 9.5 0 0 1-3.4 3.9c-1.1.8-2.5 1.6-3.8 2.3a9.8 9.8 0 0 0-.2 3.7c.1.4.3.6.5.7.3.2.8.3 1.4.2a13.5 13.5 0 0 0 4.8-1.4c0-.5 0-1 .3-1.4.4-1 1.1-1.8 1.9-2.4s1.7-1 2.5-1.2h1.2c.5.2.8.5 1 1 0 .4 0 .7-.2 1a3 3 0 0 1-.4.6c-.4.5-.9 1-1.5 1.4-.9.6-1.9 1.3-3 1.8 0 .2.2.3.5.3.4 0 .9 0 1.5-.2 1.2-.3 2.6-1 4-1.9l.4-.2a21.4 21.4 0 0 1 2.8-4c.4-.3.8-.7 1.2-.8l.7-.2c.4 0 .6.2.8.5s.2.6.2.9l-.3.7-1.1 1.4c-.9.8-2 1.7-3.2 2.5l-.7 1.6a17 17 0 0 0 6.5-4.2c.6-.7 1.3-1 2-.9.8.1 1.4.4 1.9.8l.7.4.8.5c.5.3.8.4 1.1.4a.8.8 0 0 1 0 1.6c-.7 0-1.4-.4-1.9-.7a15 15 0 0 1-1.5-1l-1.2-.5c-.2 0-.5 0-.9.4-2 2-4.1 3.7-7.3 4.7l-.8.1a1 1 0 0 1-.7-.5c-.2-.3-.2-.5-.2-.8v-.6c-1 .6-2 1-3 1.3-.6.2-1.3.3-2 .2a2.3 2.3 0 0 1-1.7-1.1h-.2a15 15 0 0 1-5 1.4c-.7 0-1.4 0-2-.4-.7-.3-1.2-.9-1.3-1.6-.2-1-.2-2 0-3.3a39 39 0 0 1-6.1 2.3.7.7 0 1 1-.4-1.4c2-.6 4.4-1.5 6.7-2.7.4-1.5.9-3 1.5-4.4a15 15 0 0 1 2.3-3.9 4 4 0 0 1 1.4-1m-3.4 8.3 2.5-1.5a8.2 8.2 0 0 0 3-3.2v-1.1c-.2-.4-.5-.8-1.2-1.2h-.3l-.9.7a23.8 23.8 0 0 0-3 6.3zm7.7 4.5a19.6 19.6 0 0 0 3.5-2.6l.2-.3h-.3a5 5 0 0 0-1.9 1c-.6.5-1.2 1.2-1.4 1.8zm-66.4-1.5.2-.2c.4-.4.8-1.1 1-1.7a.7.7 0 1 1 1.4.6 8 8 0 0 1-1.3 2c-.2.4-.6.7-1.1.8l-.8-.1-.6-.6c-.3-.3-.3-.8-.3-1.2l.1-1.4c.3-1 .8-2.2 1.5-3.3 1.4-2.1 3.7-4.3 6.8-4.3.9 0 1.6.4 2 1 .5.6.7 1.3.7 2.1 0 1-.1 2.2-.5 3.4l1.6-.4c1.9-.4 3.3-.3 4.3.3.6.3 1 .6 1.3 1 .7-.4 1.5-.7 2.5-.8 1.1-.2 2 0 2.6.3.6.4 1 1 1.2 1.5l.2.6.3.6c.1.3.3.4.5.5 1.2.3 2.4-.4 2.8-.8a.7.7 0 1 1 1 1c-.6.6-2.2 1.7-4.2 1.2-.8-.2-1.2-.7-1.4-1.2l-.4-.7v-.1l-.2-.5c-.2-.4-.3-.6-.6-.8-.2-.1-.7-.3-1.6-.2-.9.2-1.6.5-2.2.9a5 5 0 0 1-.2 2.6c-.2.4-.3.7-.6 1-.2.3-.6.6-1.1.6-.4 0-.8-.2-1-.5s-.3-.7-.3-1c0-.6.2-1.3.6-2l.9-1.2a2 2 0 0 0-.8-.7c-.6-.3-1.6-.5-3.2-.2-1 .2-1.8.5-2.6.8v.1c-.7 1.9-1.7 3.7-2.5 5a9 9 0 0 1-1.3 1.6l-.7.5c-.2.1-.6.2-1 0-.7-.6-.9-1.5-.8-2.3s.5-1.7 1.1-2.6c.9-1.2 2.2-2.4 4-3.3.5-1.6.9-3 .8-4.1 0-.7-.1-1-.3-1.3-.2-.2-.4-.3-.9-.3-2.4 0-4.3 1.6-5.6 3.5-.6 1-1 2-1.2 2.8l-.1 1a1.5 1.5 0 0 0 0 .5m6.4.2q-1.2.9-1.8 1.8c-.6.8-.8 1.5-.9 2v.5c.3-.2.6-.7 1-1.3.6-.8 1.1-1.9 1.7-3m26.8-1.8c0-.4.3-.8.7-.8h10a.8.8 0 0 1 0 1.6h-10a.8.8 0 0 1-.8-.8zM260 35.2l.2.6c.2.4.5 1 1 1.5a25.5 25.5 0 0 0 5.4 4c2.2-.4 7-.8 10.6 0A13.7 13.7 0 0 1 283 44l.6.4.3.2c.4 0 .8-.3 1.2-.7l1-1.4h.1l.4-.6c0-.2.3-.4.5-.6l.5-.2c.3 0 .5.1.7.3l.3.4.1.4c.2.6.1 1.2 0 1.7a15 15 0 0 1-1.2 3 84 84 0 0 1 8.1-.2c.3 0 .5 0 .8.3.2.3.3.7.2 1 0 .2-.2.4-.4.6l-.4.4a143 143 0 0 1-5.1 3l-1.2.6-.9.4.3.3c.4.6.8 1.6.8 3.2a5 5 0 0 1 1.4 3.6 6 6 0 0 1-2.7 5c-1.1.7-2 1.4-2.5 1.9l-1 .7c-.8.6-1.4 1-2.4 1-.8 0-1.4-.4-1.8-1-.3-.4-.4-1-.4-1.3a.8.8 0 0 1 1.4 0l.2.5c.1.1.2.3.6.3.5 0 .9-.2 1.6-.7l.7-.6 2.8-2.1c1.5-1.1 2-2.5 2-3.7 0-1.3-.5-2.3-1-2.6l-.8-.1a6 6 0 0 0-1.3.2 14 14 0 0 0-3 1.2 12.5 12.5 0 0 0-1.9 1.8l-.4.8a.8.8 0 0 1-1.4 0c0-.5.1-1 .4-1.3a161 161 0 0 1-6.1 2l-.2.1a.8.8 0 0 1-.6-.4.8.8 0 0 1 0-.9h.2l.2-.2.3-.3.7-.7 1.6-1.9a26 26 0 0 1-3 .5l-.4-.1-.3-.4a.8.8 0 0 1 .2-.9h.1l.4-.2.7-.5a8.7 8.7 0 0 0 1.4-1.5 57.2 57.2 0 0 1-25.3-8l-.6-.6-.2-.3v-.7c.2-.4.5-.5.7-.6h.6l1.7-.1a55 55 0 0 1 5.8.6 14.2 14.2 0 0 1-1.7-3.6l-.2-.5v-.5l.4-.3c.5-.2.8.1.8.1a.8.8 0 0 1 .2.2v.1a4 4 0 0 1 .1.3l.3.3a8.4 8.4 0 0 0 1.7 1l-.2-.3a13.1 13.1 0 0 1-1.3-6.2l.2-.5.4-.4h.7l.3.3zm-.4 11.7a2.4 2.4 0 0 0 2 .3l.3-.2a.8.8 0 0 0 0-.9.8.8 0 0 0-.3-.4l-.5-.1a13 13 0 0 0-.8-.2l-.5-.5c-.4-.4-.7-1-1-1.6a32 32 0 0 0 4.8 2c.1 0 .4 0 .6-.3a.8.8 0 0 0-.2-1l-.1-.1-1-.6a4.7 4.7 0 0 1-2-2.2c-.5-1-.8-2-1-3l.2.2a27 27 0 0 0 6 4.4h.5c2-.3 6.8-.7 10.2 0a12.2 12.2 0 0 1 5.4 2.6l.5.4.6.4.7.2h.1a4 4 0 0 0 2-1.2l1.1-1.4c0 .5-.2 1-.4 1.4l-1.2 2.1h-.2a.7.7 0 1 0 .2 1.5h.8a87 87 0 0 1 8.1-.6q-.9.75-2.4 1.5l-2.1 1.1a178 178 0 0 0-3 1.8s-.3.2-.3.5.2.5.3.6l.2.3.4.4c.2.3.5.7.6 1.7h-.4c-.5 0-1.1 0-1.7.2l-2.6 1h-.3l-.4.3-.2.1-1.2.5a129 129 0 0 1-4.8 1.8 102 102 0 0 0 3.2-3.9l-.1-.5a.8.8 0 0 0-1-.3l-.2.2a5 5 0 0 0-.4.4l-.6.2-1.4.4 1.5-2 .9-1.3-1.6.2a55.7 55.7 0 0 1-25.4-7.3h.8a53 53 0 0 1 7.4.8zM272 92.3c.3-.2.5-.4.6-.7v-.9l-.1-.2h-.3l-.5.7c-.2.4-.2.7-.1.9 0 .2.1.2.2.2h.3zm-.6 1c.8.3 1.7-.3 2.1-1.3s.1-2.2-.6-2.5c-.8-.3-1.8.3-2.2 1.4-.4 1 0 2 .7 2.4" clip-rule="evenodd"/><path fill="#FF444F" d="M61 270.5c10.8 0 14.5-8.4 14.5-17.5 0 9.1 3.7 17.5 14.5 17.5-10.8 0-14.5 8.4-14.5 17.5 0-9-3.7-17.5-14.5-17.5"/><path fill="#FF444F" fill-rule="evenodd" d="M61 270.8v-.6c5.3 0 8.9-2 11.1-5.2a21 21 0 0 0 3.1-12h.6c0 4.5.9 8.9 3.1 12 2.2 3.2 5.8 5.2 11.1 5.2v.6c-5.3 0-8.9 2-11.1 5.2a21 21 0 0 0-3.1 12h-.6c0-4.4-.9-8.8-3.1-12-2.2-3.1-5.8-5.2-11.1-5.2M75.5 284c.4-3.1 1.3-6 3-8.3 1.8-2.7 4.6-4.5 8.4-5.2-3.8-.7-6.6-2.5-8.4-5.2a18.7 18.7 0 0 1-3-8.3c-.4 3.1-1.4 6-3 8.3a12.4 12.4 0 0 1-8.4 5.2c3.8.7 6.6 2.6 8.4 5.3 1.6 2.3 2.6 5.2 3 8.2" clip-rule="evenodd"/><path fill="#FF444F" d="M23 73.5c10.8 0 14.5-8.4 14.5-17.5 0 9.1 3.7 17.5 14.5 17.5-10.8 0-14.5 8.4-14.5 17.5 0-9-3.7-17.5-14.5-17.5"/><path fill="#FF444F" fill-rule="evenodd" d="M23 73.8v-.6c5.3 0 8.9-2 11.1-5.2a21 21 0 0 0 3.1-12h.6c0 4.5.9 8.9 3.1 12 2.2 3.2 5.8 5.2 11.1 5.2v.6c-5.3 0-8.9 2-11.1 5.2a21 21 0 0 0-3.1 12h-.6c0-4.4-.9-8.8-3.1-12-2.2-3.1-5.8-5.2-11.1-5.2M37.5 87c.4-3.1 1.3-6 3-8.3 1.8-2.7 4.6-4.5 8.4-5.2-3.8-.7-6.6-2.5-8.4-5.2a18.7 18.7 0 0 1-3-8.3c-.4 3.1-1.4 6-3 8.3a12.4 12.4 0 0 1-8.4 5.2c3.8.7 6.6 2.6 8.4 5.3 1.6 2.3 2.6 5.2 3 8.2" clip-rule="evenodd"/><path fill="#FF444F" d="M477 149.5c10.8 0 14.5-8.4 14.5-17.5 0 9.1 3.7 17.5 14.5 17.5-10.8 0-14.5 8.4-14.5 17.5 0-9-3.7-17.5-14.5-17.5"/><path fill="#FF444F" fill-rule="evenodd" d="M477 149.8v-.6c5.3 0 8.9-2 11.1-5.2a21 21 0 0 0 3.1-12h.6c0 4.5.9 8.9 3.1 12 2.2 3.2 5.8 5.2 11.1 5.2v.6c-5.3 0-8.9 2-11.1 5.2a21 21 0 0 0-3.1 12h-.6c0-4.4-.9-8.8-3.1-12-2.2-3.1-5.8-5.2-11.1-5.2m14.5 13.2c.4-3.1 1.3-6 3-8.3 1.8-2.7 4.6-4.5 8.4-5.2-3.8-.7-6.6-2.5-8.4-5.2a18.7 18.7 0 0 1-3-8.3c-.4 3.1-1.4 6-3 8.3a12.4 12.4 0 0 1-8.4 5.2c3.8.7 6.6 2.6 8.4 5.3 1.6 2.3 2.6 5.2 3 8.2" clip-rule="evenodd"/><path fill="#FF444F" d="M140.5 23.5c-1 3 10 8.5 21 16 3.5 2.3 14.5 9.5 16 9.5s-.5-2.5-7.5-9.5c-16.5-14-28.5-19-29.5-16m23 46c-3.6-2-19.8-4.8-27.5-6l-54-4c26.7 17.2 81.2 51.9 86 53.5 6 2 6.5 4.5 2 6.5-3.6 1.6-60.2 30-88 44 25.7 5.7 78.8 17.1 86 17.5 9 .5 4 6 2 7s-67 73.5-71 70.5 1-8 4-10.5c2.4-2 41.3-43.2 60.5-63.5L72 167c-1.7.7-5.6 1.6-8 0-3-2 3-8.5 8-10.5s88-41.5 87-42l-87-55h-6.5c-3 0-9-9 1.5-10.5s51.5 6.5 73.5 10.5S172 71 172 72.5s-4-.5-8.5-3"/><path fill="#FF444F" d="M90 219c2.4 0 19.7-11 28-16.5 0-2.5-25 7-30 10s-1 6.5 2 6.5m56 61c-.8-2.8 18-14.2 27.5-19.5 1.5 2-12.5 14-17.5 19.5s-9 3.5-10 0M64 108.5c0-4.5 26-2.5 38-1.5 1.2 0 3.6.3 4 1.5.5 1.5-2.5 1.5-7 1.5s-35 3-35-1.5m434.5-89a124 124 0 0 0-19 22.5c2 3.5 12.5-8.5 19-12.5s12-10 10.5-13-4-1.5-10.5 3m54 12.5c-12.4 2-56.2 22.2-76.5 32-5.2 2.5 0 5.5 3.5 3.5s58-25.5 65-28.5c5.6-2.4 16-4 20.5-4.5a7726 7726 0 0 0-65 72c-4.5 5.5-1.5 6 2.5 6.5s109.5 26 109 29-105 50.5-104.5 54 81 43.5 78.5 45-92.5 7.5-102.5 9.5-7 6.5-2 8 101.5-13 109.5-12 9.5 0 5.5-7c-6.8-14-55.5-36.2-79-45.5 18-8.3 60.7-27.5 87.5-37.5C638 144 628 136.5 621 135c-5.6-1.2-78.3-19.2-114-28a5365 5365 0 0 1 72-75c8-7.5 3-10.5 0-10.5s-6.5 3-8 5-3 3-18.5 5.5"/><path fill="#FF444F" d="M604.5 75C602 72 579 82 569 86c0 4.5 12 0 27-4.5s11-3.5 8.5-6.5M598 192c-5.5 0-28 .5-28 2 0 2 15.5 5 32 5.5s1.5-7.5-4-7.5m-116 79.5c2.5 0 26.5 12.5 25 14.5s-26-12-25-14.5"/></svg>