<svg xmlns="http://www.w3.org/2000/svg" width="662" height="329" fill="none"><g clip-path="url(#a)"><path fill="#fff" d="M0 0h661.5v328.2H0z"/><path fill="#fff" d="M598.2 25.9c-45.6 0-84-21.4-95-33.5-9-10-39.4-15.1-9 8.5 38 29.5 71 34 104 35.5s65.2-6.3 82.3-17c27-17 52.1-53.2 15.7-23-27.7 23-52.4 29.5-98 29.5"/><path fill="#1A1B22" fill-rule="evenodd" d="M486-7.2q3 3 8.7 7.5c37.8 29.3 70.6 33.8 103.5 35.3 33 1.5 65-6.3 81.9-16.9a125 125 0 0 0 31.4-29l1.5-2.4a6 6 0 0 0 .6-1.6v-.2h-.5c-1 .3-2.8 1.2-5.6 3.1a150 150 0 0 0-10.8 8.3c-14 11.6-27.1 19-42.6 23.5-15.4 4.6-33 6.2-55.9 6.2-23 0-44-5.3-60.8-12.2a103.4 103.4 0 0 1-34.8-21.5 26.6 26.6 0 0 0-9.2-6 22.7 22.7 0 0 0-9.4-2.1c-1.2 0-1.8.4-2 .8-.3.3-.4 1 .2 2.3.6 1.2 1.8 2.8 3.8 4.9m8-7.4a28 28 0 0 1 9.8 6.5 102 102 0 0 0 34.2 21 160.2 160.2 0 0 0 60.2 12.2c22.8 0 40.3-1.6 55.5-6a114.3 114.3 0 0 0 42-23.3c4.6-3.8 8.2-6.6 11-8.4 2.7-2 4.7-3 6-3.3.7-.2 1.4-.2 1.9.2.6.4.6 1.2.5 1.7-.1.6-.4 1.3-.8 2l-1.5 2.6A126.4 126.4 0 0 1 680.9 20c-17.2 10.8-49.6 18.6-82.7 17.1s-66.3-6-104.5-35.6C490-1.5 487-4 485-6.2c-2.1-2-3.5-3.8-4.2-5.3-.6-1.4-.8-2.7-.1-3.7.6-1 1.9-1.4 3.2-1.5a24 24 0 0 1 10.1 2.2z" clip-rule="evenodd"/><path fill="#1A1B22" fill-rule="evenodd" d="M568.4 24.3c3.4-3 7.7-2.2 10.5-.5l-.8 1.3c-2.5-1.6-6-2.1-8.7.3-2.7 2.5-5 8.4-4.1 20.5 2 30.5 5 42.4 6.4 47.4l-1.4.4c-1.5-5-4.5-17.1-6.5-47.7-.8-12.2 1.3-18.7 4.6-21.7" clip-rule="evenodd"/><path fill="#1A1B22" fill-rule="evenodd" d="M575 93c-11.5 0-50 51-50 51v151c-.1 2.3.8 7 6 7.5 5.4.4 57.8.1 77.3 0h7.2c4 0 7-1.5 8-7.5.8-4.8.4-101 0-151 0 0-33.5-51-48.5-51m0 5.5c-2.5.5-5 2-5 5 0 1.6 1.5 5.5 6 5.5s6-3 6-5.5-2-5-7-5" clip-rule="evenodd"/><path fill="#fff" fill-rule="evenodd" d="M525.8 144.2V295c-.1 1 0 2.7.9 4 .7 1.4 2 2.6 4.4 2.7 2.6.2 17 .3 33.3.2a13552 13552 0 0 0 51.1-.2 7 7 0 0 0 4.7-1.3c1.2-1 2-2.6 2.6-5.5l.1-1.9.1-3.8.2-12.8v-40c0-30.8-.3-67.2-.4-92.2l-.3-.4a259 259 0 0 0-5-7.4c-3.4-4.7-8-11-13.2-17.4a160 160 0 0 0-15.9-17.5 47.3 47.3 0 0 0-7.4-5.7c-2.3-1.3-4.3-2-6-2-1.2 0-2.9.6-5 2a57 57 0 0 0-7.1 5.7c-5.2 4.8-11.1 11.1-16.6 17.5a524 524 0 0 0-20.3 24.9zm97.7-.2.6-.4.2.2v.2a20884 20884 0 0 1 .2 145.2 186 186 0 0 1-.2 6c-.6 3-1.6 5-3.2 6.4a8.5 8.5 0 0 1-5.6 1.6h-7.1l-44 .2c-16.2 0-30.7 0-33.4-.2a6.7 6.7 0 0 1-5.6-3.4 9 9 0 0 1-1.1-4.8V143.7l.1-.2.6.5-.6-.5.1-.1a71 71 0 0 1 1.6-2 548 548 0 0 1 19-23.4c5.6-6.4 11.5-12.8 16.7-17.6 2.7-2.4 5.2-4.4 7.4-5.9 2.1-1.4 4.1-2.3 5.8-2.3 2 0 4.4 1 6.8 2.3 2.4 1.5 5 3.5 7.6 5.9 5.3 4.8 11 11.2 16 17.6a360 360 0 0 1 18.4 25l.2.4.1.1zM575 97.7h.1a9 9 0 0 1 5.9 1.8c1.3 1 1.9 2.5 1.9 4 0 1.4-.4 3-1.5 4.2s-2.9 2-5.3 2a6.6 6.6 0 0 1-6.8-6.3c0-1.7.8-3 1.9-4 1-.8 2.4-1.4 3.8-1.7m.2 1.5c-1.1.3-2.2.7-3 1.4s-1.3 1.6-1.3 2.9c0 .6.3 1.8 1.1 2.9a5 5 0 0 0 4.1 1.8c2 0 3.4-.7 4.1-1.5.8-1 1.2-2.1 1.2-3.2 0-1-.4-2-1.4-2.9-1-.8-2.5-1.4-4.8-1.4" clip-rule="evenodd"/><path fill="#1A1B22" fill-rule="evenodd" d="M579.6 74.3C581 61 582 45.7 581.3 36h1.5a326 326 0 0 1-5.1 61.8 28 28 0 0 1-1 3c-.6 1-1.2 1.5-1.8 1.8a2 2 0 0 1-2-.3 4 4 0 0 1-1-1.3c-.3-.4-.5-1-.6-1.3l1.4-.4.5 1 .6.8h.5c.3 0 .6-.3 1-1a27 27 0 0 0 .8-2.7 326 326 0 0 0 3.4-23.2zm12.8-49c3.4-3 7.7-2.2 10.5-.5l-.8 1.3c-2.5-1.6-6-2.1-8.7.3-2.7 2.5-5 8.4-4.1 20.5 2 30.5 5 41.4 6.4 46.4l-1.4.4c-1.5-5-4.5-16.1-6.5-46.7-.8-12.2 1.3-18.7 4.6-21.7" clip-rule="evenodd"/><path fill="#1A1B22" fill-rule="evenodd" d="M599 93c-11.5 0-50 51-50 51v151c-.1 2.3.8 7 6 7.5 5.4.4 57.8.1 77.3 0h7.2c4 0 7-1.5 8-7.5.8-4.8.4-101 0-151 0 0-33.5-51-48.5-51m0 5.5c-2.5.5-5 2-5 5 0 1.6 1.5 5.5 6 5.5s6-3 6-5.5-2-5-7-5" clip-rule="evenodd"/><path fill="#fff" fill-rule="evenodd" d="M549.8 144.2V295c-.1 1 0 2.7.9 4 .7 1.4 2 2.6 4.4 2.7 2.6.2 17 .3 33.3.2a13552 13552 0 0 0 51.1-.2 7 7 0 0 0 4.7-1.3c1.2-1 2-2.6 2.6-5.5l.1-1.9.1-3.8.2-12.8v-40c0-30.8-.3-67.2-.4-92.2l-.3-.4a259 259 0 0 0-5-7.4c-3.4-4.7-8-11-13.2-17.4a160 160 0 0 0-15.9-17.5 47.3 47.3 0 0 0-7.4-5.7c-2.3-1.3-4.3-2-6-2-1.2 0-2.9.6-5 2a57 57 0 0 0-7.1 5.7c-5.2 4.8-11.1 11.1-16.6 17.5a524 524 0 0 0-20.3 24.9zm97.7-.2.6-.4.2.2v.2a20884 20884 0 0 1 .2 145.2 186 186 0 0 1-.2 6c-.6 3-1.6 5-3.2 6.4a8.5 8.5 0 0 1-5.6 1.6h-7.1l-44 .2c-16.2 0-30.7 0-33.4-.2a6.7 6.7 0 0 1-5.6-3.4 9 9 0 0 1-1.1-4.8V143.7l.1-.2.6.5-.6-.5.1-.1a71 71 0 0 1 1.6-2 548 548 0 0 1 19-23.4c5.6-6.4 11.5-12.8 16.7-17.6 2.7-2.4 5.2-4.4 7.4-5.9 2.1-1.4 4.1-2.3 5.8-2.3 2 0 4.4 1 6.8 2.3 2.4 1.5 5 3.5 7.6 5.9 5.3 4.8 11 11.2 16 17.6a360 360 0 0 1 18.4 25l.2.4.1.1zM599 97.7h.1a9 9 0 0 1 5.9 1.8c1.3 1 1.9 2.5 1.9 4 0 1.4-.4 3-1.5 4.2s-2.9 2-5.3 2a6.6 6.6 0 0 1-6.8-6.3c0-1.7.8-3 1.9-4 1-.8 2.4-1.4 3.8-1.7m.2 1.5c-1.1.3-2.2.7-3 1.4s-1.3 1.6-1.3 2.9c0 .6.3 1.8 1.1 2.9a5 5 0 0 0 4.1 1.8c2 0 3.4-.7 4.1-1.5.8-1 1.2-2.1 1.2-3.2 0-1-.4-2-1.4-2.9-1-.8-2.5-1.4-4.8-1.4" clip-rule="evenodd"/><path fill="#1A1B22" fill-rule="evenodd" d="M603.6 74.3C605 61 606 45.7 605.3 36h1.5a326 326 0 0 1-5.1 61.8 28 28 0 0 1-1 3c-.6 1-1.2 1.5-1.8 1.8a2 2 0 0 1-2-.3 4 4 0 0 1-1-1.3c-.3-.4-.5-1-.6-1.3l1.4-.4.5 1 .6.8h.5c.3 0 .6-.3 1-1a27 27 0 0 0 .8-2.7 326 326 0 0 0 3.4-23.2zm16.8-50c3.4-3 7.7-2.2 10.5-.5l-.8 1.3c-2.5-1.6-6-2.1-8.7.3-2.7 2.5-5 8.4-4.1 20.5 2 30.5 5 42.4 6.4 47.4l-1.4.4c-1.5-5-4.5-17.1-6.5-47.7-.8-12.2 1.3-18.7 4.6-21.7" clip-rule="evenodd"/><path fill="#1A1B22" fill-rule="evenodd" d="M627 93c-11.5 0-50 51-50 51v151c-.1 2.3.8 7 6 7.5 5.4.4 57.8.1 77.3 0h7.2c4 0 7-1.5 8-7.5.8-4.8.4-101 0-151 0 0-33.5-51-48.5-51m0 5.5c-2.5.5-5 2-5 5 0 1.6 1.5 5.5 6 5.5s6-3 6-5.5-2-5-7-5" clip-rule="evenodd"/><path fill="#fff" fill-rule="evenodd" d="M577.8 144.2V295c-.1 1 0 2.7.9 4 .7 1.4 2 2.6 4.4 2.7 2.6.2 17 .3 33.3.2a13552 13552 0 0 0 51.1-.2 7 7 0 0 0 4.7-1.3c1.2-1 2-2.6 2.6-5.5l.1-1.9.1-3.8.2-12.8v-40c0-30.8-.3-67.2-.4-92.2l-.3-.4a259 259 0 0 0-5-7.4c-3.4-4.7-8-11-13.2-17.4a160 160 0 0 0-15.9-17.5 47.3 47.3 0 0 0-7.4-5.7c-2.3-1.3-4.3-2-6-2-1.2 0-2.9.6-5 2a57 57 0 0 0-7.1 5.7c-5.2 4.8-11.1 11.1-16.6 17.5a524 524 0 0 0-20.3 24.9zm97.7-.2.6-.4.2.2v.2a20884 20884 0 0 1 .2 145.2 186 186 0 0 1-.2 6c-.6 3-1.6 5-3.2 6.4a8.5 8.5 0 0 1-5.6 1.6h-7.1l-44 .2c-16.2 0-30.7 0-33.4-.2a6.7 6.7 0 0 1-5.6-3.4 9 9 0 0 1-1.1-4.8V143.7l.1-.2.6.5-.6-.5.1-.1a71 71 0 0 1 1.6-2 548 548 0 0 1 19-23.4c5.6-6.4 11.5-12.8 16.7-17.6 2.7-2.4 5.2-4.4 7.4-5.9 2.1-1.4 4.1-2.3 5.8-2.3 2 0 4.4 1 6.8 2.3 2.4 1.5 5 3.5 7.6 5.9 5.3 4.8 11 11.2 16 17.6a360 360 0 0 1 18.4 25l.2.4.1.1zM627 97.7h.1a9 9 0 0 1 5.9 1.8c1.3 1 1.9 2.5 1.9 4 0 1.4-.4 3-1.5 4.2s-2.9 2-5.3 2a6.6 6.6 0 0 1-6.8-6.3c0-1.7.8-3 1.9-4 1-.8 2.4-1.4 3.8-1.7m.2 1.5c-1.1.3-2.2.7-3 1.4s-1.3 1.6-1.3 2.9c0 .6.3 1.8 1.1 2.9a5 5 0 0 0 4.1 1.8c2 0 3.4-.7 4.1-1.5.8-1 1.2-2.1 1.2-3.2 0-1-.4-2-1.4-2.9-1-.8-2.5-1.4-4.8-1.4" clip-rule="evenodd"/><path fill="#1A1B22" fill-rule="evenodd" d="M631.6 73.8c1.4-13.6 2.4-29 1.7-38.8h1.5a341.7 341.7 0 0 1-5.1 62.8 28 28 0 0 1-1 3c-.6 1-1.2 1.5-1.8 1.8a2 2 0 0 1-2-.3 4 4 0 0 1-1-1.3c-.3-.4-.5-1-.6-1.3l1.4-.4.5 1 .6.8h.5c.3 0 .6-.3 1-1a27 27 0 0 0 .8-2.7l1.2-5.9c.7-4.7 1.6-11 2.3-17.7m22.3-58c3.4-3 7.7-2.2 10.5-.4l-.8 1.2c-2.5-1.5-6-2.1-8.7.3-2.8 2.5-5 8.4-4.2 20.6 2 30.4 5 40.3 6.5 45.3l-1.4.4c-1.5-5-4.5-15.1-6.5-45.7-.9-12.2 1.3-18.7 4.6-21.7" clip-rule="evenodd"/><path fill="#fff" fill-rule="evenodd" d="M660.5 82.5c-11.5 0-50 51-50 51v151c-.2 2.3.8 7.1 6 7.5 5.4.4 57.8.1 77.3 0h7.2c4 0 7-1.5 8-7.5.8-4.8.3-101 0-151 0 0-33.5-51-48.5-51m0 5.5c-2.5.5-5 2-5 5 0 1.6 1.5 5.5 6 5.5s6-3 6-5.5-2-5-7-5" clip-rule="evenodd"/><path fill="#1A1B22" fill-rule="evenodd" d="M611.3 133.8v150.7c-.1 1.1 0 2.7.8 4.1.8 1.3 2.1 2.5 4.5 2.7 2.6.2 17 .2 33.3.2a13551 13551 0 0 0 51.1-.3 7 7 0 0 0 4.6-1.3c1.2-1 2.2-2.6 2.7-5.5v-1.9l.2-3.8.1-12.8v-40c0-30.8-.2-67.2-.3-92.2l-.3-.4a248 248 0 0 0-5-7.3 358 358 0 0 0-13.2-17.5A160 160 0 0 0 673.9 91a47 47 0 0 0-7.4-5.7c-2.3-1.3-4.3-2-6-2-1.2 0-3 .6-5 2a57 57 0 0 0-7.2 5.7c-5.2 4.8-11 11.1-16.5 17.5a522 522 0 0 0-20.5 25.3m97.7-.3.6-.4.1.2v.2a20884 20884 0 0 1 .3 145.2 186 186 0 0 1-.3 6c-.5 3-1.5 5.1-3.1 6.4a8.5 8.5 0 0 1-5.6 1.6h-7.1l-44 .3c-16.2 0-30.7 0-33.5-.3a6.7 6.7 0 0 1-5.6-3.4 9 9 0 0 1-1-4.8V133.2l.1-.2.6.5-.6-.5.1-.1.3-.4a273 273 0 0 1 5.8-7.4c3.8-4.8 9-11.2 14.5-17.6A223 223 0 0 1 647.3 90c2.7-2.4 5.1-4.4 7.3-5.8s4.2-2.3 5.9-2.3c2 0 4.4.8 6.8 2.2 2.4 1.5 5 3.5 7.6 6 5.3 4.7 11 11.1 16 17.5a360 360 0 0 1 18.3 25l.3.4.1.2-.6.4zm-48.6-46.3h.1a9 9 0 0 1 5.9 1.8c1.3 1 1.9 2.5 1.9 4 0 1.4-.5 3-1.5 4.2-1.2 1.2-2.9 2-5.3 2a6.6 6.6 0 0 1-6.8-6.3c0-1.6.8-3 1.9-3.9 1-1 2.4-1.5 3.8-1.7zm.2 1.6c-1.2.2-2.3.6-3 1.3-.8.7-1.4 1.6-1.4 2.9 0 .6.4 1.8 1.2 2.9a5 5 0 0 0 4.1 1.8c2 0 3.4-.6 4.1-1.5.8-.9 1.1-2 1.1-3.2 0-1-.4-2-1.3-2.9-1-.7-2.5-1.3-4.8-1.3" clip-rule="evenodd"/><path fill="#1A1B22" fill-rule="evenodd" d="M665 63.8c1.5-13.3 2.5-28.6 1.8-38.2l1.4-.2a328 328 0 0 1-5.1 61.8 27 27 0 0 1-1 3.2c-.5.9-1.1 1.4-1.8 1.7a2 2 0 0 1-1.8-.3c-.5-.3-.9-.8-1.2-1.3l-.5-1.3 1.4-.4c0 .3.2.6.4 1l.7.8h.5c.2 0 .6-.3 1-1l.4-.9.5-1.8a326 326 0 0 0 3.4-23.2z" clip-rule="evenodd"/><path fill="#1A1B22" d="M544 27a90 90 0 0 0 20-4.5A504 504 0 0 1 522 6c-2.4-1.6-15.2-13-20.5-18.5-6.2 0-16.5 2.5-8.5 12.5 10 12.5 47 26.5 51 27"/><path fill="#fff" d="M453.2 25.9c-45.6 0-84-21.4-95-33.5-9-10-39.4-15.1-9 8.5 38 29.5 71 34 104 35.5s65.2-6.3 82.3-17c27-17 52.1-53.2 15.7-23-27.7 23-52.4 29.5-98 29.5"/><path fill="#1A1B22" fill-rule="evenodd" d="M341-7.2q3 3 8.7 7.5c37.8 29.3 70.6 33.8 103.5 35.3 33 1.5 65-6.3 81.9-16.9a125 125 0 0 0 31.4-29l1.5-2.4a6 6 0 0 0 .6-1.6v-.2h-.5c-1 .3-2.8 1.2-5.6 3.1a150 150 0 0 0-10.8 8.3c-14 11.6-27.1 19-42.6 23.5-15.4 4.6-33 6.2-55.9 6.2-23 0-44-5.3-60.8-12.2a103.4 103.4 0 0 1-34.8-21.5 26.6 26.6 0 0 0-9.2-6 22.7 22.7 0 0 0-9.4-2.1c-1.2 0-1.8.4-2 .8-.3.3-.4 1 .2 2.3.6 1.2 1.8 2.8 3.8 4.9m8-7.4a28 28 0 0 1 9.8 6.5 102 102 0 0 0 34.2 21 160.2 160.2 0 0 0 60.2 12.2c22.8 0 40.3-1.6 55.5-6a114.3 114.3 0 0 0 42-23.3c4.6-3.8 8.2-6.6 11-8.4 2.7-2 4.7-3 6-3.3.7-.2 1.4-.2 1.9.2.6.4.6 1.2.5 1.7-.1.6-.4 1.3-.8 2l-1.5 2.6A126.4 126.4 0 0 1 535.9 20c-17.2 10.8-49.6 18.6-82.7 17.1s-66.3-6-104.5-35.6C345-1.5 342-4 340-6.2c-2.1-2-3.5-3.8-4.2-5.3-.6-1.4-.8-2.7-.1-3.7.6-1 1.9-1.4 3.2-1.5a24 24 0 0 1 10.1 2.2z" clip-rule="evenodd"/><path fill="#1A1B22" fill-rule="evenodd" d="M423.4 24.3c3.4-3 7.7-2.2 10.5-.5l-.8 1.3c-2.5-1.6-6-2.1-8.7.3-2.7 2.5-5 8.4-4.1 20.5 2 30.5 5 42.4 6.4 47.4l-1.4.4c-1.5-5-4.5-17.1-6.5-47.7-.8-12.2 1.3-18.7 4.6-21.7" clip-rule="evenodd"/><path fill="#1A1B22" fill-rule="evenodd" d="M430 93c-11.5 0-50 51-50 51v151c-.1 2.3.8 7 6 7.5 5.4.4 57.8.1 77.3 0h7.2c4 0 7-1.5 8-7.5.8-4.8.4-101 0-151 0 0-33.5-51-48.5-51m0 5.5c-2.5.5-5 2-5 5 0 1.6 1.5 5.5 6 5.5s6-3 6-5.5-2-5-7-5" clip-rule="evenodd"/><path fill="#fff" fill-rule="evenodd" d="M380.8 144.2V295c-.1 1 0 2.7.9 4 .7 1.4 2 2.6 4.4 2.7 2.6.2 17 .3 33.3.2a13552 13552 0 0 0 51.1-.2 7 7 0 0 0 4.7-1.3c1.2-1 2-2.6 2.6-5.5l.1-1.9.1-3.8.2-12.8v-40c0-30.8-.3-67.2-.4-92.2a107 107 0 0 0-1.4-2 371 371 0 0 0-17-23.2 160 160 0 0 0-16-17.5 47.3 47.3 0 0 0-7.4-5.7c-2.3-1.3-4.3-2-6-2-1.2 0-2.9.6-5 2a57 57 0 0 0-7.1 5.7c-5.2 4.8-11.1 11.1-16.6 17.5a524 524 0 0 0-20.3 24.9zm97.7-.2.6-.4.2.2v.2a20884 20884 0 0 1 .2 145.2 186 186 0 0 1-.2 6c-.6 3-1.6 5-3.2 6.4a8.5 8.5 0 0 1-5.6 1.6h-7.1l-44 .2c-16.2 0-30.7 0-33.4-.2a6.7 6.7 0 0 1-5.6-3.4 9 9 0 0 1-1.1-4.8V143.7l.1-.2.6.5-.6-.5.1-.1a71 71 0 0 1 1.6-2 548 548 0 0 1 19-23.4c5.6-6.4 11.5-12.8 16.7-17.6 2.7-2.4 5.2-4.4 7.4-5.9 2.1-1.4 4.1-2.3 5.8-2.3 2 0 4.4 1 6.8 2.3 2.4 1.5 5 3.5 7.6 5.9 5.3 4.8 11 11.2 16 17.6a360 360 0 0 1 18.4 25l.2.4.1.1zM430 97.7h.1a9 9 0 0 1 5.9 1.8c1.3 1 1.9 2.5 1.9 4 0 1.4-.4 3-1.5 4.2s-2.9 2-5.3 2a6.6 6.6 0 0 1-6.8-6.3c0-1.7.8-3 1.9-4 1-.8 2.4-1.4 3.8-1.7m.2 1.5c-1.1.3-2.2.7-3 1.4s-1.3 1.6-1.3 2.9c0 .6.3 1.8 1.1 2.9a5 5 0 0 0 4.1 1.8c2 0 3.4-.7 4.1-1.5.8-1 1.2-2.1 1.2-3.2 0-1-.4-2-1.4-2.9-1-.8-2.5-1.4-4.8-1.4" clip-rule="evenodd"/><path fill="#1A1B22" fill-rule="evenodd" d="M434.6 74.3C436 61 437 45.7 436.3 36h1.5a326 326 0 0 1-5.1 61.8 28 28 0 0 1-1 3c-.6 1-1.2 1.5-1.8 1.8a2 2 0 0 1-2-.3 4 4 0 0 1-1-1.3c-.3-.4-.5-1-.6-1.3l1.4-.4.5 1 .6.8h.5c.3 0 .6-.3 1-1a27 27 0 0 0 .8-2.7 326 326 0 0 0 3.4-23.2zm12.8-49c3.4-3 7.7-2.2 10.5-.5l-.8 1.3c-2.5-1.6-6-2.1-8.7.3-2.7 2.5-5 8.4-4.1 20.5 2 30.5 5 41.4 6.4 46.4l-1.4.4c-1.5-5-4.5-16.1-6.5-46.7-.8-12.2 1.3-18.7 4.6-21.7" clip-rule="evenodd"/><path fill="#1A1B22" fill-rule="evenodd" d="M454 93c-11.5 0-50 51-50 51v151c-.1 2.3.8 7 6 7.5 5.4.4 57.8.1 77.3 0h7.2c4 0 7-1.5 8-7.5.8-4.8.4-101 0-151 0 0-33.5-51-48.5-51m0 5.5c-2.5.5-5 2-5 5 0 1.6 1.5 5.5 6 5.5s6-3 6-5.5-2-5-7-5" clip-rule="evenodd"/><path fill="#fff" fill-rule="evenodd" d="M404.8 144.2V295c-.1 1 0 2.7.9 4 .7 1.4 2 2.6 4.4 2.7 2.6.2 17 .3 33.3.2a13552 13552 0 0 0 51.1-.2 7 7 0 0 0 4.7-1.3c1.2-1 2-2.6 2.6-5.5l.1-1.9.1-3.8.2-12.8v-40c0-30.8-.3-67.2-.4-92.2a107 107 0 0 0-1.4-2 371 371 0 0 0-17-23.2 160 160 0 0 0-16-17.5 47.3 47.3 0 0 0-7.4-5.7c-2.3-1.3-4.3-2-6-2-1.2 0-2.9.6-5 2a57 57 0 0 0-7.1 5.7c-5.2 4.8-11.1 11.1-16.6 17.5a524 524 0 0 0-20.3 24.9zm97.7-.2.6-.4.2.2v.2a20884 20884 0 0 1 .2 145.2 186 186 0 0 1-.2 6c-.6 3-1.6 5-3.2 6.4a8.5 8.5 0 0 1-5.6 1.6h-7.1l-44 .2c-16.2 0-30.7 0-33.4-.2a6.7 6.7 0 0 1-5.6-3.4 9 9 0 0 1-1.1-4.8V143.7l.1-.2.6.5-.6-.5.1-.1a71 71 0 0 1 1.6-2 548 548 0 0 1 19-23.4c5.6-6.4 11.5-12.8 16.7-17.6 2.7-2.4 5.2-4.4 7.4-5.9 2.1-1.4 4.1-2.3 5.8-2.3 2 0 4.4 1 6.8 2.3 2.4 1.5 5 3.5 7.6 5.9 5.3 4.8 11 11.2 16 17.6a360 360 0 0 1 18.4 25l.2.4.1.1zM454 97.7h.1a9 9 0 0 1 5.9 1.8c1.3 1 1.9 2.5 1.9 4 0 1.4-.4 3-1.5 4.2s-2.9 2-5.3 2a6.6 6.6 0 0 1-6.8-6.3c0-1.7.8-3 1.9-4 1-.8 2.4-1.4 3.8-1.7m.2 1.5c-1.1.3-2.2.7-3 1.4s-1.3 1.6-1.3 2.9c0 .6.3 1.8 1.1 2.9a5 5 0 0 0 4.1 1.8c2 0 3.4-.7 4.1-1.5.8-1 1.2-2.1 1.2-3.2 0-1-.4-2-1.4-2.9-1-.8-2.5-1.4-4.8-1.4" clip-rule="evenodd"/><path fill="#1A1B22" fill-rule="evenodd" d="M458.6 74.3C460 61 461 45.7 460.3 36h1.5a326 326 0 0 1-5.1 61.8 28 28 0 0 1-1 3c-.6 1-1.2 1.5-1.8 1.8a2 2 0 0 1-2-.3 4 4 0 0 1-1-1.3c-.3-.4-.5-1-.6-1.3l1.4-.4.5 1 .6.8h.5c.3 0 .6-.3 1-1a27 27 0 0 0 .8-2.7 326 326 0 0 0 3.4-23.2zm16.8-50c3.4-3 7.7-2.2 10.5-.5l-.8 1.3c-2.5-1.6-6-2.1-8.7.3-2.7 2.5-5 8.4-4.1 20.5 2 30.5 5 42.4 6.4 47.4l-1.4.4c-1.5-5-4.5-17.1-6.5-47.7-.8-12.2 1.3-18.7 4.6-21.7" clip-rule="evenodd"/><path fill="#1A1B22" fill-rule="evenodd" d="M482 93c-11.5 0-50 51-50 51v151c-.1 2.3.8 7 6 7.5 5.4.4 57.8.1 77.3 0h7.2c4 0 7-1.5 8-7.5.8-4.8.4-101 0-151 0 0-33.5-51-48.5-51m0 5.5c-2.5.5-5 2-5 5 0 1.6 1.5 5.5 6 5.5s6-3 6-5.5-2-5-7-5" clip-rule="evenodd"/><path fill="#fff" fill-rule="evenodd" d="M432.8 144.2V295c-.1 1 0 2.7.9 4 .7 1.4 2 2.6 4.4 2.7 2.6.2 17 .3 33.3.2a13552 13552 0 0 0 51.1-.2 7 7 0 0 0 4.7-1.3c1.2-1 2-2.6 2.6-5.5l.1-1.9.1-3.8.2-12.8v-40c0-30.8-.3-67.2-.4-92.2l-.3-.4a259 259 0 0 0-5-7.4c-3.4-4.7-8-11-13.2-17.4a160 160 0 0 0-15.9-17.5 47.3 47.3 0 0 0-7.4-5.7c-2.3-1.3-4.3-2-6-2-1.2 0-2.9.6-5 2a57 57 0 0 0-7.1 5.7c-5.2 4.8-11.1 11.1-16.6 17.5a524 524 0 0 0-20.3 24.9zm97.7-.2.6-.4.2.2v.2a20884 20884 0 0 1 .2 145.2 186 186 0 0 1-.2 6c-.6 3-1.6 5-3.2 6.4a8.5 8.5 0 0 1-5.6 1.6h-7.1l-44 .2c-16.2 0-30.7 0-33.4-.2a6.7 6.7 0 0 1-5.6-3.4 9 9 0 0 1-1.1-4.8V143.7l.1-.2.6.5-.6-.5.1-.1a71 71 0 0 1 1.6-2 548 548 0 0 1 19-23.4c5.6-6.4 11.5-12.8 16.7-17.6 2.7-2.4 5.2-4.4 7.4-5.9 2.1-1.4 4.1-2.3 5.8-2.3 2 0 4.4 1 6.8 2.3 2.4 1.5 5 3.5 7.6 5.9 5.3 4.8 11 11.2 16 17.6a360 360 0 0 1 18.4 25l.2.4.1.1zM482 97.7h.1a9 9 0 0 1 5.9 1.8c1.3 1 1.9 2.5 1.9 4 0 1.4-.4 3-1.5 4.2s-2.9 2-5.3 2a6.6 6.6 0 0 1-6.8-6.3c0-1.7.8-3 1.9-4 1-.8 2.4-1.4 3.8-1.7m.2 1.5c-1.1.3-2.2.7-3 1.4s-1.3 1.6-1.3 2.9c0 .6.3 1.8 1.1 2.9a5 5 0 0 0 4.1 1.8c2 0 3.4-.7 4.1-1.5.8-1 1.2-2.1 1.2-3.2 0-1-.4-2-1.4-2.9-1-.8-2.5-1.4-4.8-1.4" clip-rule="evenodd"/><path fill="#1A1B22" fill-rule="evenodd" d="M486.6 73.8c1.4-13.6 2.4-29 1.7-38.8h1.5a341.7 341.7 0 0 1-5.1 62.8 28 28 0 0 1-1 3c-.6 1-1.2 1.5-1.8 1.8a2 2 0 0 1-2-.3 4 4 0 0 1-1-1.3c-.3-.4-.5-1-.6-1.3l1.4-.4.5 1 .6.8h.5c.3 0 .6-.3 1-1a27 27 0 0 0 .8-2.7l1.2-5.9c.7-4.7 1.6-11 2.3-17.7m22.3-58c3.4-3 7.7-2.2 10.5-.4l-.8 1.2c-2.5-1.5-6-2.1-8.7.3-2.8 2.5-5 8.4-4.2 20.6 2 30.4 5 40.3 6.5 45.3l-1.4.4c-1.5-5-4.5-15.1-6.5-45.7-.9-12.2 1.3-18.7 4.6-21.7" clip-rule="evenodd"/><path fill="#fff" fill-rule="evenodd" d="M515.5 82.5c-11.5 0-50 51-50 51v151c-.2 2.3.8 7.1 6 7.5 5.4.4 57.8.1 77.3 0h7.2c4 0 7-1.5 8-7.5.8-4.8.3-101 0-151 0 0-33.5-51-48.5-51m0 5.5c-2.5.5-5 2-5 5 0 1.6 1.5 5.5 6 5.5s6-3 6-5.5-2-5-7-5" clip-rule="evenodd"/><path fill="#1A1B22" fill-rule="evenodd" d="M466.3 133.8v150.7c-.1 1.1 0 2.7.8 4.1.8 1.3 2.1 2.5 4.5 2.7 2.6.2 17 .2 33.3.2a13551 13551 0 0 0 51.1-.3 7 7 0 0 0 4.6-1.3c1.2-1 2.2-2.6 2.7-5.5v-1.9l.2-3.8.1-12.8v-40c0-30.8-.2-67.2-.3-92.2l-.3-.4a248 248 0 0 0-5-7.3 358 358 0 0 0-13.2-17.5A160 160 0 0 0 528.9 91a47 47 0 0 0-7.4-5.7c-2.3-1.3-4.3-2-6-2-1.2 0-3 .6-5 2a57 57 0 0 0-7.2 5.7c-5.2 4.8-11 11.1-16.5 17.5a522 522 0 0 0-20.6 25.3zm97.7-.3.6-.4.1.2v.2a20884 20884 0 0 1 .3 145.2 186 186 0 0 1-.3 6c-.5 3-1.5 5.1-3.1 6.4a8.5 8.5 0 0 1-5.6 1.6h-7.1l-44 .3c-16.2 0-30.7 0-33.5-.3a6.7 6.7 0 0 1-5.6-3.4 9 9 0 0 1-1-4.8V133.2l.1-.2.6.5-.6-.5.1-.1.3-.4a273 273 0 0 1 5.8-7.4c3.8-4.8 9-11.2 14.5-17.6A223 223 0 0 1 502.3 90c2.7-2.4 5.1-4.4 7.3-5.8s4.2-2.3 5.9-2.3c2 0 4.4.8 6.8 2.2 2.4 1.5 5 3.5 7.6 6 5.3 4.7 11 11.1 16 17.5a360 360 0 0 1 18.3 25l.3.4.1.2-.6.4zm-48.6-46.3h.1a9 9 0 0 1 5.9 1.8c1.3 1 1.9 2.5 1.9 4 0 1.4-.5 3-1.5 4.2-1.2 1.2-2.9 2-5.3 2a6.6 6.6 0 0 1-6.8-6.3c0-1.6.8-3 1.9-3.9 1-1 2.4-1.5 3.8-1.7zm.2 1.6c-1.2.2-2.3.6-3 1.3-.8.7-1.4 1.6-1.4 2.9 0 .6.4 1.8 1.2 2.9a5 5 0 0 0 4.1 1.8c2 0 3.4-.6 4.1-1.5.8-.9 1.1-2 1.1-3.2 0-1-.4-2-1.3-2.9-1-.7-2.5-1.3-4.8-1.3" clip-rule="evenodd"/><path fill="#1A1B22" fill-rule="evenodd" d="M520 63.8c1.5-13.3 2.5-28.6 1.8-38.2l1.4-.2a328 328 0 0 1-5.1 61.8 27 27 0 0 1-1 3.2c-.5.9-1.1 1.4-1.8 1.7a2 2 0 0 1-1.8-.3c-.5-.3-.9-.8-1.2-1.3l-.5-1.3 1.4-.4c0 .3.2.6.4 1l.7.8h.5c.2 0 .6-.3 1-1l.4-.9.5-1.8a326 326 0 0 0 3.4-23.2z" clip-rule="evenodd"/><path fill="#1A1B22" d="M399 27a90 90 0 0 0 20-4.5A504 504 0 0 1 377 6c-2.4-1.6-15.2-13-20.5-18.5-6.2 0-16.5 2.5-8.5 12.5 10 12.5 47 26.5 51 27"/><path fill="#fff" d="M311.2 25.9c-45.6 0-84-21.4-95-33.5-9-10-39.4-15.1-9 8.5 38 29.5 71 34 104 35.5s65.2-6.3 82.3-17c27-17 52.1-53.2 15.7-23-27.7 23-52.4 29.5-98 29.5"/><path fill="#1A1B22" fill-rule="evenodd" d="M199-7.2q3 3 8.7 7.5c37.8 29.3 70.6 33.8 103.5 35.3 33 1.5 65-6.3 81.9-16.9a125 125 0 0 0 31.4-29l1.5-2.4a6 6 0 0 0 .6-1.6v-.2h-.5c-1 .3-2.8 1.2-5.6 3.1a150 150 0 0 0-10.8 8.3c-14 11.6-27.1 19-42.6 23.5-15.4 4.6-33 6.2-55.9 6.2-23 0-44-5.3-60.8-12.2a103.4 103.4 0 0 1-34.8-21.5 26.6 26.6 0 0 0-9.2-6 22.7 22.7 0 0 0-9.4-2.1c-1.2 0-1.8.4-2 .8-.3.3-.4 1 .2 2.3.6 1.2 1.8 2.8 3.8 4.9m8-7.4a28 28 0 0 1 9.8 6.5 102 102 0 0 0 34.2 21 160.2 160.2 0 0 0 60.2 12.2c22.8 0 40.3-1.6 55.5-6a114.3 114.3 0 0 0 42-23.3c4.6-3.8 8.2-6.6 11-8.4 2.7-2 4.7-3 6-3.3.7-.2 1.4-.2 1.9.2.6.4.6 1.2.5 1.7-.1.6-.4 1.3-.8 2l-1.5 2.6A126.4 126.4 0 0 1 393.9 20c-17.2 10.8-49.6 18.6-82.7 17.1s-66.3-6-104.5-35.6C203-1.5 200-4 198-6.2c-2.1-2-3.5-3.8-4.2-5.3-.6-1.4-.8-2.7-.1-3.7.6-1 1.9-1.4 3.2-1.5a24 24 0 0 1 10.1 2.2z" clip-rule="evenodd"/><path fill="#1A1B22" fill-rule="evenodd" d="M281.4 24.3c3.4-3 7.7-2.2 10.5-.5l-.8 1.3c-2.5-1.6-6-2.1-8.7.3-2.7 2.5-5 8.4-4.1 20.5 2 30.5 5 42.4 6.4 47.4l-1.4.4c-1.5-5-4.5-17.1-6.5-47.7-.8-12.2 1.3-18.7 4.6-21.7" clip-rule="evenodd"/><path fill="#1A1B22" fill-rule="evenodd" d="M288 93c-11.5 0-50 51-50 51v151c-.1 2.3.8 7 6 7.5 5.4.4 57.8.1 77.3 0h7.2c4 0 7-1.5 8-7.5.8-4.8.4-101 0-151 0 0-33.5-51-48.5-51m0 5.5c-2.5.5-5 2-5 5 0 1.6 1.5 5.5 6 5.5s6-3 6-5.5-2-5-7-5" clip-rule="evenodd"/><path fill="#fff" fill-rule="evenodd" d="M238.8 144.2V295c-.1 1 0 2.7.9 4 .7 1.4 2 2.6 4.4 2.7 2.6.2 17 .3 33.3.2a13552 13552 0 0 0 51.1-.2 7 7 0 0 0 4.7-1.3c1.2-1 2-2.6 2.6-5.5l.1-1.9.1-3.8.2-12.8v-40c0-30.8-.3-67.2-.4-92.2a107 107 0 0 0-1.4-2 371 371 0 0 0-17-23.2 160 160 0 0 0-16-17.5 47.3 47.3 0 0 0-7.4-5.7c-2.3-1.3-4.3-2-6-2-1.2 0-2.9.6-5 2a57 57 0 0 0-7.1 5.7c-5.2 4.8-11.1 11.1-16.6 17.5a524 524 0 0 0-20.3 24.9zm97.7-.2.6-.4.2.2v.2a20884 20884 0 0 1 .2 145.2 186 186 0 0 1-.2 6c-.6 3-1.6 5-3.2 6.4a8.5 8.5 0 0 1-5.6 1.6h-7.1l-44 .2c-16.2 0-30.7 0-33.4-.2a6.7 6.7 0 0 1-5.6-3.4 9 9 0 0 1-1.1-4.8V143.7l.1-.2.6.5-.6-.5.1-.1a71 71 0 0 1 1.6-2 548 548 0 0 1 19-23.4c5.6-6.4 11.5-12.8 16.7-17.6 2.7-2.4 5.2-4.4 7.4-5.9 2.1-1.4 4.1-2.3 5.8-2.3 2 0 4.4 1 6.8 2.3 2.4 1.5 5 3.5 7.6 5.9 5.3 4.8 11 11.2 16 17.6a360 360 0 0 1 18.4 25l.2.4.1.1zM288 97.7h.1a9 9 0 0 1 5.9 1.8c1.3 1 1.9 2.5 1.9 4 0 1.4-.4 3-1.5 4.2s-2.9 2-5.3 2a6.6 6.6 0 0 1-6.8-6.3c0-1.7.8-3 1.9-4 1-.8 2.4-1.4 3.8-1.7m.2 1.5c-1.1.3-2.2.7-3 1.4s-1.3 1.6-1.3 2.9c0 .6.3 1.8 1.1 2.9a5 5 0 0 0 4.1 1.8c2 0 3.4-.7 4.1-1.5.8-1 1.2-2.1 1.2-3.2 0-1-.4-2-1.4-2.9-1-.8-2.5-1.4-4.8-1.4" clip-rule="evenodd"/><path fill="#1A1B22" fill-rule="evenodd" d="M292.6 74.3C294 61 295 45.7 294.3 36h1.5a326 326 0 0 1-5.1 61.8 28 28 0 0 1-1 3c-.6 1-1.2 1.5-1.8 1.8a2 2 0 0 1-2-.3 4 4 0 0 1-1-1.3c-.3-.4-.5-1-.6-1.3l1.4-.4.5 1 .6.8h.5c.3 0 .6-.3 1-1a27 27 0 0 0 .8-2.7 326 326 0 0 0 3.4-23.2zm12.8-49c3.4-3 7.7-2.2 10.5-.5l-.8 1.3c-2.5-1.6-6-2.1-8.7.3-2.7 2.5-5 8.4-4.1 20.5 2 30.5 5 41.4 6.4 46.4l-1.4.4c-1.5-5-4.5-16.1-6.5-46.7-.8-12.2 1.3-18.7 4.6-21.7" clip-rule="evenodd"/><path fill="#1A1B22" fill-rule="evenodd" d="M312 93c-11.5 0-50 51-50 51v151c-.1 2.3.8 7 6 7.5 5.4.4 57.8.1 77.3 0h7.2c4 0 7-1.5 8-7.5.8-4.8.4-101 0-151 0 0-33.5-51-48.5-51m0 5.5c-2.5.5-5 2-5 5 0 1.6 1.5 5.5 6 5.5s6-3 6-5.5-2-5-7-5" clip-rule="evenodd"/><path fill="#fff" fill-rule="evenodd" d="M262.8 144.2V295c-.1 1 0 2.7.9 4 .7 1.4 2 2.6 4.4 2.7 2.6.2 17 .3 33.3.2a13552 13552 0 0 0 51.1-.2 7 7 0 0 0 4.7-1.3c1.2-1 2-2.6 2.6-5.5l.1-1.9.1-3.8.2-12.8v-40c0-30.8-.3-67.2-.4-92.2a107 107 0 0 0-1.4-2 371 371 0 0 0-17-23.2 160 160 0 0 0-16-17.5 47.3 47.3 0 0 0-7.4-5.7c-2.3-1.3-4.3-2-6-2-1.2 0-2.9.6-5 2a57 57 0 0 0-7.1 5.7c-5.2 4.8-11.1 11.1-16.6 17.5a524 524 0 0 0-20.3 24.9zm97.7-.2.6-.4.2.2v.2a20884 20884 0 0 1 .2 145.2 186 186 0 0 1-.2 6c-.6 3-1.6 5-3.2 6.4a8.5 8.5 0 0 1-5.6 1.6h-7.1l-44 .2c-16.2 0-30.7 0-33.4-.2a6.7 6.7 0 0 1-5.6-3.4 9 9 0 0 1-1.1-4.8V143.7l.1-.2.6.5-.6-.5.1-.1a71 71 0 0 1 1.6-2 548 548 0 0 1 19-23.4c5.6-6.4 11.5-12.8 16.7-17.6 2.7-2.4 5.2-4.4 7.4-5.9 2.1-1.4 4.1-2.3 5.8-2.3 2 0 4.4 1 6.8 2.3 2.4 1.5 5 3.5 7.6 5.9 5.3 4.8 11 11.2 16 17.6a360 360 0 0 1 18.4 25l.2.4.1.1zM312 97.7h.1a9 9 0 0 1 5.9 1.8c1.3 1 1.9 2.5 1.9 4 0 1.4-.4 3-1.5 4.2s-2.9 2-5.3 2a6.6 6.6 0 0 1-6.8-6.3c0-1.7.8-3 1.9-4 1-.8 2.4-1.4 3.8-1.7m.2 1.5c-1.1.3-2.2.7-3 1.4s-1.3 1.6-1.3 2.9c0 .6.3 1.8 1.1 2.9a5 5 0 0 0 4.1 1.8c2 0 3.4-.7 4.1-1.5.8-1 1.2-2.1 1.2-3.2 0-1-.4-2-1.4-2.9-1-.8-2.5-1.4-4.8-1.4" clip-rule="evenodd"/><path fill="#1A1B22" fill-rule="evenodd" d="M316.6 74.3C318 61 319 45.7 318.3 36h1.5a326 326 0 0 1-5.1 61.8 28 28 0 0 1-1 3c-.6 1-1.2 1.5-1.8 1.8a2 2 0 0 1-2-.3 4 4 0 0 1-1-1.3c-.3-.4-.5-1-.6-1.3l1.4-.4.5 1 .6.8h.5c.3 0 .6-.3 1-1a27 27 0 0 0 .8-2.7 326 326 0 0 0 3.4-23.2zm16.8-50c3.4-3 7.7-2.2 10.5-.5l-.8 1.3c-2.5-1.6-6-2.1-8.7.3-2.7 2.5-5 8.4-4.1 20.5 2 30.5 5 42.4 6.4 47.4l-1.4.4c-1.5-5-4.5-17.1-6.5-47.7-.8-12.2 1.3-18.7 4.6-21.7" clip-rule="evenodd"/><path fill="#1A1B22" fill-rule="evenodd" d="M340 93c-11.5 0-50 51-50 51v151c-.1 2.3.8 7 6 7.5 5.4.4 57.8.1 77.3 0h7.2c4 0 7-1.5 8-7.5.8-4.8.4-101 0-151 0 0-33.5-51-48.5-51m0 5.5c-2.5.5-5 2-5 5 0 1.6 1.5 5.5 6 5.5s6-3 6-5.5-2-5-7-5" clip-rule="evenodd"/><path fill="#fff" fill-rule="evenodd" d="M290.8 144.2V295c-.1 1 0 2.7.9 4 .7 1.4 2 2.6 4.4 2.7 2.6.2 17 .3 33.3.2a13552 13552 0 0 0 51.1-.2 7 7 0 0 0 4.7-1.3c1.2-1 2-2.6 2.6-5.5l.1-1.9.1-3.8.2-12.8v-40c0-30.8-.3-67.2-.4-92.2a107 107 0 0 0-1.4-2 371 371 0 0 0-17-23.2 160 160 0 0 0-16-17.5 47.3 47.3 0 0 0-7.4-5.7c-2.3-1.3-4.3-2-6-2-1.2 0-2.9.6-5 2a57 57 0 0 0-7.1 5.7c-5.2 4.8-11.1 11.1-16.6 17.5a524 524 0 0 0-20.3 24.9zm97.7-.2.6-.4.2.2v.2a20884 20884 0 0 1 .2 145.2 186 186 0 0 1-.2 6c-.6 3-1.6 5-3.2 6.4a8.5 8.5 0 0 1-5.6 1.6h-7.1l-44 .2c-16.2 0-30.7 0-33.4-.2a6.7 6.7 0 0 1-5.6-3.4 9 9 0 0 1-1.1-4.8V143.7l.1-.2.6.5-.6-.5.1-.1a71 71 0 0 1 1.6-2 548 548 0 0 1 19-23.4c5.6-6.4 11.5-12.8 16.7-17.6 2.7-2.4 5.2-4.4 7.4-5.9 2.1-1.4 4.1-2.3 5.8-2.3 2 0 4.4 1 6.8 2.3 2.4 1.5 5 3.5 7.6 5.9 5.3 4.8 11 11.2 16 17.6a360 360 0 0 1 18.4 25l.2.4.1.1zM340 97.7h.1a9 9 0 0 1 5.9 1.8c1.3 1 1.9 2.5 1.9 4 0 1.4-.4 3-1.5 4.2s-2.9 2-5.3 2a6.6 6.6 0 0 1-6.8-6.3c0-1.7.8-3 1.9-4 1-.8 2.4-1.4 3.8-1.7m.2 1.5c-1.1.3-2.2.7-3 1.4s-1.3 1.6-1.3 2.9c0 .6.3 1.8 1.1 2.9a5 5 0 0 0 4.1 1.8c2 0 3.4-.7 4.1-1.5.8-1 1.2-2.1 1.2-3.2 0-1-.4-2-1.4-2.9-1-.8-2.5-1.4-4.8-1.4" clip-rule="evenodd"/><path fill="#1A1B22" fill-rule="evenodd" d="M344.6 73.8c1.4-13.6 2.4-29 1.7-38.8h1.5a341.7 341.7 0 0 1-5.1 62.8 28 28 0 0 1-1 3c-.6 1-1.2 1.5-1.8 1.8a2 2 0 0 1-2-.3 4 4 0 0 1-1-1.3c-.3-.4-.5-1-.6-1.3l1.4-.4.5 1 .6.8h.5c.3 0 .6-.3 1-1a27 27 0 0 0 .8-2.7l1.2-5.9c.7-4.7 1.6-11 2.3-17.7" clip-rule="evenodd"/><path fill="#1A1B22" d="M257 27a90 90 0 0 0 20-4.5A504 504 0 0 1 235 6c-2.4-1.6-15.2-13-20.5-18.5-6.2 0-16.5 2.5-8.5 12.5 10 12.5 47 26.5 51 27"/><path fill="#fff" d="M168.2 25.9c-45.6 0-84-21.4-95-33.5-9-10-39.4-15.1-9 8.5 38 29.5 71 34 104 35.5s65.2-6.3 82.3-17c27-17 52.1-53.2 15.7-23-27.7 23-52.4 29.5-98 29.5"/><path fill="#1A1B22" fill-rule="evenodd" d="M56-7.2q3 3 8.7 7.5c37.8 29.3 70.6 33.8 103.5 35.3 33 1.5 65-6.3 81.9-16.9a125 125 0 0 0 31.4-29l1.5-2.4a6 6 0 0 0 .6-1.6v-.2h-.5c-1 .3-2.8 1.2-5.6 3.1a150 150 0 0 0-10.8 8.3c-14 11.6-27.1 19-42.6 23.5-15.4 4.6-33 6.2-55.9 6.2-23 0-44-5.3-60.8-12.2A103.4 103.4 0 0 1 72.6-7.1a26.6 26.6 0 0 0-9.2-6 22.7 22.7 0 0 0-9.4-2.1c-1.2 0-1.8.4-2 .8-.3.3-.4 1 .2 2.3.6 1.2 1.8 2.8 3.8 4.9m8-7.4A28 28 0 0 1 73.8-8 102 102 0 0 0 108 13a160.2 160.2 0 0 0 60.2 12.2c22.8 0 40.3-1.6 55.5-6a114.3 114.3 0 0 0 42-23.3c4.6-3.8 8.2-6.6 11-8.4 2.7-2 4.7-3 6-3.3.7-.2 1.4-.2 1.9.2.6.4.6 1.2.5 1.7-.1.6-.4 1.3-.8 2l-1.5 2.6A126.4 126.4 0 0 1 250.9 20c-17.2 10.8-49.6 18.6-82.7 17.1s-66.3-6-104.5-35.6C60-1.5 57-4 55-6.2c-2.1-2-3.5-3.8-4.2-5.3-.6-1.4-.8-2.7-.1-3.7.6-1 1.9-1.4 3.2-1.5A24 24 0 0 1 64-14.5z" clip-rule="evenodd"/><path fill="#1A1B22" fill-rule="evenodd" d="M138.4 24.3c3.4-3 7.7-2.2 10.5-.5l-.8 1.3c-2.5-1.6-6-2.1-8.7.3-2.7 2.5-5 8.4-4.1 20.5 2 30.5 5 42.4 6.4 47.4l-1.4.4c-1.5-5-4.5-17.1-6.5-47.7-.8-12.2 1.3-18.7 4.6-21.7" clip-rule="evenodd"/><path fill="#1A1B22" fill-rule="evenodd" d="M145 93c-11.5 0-50 51-50 51v151c-.1 2.3.8 7 6 7.5 5.4.4 57.8.1 77.3 0h7.2c4 0 7-1.5 8-7.5.8-4.8.4-101 0-151 0 0-33.5-51-48.5-51m0 5.5c-2.5.5-5 2-5 5 0 1.6 1.5 5.5 6 5.5s6-3 6-5.5-2-5-7-5" clip-rule="evenodd"/><path fill="#fff" fill-rule="evenodd" d="M95.8 144.2V295c-.1 1 0 2.7.9 4 .7 1.4 2 2.6 4.4 2.7 2.6.2 17 .3 33.3.2a13552 13552 0 0 0 51.1-.2 7 7 0 0 0 4.7-1.3c1.2-1 2-2.6 2.6-5.5l.1-1.9.1-3.8.2-12.8v-40c0-30.8-.3-67.2-.4-92.2a107 107 0 0 0-1.4-2 371 371 0 0 0-17-23.2 160 160 0 0 0-16-17.5 47.3 47.3 0 0 0-7.4-5.7c-2.3-1.3-4.3-2-6-2-1.2 0-2.9.6-5 2a57 57 0 0 0-7.1 5.7c-5.2 4.8-11.1 11.1-16.6 17.5a524 524 0 0 0-20.5 25.2m97.7-.2.6-.4.2.2v.2a20884 20884 0 0 1 .2 145.2 186 186 0 0 1-.2 6c-.6 3-1.6 5-3.2 6.4a8.5 8.5 0 0 1-5.6 1.6h-7.1l-44 .2c-16.2 0-30.7 0-33.4-.2a6.7 6.7 0 0 1-5.6-3.4 9 9 0 0 1-1.1-4.8V143.7l.1-.2.6.5-.6-.5.1-.1.4-.4a333 333 0 0 1 5.7-7.5c3.8-4.7 9-11.1 14.5-17.5 5.6-6.4 11.5-12.8 16.7-17.6 2.7-2.4 5.2-4.4 7.4-5.9 2.1-1.4 4.1-2.3 5.8-2.3 2 0 4.4 1 6.8 2.3 2.4 1.5 5 3.5 7.6 5.9 5.3 4.8 11 11.2 16 17.6a360 360 0 0 1 18.4 25l.2.4.1.1zM145 97.7h.1a9 9 0 0 1 5.9 1.8c1.3 1 1.9 2.5 1.9 4 0 1.4-.4 3-1.5 4.2s-2.9 2-5.3 2a6.6 6.6 0 0 1-6.8-6.3c0-1.7.8-3 1.9-4 1-.8 2.4-1.4 3.8-1.7m.2 1.5c-1.1.3-2.2.7-3 1.4s-1.3 1.6-1.3 2.9c0 .6.3 1.8 1.1 2.9a5 5 0 0 0 4.1 1.8c2 0 3.4-.7 4.1-1.5.8-1 1.2-2.1 1.2-3.2 0-1-.4-2-1.4-2.9-1-.8-2.5-1.4-4.8-1.4" clip-rule="evenodd"/><path fill="#1A1B22" fill-rule="evenodd" d="M149.6 74.3C151 61 152 45.7 151.3 36h1.5a327 327 0 0 1-5.1 61.8 27 27 0 0 1-1 3c-.6 1-1.2 1.5-1.8 1.8a2 2 0 0 1-2-.3c-.4-.3-.8-.8-1-1.3-.3-.4-.5-1-.6-1.3l1.4-.4.5 1 .6.8h.5c.3 0 .6-.3 1-1a26 26 0 0 0 .8-2.7 326 326 0 0 0 3.4-23.2zm12.8-49c3.4-3 7.7-2.2 10.5-.5l-.8 1.3c-2.5-1.6-6-2.1-8.7.3-2.7 2.5-5 8.4-4.1 20.5 2 30.5 5 41.4 6.4 46.4l-1.4.4c-1.5-5-4.5-16.1-6.5-46.7-.8-12.2 1.3-18.7 4.6-21.7" clip-rule="evenodd"/><path fill="#1A1B22" fill-rule="evenodd" d="M169 93c-11.5 0-50 51-50 51v151c-.1 2.3.8 7 6 7.5 5.4.4 57.8.1 77.3 0h7.2c4 0 7-1.5 8-7.5.8-4.8.4-101 0-151 0 0-33.5-51-48.5-51m0 5.5c-2.5.5-5 2-5 5 0 1.6 1.5 5.5 6 5.5s6-3 6-5.5-2-5-7-5" clip-rule="evenodd"/><path fill="#fff" fill-rule="evenodd" d="M119.8 144.2V295c-.1 1 0 2.7.9 4 .7 1.4 2 2.6 4.4 2.7 2.6.2 17 .3 33.3.2a13552 13552 0 0 0 51.1-.2 7 7 0 0 0 4.7-1.3c1.2-1 2-2.6 2.6-5.5l.1-1.9.1-3.8.2-12.8v-40c0-30.8-.3-67.2-.4-92.2a107 107 0 0 0-1.4-2 371 371 0 0 0-17-23.2 160 160 0 0 0-16-17.5 47.3 47.3 0 0 0-7.4-5.7c-2.3-1.3-4.3-2-6-2-1.2 0-2.9.6-5 2a57 57 0 0 0-7.1 5.7c-5.2 4.8-11.1 11.1-16.6 17.5a524 524 0 0 0-20.3 24.9zm97.7-.2.6-.4.2.2v.2a20884 20884 0 0 1 .2 145.2 186 186 0 0 1-.2 6c-.6 3-1.6 5-3.2 6.4a8.5 8.5 0 0 1-5.6 1.6h-7.1l-44 .2c-16.2 0-30.7 0-33.4-.2a6.7 6.7 0 0 1-5.6-3.4 9 9 0 0 1-1.1-4.8V143.7l.1-.2.6.5-.6-.5.1-.1a71 71 0 0 1 1.6-2 548 548 0 0 1 19-23.4c5.6-6.4 11.5-12.8 16.7-17.6 2.7-2.4 5.2-4.4 7.4-5.9 2.1-1.4 4.1-2.3 5.8-2.3 2 0 4.4 1 6.8 2.3 2.4 1.5 5 3.5 7.6 5.9 5.3 4.8 11 11.2 16 17.6a360 360 0 0 1 18.4 25l.2.4.1.1zM169 97.7h.1a9 9 0 0 1 5.9 1.8c1.3 1 1.9 2.5 1.9 4 0 1.4-.4 3-1.5 4.2s-2.9 2-5.3 2a6.6 6.6 0 0 1-6.8-6.3c0-1.7.8-3 1.9-4 1-.8 2.4-1.4 3.8-1.7m.2 1.5c-1.1.3-2.2.7-3 1.4s-1.3 1.6-1.3 2.9c0 .6.3 1.8 1.1 2.9a5 5 0 0 0 4.1 1.8c2 0 3.4-.7 4.1-1.5.8-1 1.2-2.1 1.2-3.2 0-1-.4-2-1.4-2.9-1-.8-2.5-1.4-4.8-1.4" clip-rule="evenodd"/><path fill="#1A1B22" fill-rule="evenodd" d="M173.6 74.3C175 61 176 45.7 175.3 36h1.5a327 327 0 0 1-5.1 61.8 27 27 0 0 1-1 3c-.6 1-1.2 1.5-1.8 1.8a2 2 0 0 1-2-.3c-.4-.3-.8-.8-1-1.3-.3-.4-.5-1-.6-1.3l1.4-.4.5 1 .6.8h.5c.3 0 .6-.3 1-1a26 26 0 0 0 .8-2.7 326 326 0 0 0 3.4-23.2zm16.8-50c3.4-3 7.7-2.2 10.5-.5l-.8 1.3c-2.5-1.6-6-2.1-8.7.3-2.7 2.5-5 8.4-4.1 20.5 2 30.5 5 42.4 6.4 47.4l-1.4.4c-1.5-5-4.5-17.1-6.5-47.7-.8-12.2 1.3-18.7 4.6-21.7" clip-rule="evenodd"/><path fill="#1A1B22" fill-rule="evenodd" d="M197 93c-11.5 0-50 51-50 51v151c-.1 2.3.8 7 6 7.5 5.4.4 57.8.1 77.3 0h7.2c4 0 7-1.5 8-7.5.8-4.8.4-101 0-151 0 0-33.5-51-48.5-51m0 5.5c-2.5.5-5 2-5 5 0 1.6 1.5 5.5 6 5.5s6-3 6-5.5-2-5-7-5" clip-rule="evenodd"/><path fill="#fff" fill-rule="evenodd" d="M147.8 144.2V295c-.1 1 0 2.7.9 4 .7 1.4 2 2.6 4.4 2.7 2.6.2 17 .3 33.3.2a13552 13552 0 0 0 51.1-.2 7 7 0 0 0 4.7-1.3c1.2-1 2-2.6 2.6-5.5l.1-1.9.1-3.8.2-12.8v-40c0-30.8-.3-67.2-.4-92.2a107 107 0 0 0-1.4-2 371 371 0 0 0-17-23.2 160 160 0 0 0-16-17.5 47.3 47.3 0 0 0-7.4-5.7c-2.3-1.3-4.3-2-6-2-1.2 0-2.9.6-5 2a57 57 0 0 0-7.1 5.7c-5.2 4.8-11.1 11.1-16.6 17.5a524 524 0 0 0-20.3 24.9zm97.7-.2.6-.4.2.2v.2a20884 20884 0 0 1 .2 145.2 186 186 0 0 1-.2 6c-.6 3-1.6 5-3.2 6.4a8.5 8.5 0 0 1-5.6 1.6h-7.1l-44 .2c-16.2 0-30.7 0-33.4-.2a6.7 6.7 0 0 1-5.6-3.4 9 9 0 0 1-1.1-4.8V143.7l.1-.2.6.5-.6-.5.1-.1a71 71 0 0 1 1.6-2 548 548 0 0 1 19-23.4c5.6-6.4 11.5-12.8 16.7-17.6 2.7-2.4 5.2-4.4 7.4-5.9 2.1-1.4 4.1-2.3 5.8-2.3 2 0 4.4 1 6.8 2.3 2.4 1.5 5 3.5 7.6 5.9 5.3 4.8 11 11.2 16 17.6a360 360 0 0 1 18.4 25l.2.4.1.1zM197 97.7h.1a9 9 0 0 1 5.9 1.8c1.3 1 1.9 2.5 1.9 4 0 1.4-.4 3-1.5 4.2s-2.9 2-5.3 2a6.6 6.6 0 0 1-6.8-6.3c0-1.7.8-3 1.9-4 1-.8 2.4-1.4 3.8-1.7m.2 1.5c-1.1.3-2.2.7-3 1.4s-1.3 1.6-1.3 2.9c0 .6.3 1.8 1.1 2.9a5 5 0 0 0 4.1 1.8c2 0 3.4-.7 4.1-1.5.8-1 1.2-2.1 1.2-3.2 0-1-.4-2-1.4-2.9-1-.8-2.5-1.4-4.8-1.4" clip-rule="evenodd"/><path fill="#1A1B22" fill-rule="evenodd" d="M201.6 73.8c1.4-13.6 2.4-29 1.7-38.8h1.5a340.7 340.7 0 0 1-5.1 62.8 28 28 0 0 1-1 3c-.6 1-1.2 1.5-1.8 1.8a2 2 0 0 1-2-.3c-.4-.3-.8-.8-1-1.3-.3-.4-.5-1-.6-1.3l1.4-.4.5 1 .6.8h.5c.3 0 .6-.3 1-1a27 27 0 0 0 .8-2.7l1.2-5.9c.7-4.7 1.6-11 2.3-17.7m22.3-58c3.4-3 7.7-2.2 10.5-.4l-.8 1.2c-2.5-1.5-6-2.1-8.7.3-2.8 2.5-5 8.4-4.2 20.6 2 30.4 5 40.3 6.5 45.3l-1.4.4c-1.5-5-4.5-15.1-6.5-45.7-.9-12.2 1.3-18.7 4.6-21.7" clip-rule="evenodd"/><path fill="#fff" fill-rule="evenodd" d="M230.5 82.5c-11.5 0-50 51-50 51v151c-.2 2.3.8 7.1 6 7.5 5.4.4 57.8.1 77.3 0h7.2c4 0 7-1.5 8-7.5.8-4.8.3-101 0-151 0 0-33.5-51-48.5-51m0 5.5c-2.5.5-5 2-5 5 0 1.6 1.5 5.5 6 5.5s6-3 6-5.5-2-5-7-5" clip-rule="evenodd"/><path fill="#1A1B22" fill-rule="evenodd" d="M181.3 133.8v150.7c-.1 1.1 0 2.7.8 4.1.8 1.3 2.1 2.5 4.5 2.7 2.6.2 17 .2 33.3.2a13551 13551 0 0 0 51.1-.3 7 7 0 0 0 4.6-1.3c1.2-1 2.2-2.6 2.7-5.5v-1.9l.2-3.8.1-12.8v-40c0-30.8-.2-67.2-.3-92.2l-.3-.4a248 248 0 0 0-5-7.3 358 358 0 0 0-13.2-17.5A160 160 0 0 0 243.9 91a47 47 0 0 0-7.4-5.7c-2.3-1.3-4.3-2-6-2-1.2 0-3 .6-5 2a57 57 0 0 0-7.2 5.7c-5.2 4.8-11 11.1-16.5 17.5a522 522 0 0 0-20.6 25.3zm97.7-.3.6-.4.1.2v.2a20884 20884 0 0 1 .3 145.2 186 186 0 0 1-.3 6c-.5 3-1.5 5.1-3.1 6.4a8.5 8.5 0 0 1-5.6 1.6h-7.1l-44 .3c-16.2 0-30.7 0-33.5-.3a6.7 6.7 0 0 1-5.6-3.4 9 9 0 0 1-1-4.8V133.2l.1-.2.6.5-.6-.5.1-.1.3-.4a273 273 0 0 1 5.8-7.4c3.8-4.8 9-11.2 14.5-17.6A223 223 0 0 1 217.3 90c2.7-2.4 5.1-4.4 7.3-5.8s4.2-2.3 5.9-2.3c2 0 4.4.8 6.8 2.2 2.4 1.5 5 3.5 7.6 6 5.3 4.7 11 11.1 16 17.5a360 360 0 0 1 18.3 25l.3.4.1.2-.6.4zm-48.6-46.3h.1a9 9 0 0 1 5.9 1.8c1.3 1 1.8 2.5 1.8 4 0 1.4-.4 3-1.4 4.2-1.2 1.2-2.9 2-5.3 2a6.6 6.6 0 0 1-6.8-6.3c0-1.6.8-3 1.9-3.9 1-1 2.4-1.5 3.8-1.7zm.2 1.6c-1.2.2-2.3.6-3 1.3-.8.7-1.3 1.6-1.3 2.9 0 .6.3 1.8 1.1 2.9a5 5 0 0 0 4.1 1.8c2 0 3.4-.6 4.1-1.5.8-.9 1.2-2 1.2-3.2 0-1-.5-2-1.4-2.9-1-.7-2.5-1.3-4.8-1.3" clip-rule="evenodd"/><path fill="#1A1B22" fill-rule="evenodd" d="M235 63.8c1.5-13.3 2.5-28.6 1.8-38.2l1.4-.2a328 328 0 0 1-5.1 61.8 28 28 0 0 1-1 3.2c-.5.9-1.1 1.4-1.8 1.7a2 2 0 0 1-1.8-.3c-.5-.3-.9-.8-1.2-1.3l-.5-1.3 1.4-.4c0 .3.2.6.4 1l.7.8h.5c.2 0 .6-.3 1-1l.4-.9.5-1.8a326 326 0 0 0 3.4-23.2z" clip-rule="evenodd"/><path fill="#1A1B22" d="M114 27a90 90 0 0 0 20-4.5A504 504 0 0 1 92 6C89.6 4.4 76.8-7 71.5-12.5 65.3-12.5 55-10 63 0c10 12.5 47 26.5 51 27"/><path fill="#fff" d="M18.2 25.9c-45.6 0-84-21.4-95-33.5-9-10-39.4-15.1-9 8.5 38 29.5 71 34 104 35.5s65.2-6.3 82.3-17c27-17 52.1-53.2 15.7-23-27.7 23-52.4 29.5-98 29.5"/><path fill="#1A1B22" fill-rule="evenodd" d="M-94-7.2q3 3 8.7 7.5C-47.5 29.6-14.7 34 18.2 35.6c33 1.5 65-6.3 81.9-16.9a125 125 0 0 0 31.4-29l1.5-2.4a6 6 0 0 0 .6-1.6v-.2h-.5c-1 .3-2.8 1.2-5.6 3.1a150 150 0 0 0-10.8 8.3C102.7 8.5 89.6 16 74 20.4c-15.4 4.6-33 6.2-55.9 6.2-23 0-44-5.3-60.8-12.2A103.4 103.4 0 0 1-77.4-7.1a26.6 26.6 0 0 0-9.2-6 22.7 22.7 0 0 0-9.4-2.1c-1.2 0-1.8.4-2 .8-.3.3-.4 1 .2 2.3.6 1.2 1.8 2.8 3.8 4.9m8-7.4A28 28 0 0 1-76.2-8 102 102 0 0 0-42 13a160.2 160.2 0 0 0 60.2 12.2c22.8 0 40.3-1.6 55.5-6a114.4 114.4 0 0 0 42-23.3c4.6-3.8 8.2-6.6 11-8.4 2.7-2 4.7-3 6-3.3.7-.2 1.4-.2 1.9.2.6.4.6 1.2.5 1.7-.1.6-.4 1.3-.8 2l-1.5 2.6A126.4 126.4 0 0 1 100.9 20C83.7 30.8 51.3 38.6 18.2 37S-48.1 31-86.3 1.4C-90-1.5-93-4-95-6.2c-2.1-2-3.5-3.8-4.2-5.3-.6-1.4-.8-2.7-.1-3.7.6-1 1.9-1.4 3.2-1.5A24 24 0 0 1-86-14.5zM-5 93c-11.5 0-50 51-50 51v151c-.1 2.3.8 7 6 7.5 5.4.4 57.8.1 77.3 0h7.2c4 0 7-1.5 8-7.5.8-4.8.4-101 0-151 0 0-33.5-51-48.5-51m0 5.5c-2.5.5-5 2-5 5 0 1.6 1.5 5.5 6 5.5s6-3 6-5.5-2-5-7-5" clip-rule="evenodd"/><path fill="#fff" fill-rule="evenodd" d="M-54.2 144.2V295c-.1 1 0 2.7.9 4 .7 1.4 2 2.6 4.4 2.7 2.6.2 17 .3 33.3.2a13551 13551 0 0 0 51.1-.2 7 7 0 0 0 4.7-1.3c1.2-1 2-2.6 2.6-5.5l.1-1.9.1-3.8.2-12.8v-40c0-30.8-.3-67.2-.4-92.2a171 171 0 0 0-5.4-7.8c-3.3-4.7-8-11-13-17.4a160 160 0 0 0-16-17.5A47.3 47.3 0 0 0 1 95.8c-2.3-1.3-4.3-2-6-2-1.2 0-2.9.6-5 2a57 57 0 0 0-7.1 5.7c-5.2 4.8-11.1 11.1-16.6 17.5a523 523 0 0 0-20.5 25.2m97.7-.2.6-.4.2.2v.2a21007 21007 0 0 1 .2 145.2 191 191 0 0 1-.2 6c-.6 3-1.6 5-3.2 6.4a8.5 8.5 0 0 1-5.6 1.6h-7.1l-44 .2c-16.2 0-30.7 0-33.4-.2a6.7 6.7 0 0 1-5.6-3.4 9 9 0 0 1-1.1-4.8V143.7l.1-.2.6.5-.6-.5.1-.1.4-.4a333 333 0 0 1 5.7-7.5c3.8-4.7 9-11.1 14.5-17.5 5.6-6.4 11.5-12.8 16.7-17.6 2.7-2.4 5.2-4.4 7.4-5.9 2.1-1.4 4.1-2.3 5.8-2.3 2 0 4.4 1 6.8 2.3 2.4 1.5 5 3.5 7.6 5.9 5.3 4.8 11 11.2 16 17.6A360 360 0 0 1 44 143.4l.1.1zM-5 97.7h.1A9 9 0 0 1 1 99.5c1.3 1 1.9 2.5 1.9 4 0 1.4-.4 3-1.5 4.2s-2.9 2-5.3 2a6.6 6.6 0 0 1-6.7-6.3c0-1.7.7-3 1.8-4 1-.8 2.4-1.4 3.8-1.7m.2 1.5c-1.1.3-2.2.7-3 1.4s-1.3 1.6-1.3 2.9c0 .6.3 1.8 1.1 2.9a5 5 0 0 0 4.1 1.8c2 0 3.4-.7 4.1-1.5.8-1 1.2-2.1 1.2-3.2 0-1-.4-2-1.4-2.9-1-.8-2.5-1.4-4.8-1.4" clip-rule="evenodd"/><path fill="#1A1B22" fill-rule="evenodd" d="M-.4 74.3C1 61 2 45.7 1.3 36h1.5a327.7 327.7 0 0 1-5.1 61.8 27 27 0 0 1-1 3c-.6 1-1.2 1.5-1.8 1.8a2 2 0 0 1-2-.3 4 4 0 0 1-1-1.3c-.3-.4-.5-1-.6-1.3l1.4-.4.5 1 .6.8h.5c.3 0 .6-.3 1-1a26 26 0 0 0 .8-2.7A326 326 0 0 0-.4 74.2zm12.8-49c3.4-3 7.7-2.2 10.5-.5l-.8 1.3c-2.5-1.6-6-2.1-8.7.3-2.7 2.5-5 8.4-4.1 20.5 2 30.5 5 41.4 6.4 46.4l-1.4.4c-1.5-5-4.5-16.1-6.5-46.7C7 34.8 9 28.3 12.4 25.3" clip-rule="evenodd"/><path fill="#1A1B22" fill-rule="evenodd" d="M19 93c-11.5 0-50 51-50 51v151c-.1 2.3.8 7 6 7.5 5.4.4 57.8.1 77.3 0h7.2c4 0 7-1.5 8-7.5.8-4.8.4-101 0-151 0 0-33.5-51-48.5-51m0 5.5c-2.5.5-5 2-5 5 0 1.6 1.5 5.5 6 5.5s6-3 6-5.5-2-5-7-5" clip-rule="evenodd"/><path fill="#fff" fill-rule="evenodd" d="M-30.2 144.2V295c-.1 1 0 2.7.9 4 .7 1.4 2 2.6 4.4 2.7 2.6.2 17 .3 33.3.2a13551 13551 0 0 0 51.1-.2 7 7 0 0 0 4.7-1.3c1.2-1 2-2.6 2.6-5.5l.1-1.9.1-3.8.2-12.8v-40c0-30.8-.3-67.2-.4-92.2a171 171 0 0 0-5.4-7.8c-3.3-4.7-8-11-13-17.4a160 160 0 0 0-16-17.5 47.3 47.3 0 0 0-7.4-5.7c-2.3-1.3-4.3-2-6-2-1.2 0-2.9.6-5 2a57 57 0 0 0-7.1 5.7C1.7 106.3-4.2 112.6-9.7 119a523 523 0 0 0-20.5 25.2m97.7-.2.6-.4.2.2v.2a21007 21007 0 0 1 .2 145.2 191 191 0 0 1-.2 6c-.6 3-1.6 5-3.2 6.4a8.5 8.5 0 0 1-5.6 1.6h-7.1l-44 .2c-16.2 0-30.7 0-33.4-.2a6.7 6.7 0 0 1-5.6-3.4 9 9 0 0 1-1.1-4.8V143.7l.1-.2.6.5-.6-.5.1-.1.4-.4a333 333 0 0 1 5.7-7.5c3.8-4.7 9-11.1 14.5-17.5 5.6-6.4 11.5-12.8 16.7-17.6C8.5 98 11 96 13.2 94.5c2.1-1.4 4.1-2.3 5.8-2.3 2 0 4.4 1 6.8 2.3 2.4 1.5 5 3.5 7.6 5.9 5.3 4.8 11 11.2 16 17.6A360 360 0 0 1 68 143.4l.1.1zM19 97.7h.1a9 9 0 0 1 5.9 1.8c1.3 1 1.9 2.5 1.9 4 0 1.4-.4 3-1.5 4.2s-2.9 2-5.3 2a6.6 6.6 0 0 1-6.7-6.3c0-1.7.7-3 1.8-4 1-.8 2.4-1.4 3.8-1.7m.2 1.5c-1.1.3-2.2.7-3 1.4s-1.3 1.6-1.3 2.9c0 .6.3 1.8 1.1 2.9a5 5 0 0 0 4.1 1.8c2 0 3.4-.7 4.1-1.5.8-1 1.2-2.1 1.2-3.2 0-1-.4-2-1.4-2.9-1-.8-2.5-1.4-4.8-1.4" clip-rule="evenodd"/><path fill="#1A1B22" fill-rule="evenodd" d="M23.6 74.3C25 61 26 45.7 25.3 36h1.5a327.7 327.7 0 0 1-5.1 61.8 27 27 0 0 1-1 3c-.6 1-1.2 1.5-1.8 1.8a2 2 0 0 1-2-.3 4 4 0 0 1-1-1.3c-.3-.4-.5-1-.6-1.3l1.4-.4.5 1 .6.8h.5c.3 0 .6-.3 1-1a26 26 0 0 0 .8-2.7 326 326 0 0 0 3.4-23.2zm16.8-50c3.4-3 7.7-2.2 10.5-.5l-.8 1.3c-2.5-1.6-6-2.1-8.7.3-2.7 2.5-5 8.4-4.1 20.5 2 30.5 5 42.4 6.4 47.4l-1.4.4c-1.5-5-4.5-17.1-6.5-47.7-.8-12.2 1.3-18.7 4.6-21.7" clip-rule="evenodd"/><path fill="#1A1B22" fill-rule="evenodd" d="M47 93c-11.5 0-50 51-50 51v151c-.1 2.3.8 7 6 7.5 5.4.4 57.8.1 77.3 0h7.2c4 0 7-1.5 8-7.5.8-4.8.4-101 0-151 0 0-33.5-51-48.5-51m0 5.5c-2.5.5-5 2-5 5 0 1.6 1.5 5.5 6 5.5s6-3 6-5.5-2-5-7-5" clip-rule="evenodd"/><path fill="#fff" fill-rule="evenodd" d="M-2.2 144.2V295c-.1 1 0 2.7.9 4 .7 1.4 2 2.6 4.4 2.7 2.6.2 17 .3 33.3.2a13551 13551 0 0 0 51.1-.2 7 7 0 0 0 4.7-1.3c1.2-1 2-2.6 2.6-5.5l.1-1.9.1-3.8.2-12.8v-40c0-30.8-.3-67.2-.4-92.2a171 171 0 0 0-5.4-7.8c-3.3-4.7-8-11-13-17.4a160 160 0 0 0-16-17.5 47.3 47.3 0 0 0-7.4-5.7c-2.3-1.3-4.3-2-6-2-1.2 0-2.9.6-5 2a57 57 0 0 0-7.1 5.7c-5.2 4.8-11.1 11.1-16.6 17.5A523 523 0 0 0-2 143.9zm97.7-.2.6-.4.2.2v.2a21007 21007 0 0 1 .2 145.2 191 191 0 0 1-.2 6c-.6 3-1.6 5-3.2 6.4a8.5 8.5 0 0 1-5.6 1.6h-7.1l-44 .2c-16.2 0-30.7 0-33.4-.2a6.7 6.7 0 0 1-5.6-3.4 9 9 0 0 1-1.1-4.8V143.7l.1-.2.6.5-.6-.5.1-.1.4-.4a331 331 0 0 1 5.7-7.5c3.8-4.7 9-11.1 14.5-17.5 5.6-6.4 11.5-12.8 16.7-17.6 2.7-2.4 5.2-4.4 7.4-5.9 2.1-1.4 4.1-2.3 5.8-2.3 2 0 4.4 1 6.8 2.3 2.4 1.5 5 3.5 7.6 5.9 5.3 4.8 11 11.2 16 17.6A360 360 0 0 1 96 143.4l.1.1zM47 97.7h.1a9 9 0 0 1 5.9 1.8c1.3 1 1.9 2.5 1.9 4 0 1.4-.4 3-1.5 4.2s-2.9 2-5.3 2a6.6 6.6 0 0 1-6.8-6.3c0-1.7.8-3 1.9-4 1-.8 2.4-1.4 3.8-1.7m.2 1.5c-1.1.3-2.2.7-3 1.4s-1.3 1.6-1.3 2.9c0 .6.3 1.8 1.1 2.9a5 5 0 0 0 4.1 1.8c2 0 3.4-.7 4.1-1.5.8-1 1.2-2.1 1.2-3.2 0-1-.4-2-1.4-2.9-1-.8-2.5-1.4-4.8-1.4" clip-rule="evenodd"/><path fill="#1A1B22" fill-rule="evenodd" d="M51.6 73.8A248 248 0 0 0 53.3 35h1.5a341.5 341.5 0 0 1-5.1 62.8 28 28 0 0 1-1 3c-.6 1-1.2 1.5-1.8 1.8a2 2 0 0 1-2-.3 4 4 0 0 1-1-1.3c-.3-.4-.5-1-.6-1.3l1.4-.4.5 1 .6.8h.5c.3 0 .6-.3 1-1a27 27 0 0 0 .8-2.7l1.2-5.9c.7-4.7 1.6-11 2.3-17.7m22.3-58c3.4-3 7.7-2.2 10.5-.4l-.8 1.2c-2.5-1.5-6-2.1-8.7.3-2.8 2.5-5 8.4-4.2 20.6 2 30.4 5 40.3 6.5 45.3l-1.4.4c-1.5-5-4.5-15.1-6.5-45.7-.9-12.2 1.3-18.7 4.6-21.7" clip-rule="evenodd"/><path fill="#fff" fill-rule="evenodd" d="M80.5 82.5c-11.5 0-50 51-50 51v151c-.2 2.3.8 7.1 6 7.5 5.4.4 57.8.1 77.3 0h7.2c4 0 7-1.5 8-7.5.8-4.8.3-101 0-151 0 0-33.5-51-48.5-51m0 5.5c-2.5.5-5 2-5 5 0 1.6 1.5 5.5 6 5.5s6-3 6-5.5-2-5-7-5" clip-rule="evenodd"/><path fill="#1A1B22" fill-rule="evenodd" d="M31.2 133.8v150.7c0 1.1.2 2.7 1 4.1.7 1.3 2 2.5 4.4 2.7 2.6.2 17 .2 33.3.2a13551 13551 0 0 0 51.1-.3 7 7 0 0 0 4.7-1.3c1.1-1 2-2.6 2.6-5.5v-1.9l.2-3.8.1-12.8v-40c0-30.8-.2-67.2-.3-92.2l-.3-.4a248 248 0 0 0-5-7.3 358 358 0 0 0-13.2-17.5A160 160 0 0 0 93.9 91a47.3 47.3 0 0 0-7.4-5.7c-2.3-1.3-4.3-2-6-2-1.2 0-3 .6-5 2a57 57 0 0 0-7.2 5.7c-5.2 4.8-11 11.1-16.5 17.5a522 522 0 0 0-20.3 24.9zm97.8-.3.6-.4.1.2v.2a20884 20884 0 0 1 .3 145.2 186 186 0 0 1-.3 6c-.5 3-1.5 5.1-3.1 6.4a8.5 8.5 0 0 1-5.6 1.6h-7.1l-44 .3c-16.2 0-30.7 0-33.5-.3a6.7 6.7 0 0 1-5.6-3.4 9 9 0 0 1-1-4.8V133.2l.1-.2.6.5-.6-.5.1-.1a170 170 0 0 1 6.1-7.8 526 526 0 0 1 14.5-17.6c5.6-6.4 11.5-12.8 16.7-17.6 2.7-2.4 5.1-4.4 7.3-5.8s4.2-2.3 5.9-2.3c2 0 4.4.8 6.8 2.2 2.4 1.5 5 3.5 7.6 6 5.3 4.7 11 11.1 16 17.5a360 360 0 0 1 18.3 25l.3.4.1.2zM80.4 87.2h.1a9 9 0 0 1 5.9 1.8c1.3 1 1.8 2.5 1.8 4 0 1.4-.4 3-1.5 4.2-1 1.2-2.8 2-5.2 2a6.6 6.6 0 0 1-6.8-6.3c0-1.6.8-3 1.9-3.9 1-1 2.4-1.5 3.8-1.7zm.2 1.6c-1.2.2-2.3.6-3 1.3-.8.7-1.4 1.6-1.4 2.9a5.2 5.2 0 0 0 5.3 4.8c2 0 3.4-.7 4.1-1.6.8-.9 1.2-2 1.2-3.2 0-1-.5-2-1.4-2.9-1-.7-2.5-1.3-4.8-1.3" clip-rule="evenodd"/><path fill="#1A1B22" fill-rule="evenodd" d="M85 63.8c1.5-13.3 2.5-28.6 1.8-38.2l1.4-.2a327.6 327.6 0 0 1-5.1 61.8 27 27 0 0 1-1 3.2c-.5.9-1.1 1.4-1.8 1.7a2 2 0 0 1-1.8-.3c-.5-.3-.9-.8-1.2-1.3l-.5-1.3 1.4-.4c0 .3.2.6.4 1l.7.8h.5c.2 0 .6-.3 1-1l.4-.9.5-1.8A326 326 0 0 0 85 63.7z" clip-rule="evenodd"/><path fill="#fff" d="m378 229 44.5 104.5 115-3c3.5-3 6-14 4-22.5-1.6-6.8-9.7-21.8-13.5-28.4l2.5-.1c7 0 8-16 9.5-26s-4-23-8-28.5a20 20 0 0 0-8.5-7c-1-11-7.5-14.5-12-17.5-3.6-2.4-7 1-8.1 3l-1.9-12c-2.5-17-7-15.5-13-16.5-4.8-.8-17.3 5.7-23 9-5.2.8-12.1-1.9 1.5-19.5 17-22 17.5-35 11.5-37s-13 2-21.5 5.5-74 64.5-79 70.5-3 18.5 0 25.5"/><path fill="#1A1B22" fill-rule="evenodd" d="m461.6 131.9-4.3 1.8-2.1 1.2-3.4 2.5c-2.6 2-5.8 4.7-9.5 7.8a1723 1723 0 0 0-50.5 45.8c-7 6.6-12 11.5-13.2 13-2.3 2.8-3.1 7.1-2.9 11.8.3 4.7 1.5 9.5 3 13l44.3 104 114.2-3a10 10 0 0 0 2-3.2 32.2 32.2 0 0 0 1.6-18.4 80 80 0 0 0-5.9-14.1c-2.6-5.2-5.4-10.4-7.3-13.8h-.6c-1.8.2-3.2.2-4.7-.2-1.8-.5-3.7-1.6-6.8-4l1-1.2c3 2.4 4.7 3.4 6.2 3.8 1.3.3 2.4.3 4.2.2a156 156 0 0 1 3.6-.1q2.1 0 3.6-2.4a21 21 0 0 0 2.5-6.3c1-3.8 1.5-8.2 2-12.2l.7-4.5a47.3 47.3 0 0 0-7.9-28 21 21 0 0 0-7-6.2 484 484 0 0 1 1 41.1 49 49 0 0 1-.8 6.6c0 .4-.3.8-.6 1.1l-1.2 1.3a68 68 0 0 1-5 4.5 4 4 0 0 1-1 .4h-1l.4-1.4h.3l.6-.3a65 65 0 0 0 4.6-4.2c.4-.5.8-1 1.3-1.3v-.2l.2-.4.3-1.4.4-4.8a460 460 0 0 0-1.2-42.2 19 19 0 0 0-4.5-11.3c-1.9-2.1-4.1-3.6-6.2-5l-1-.6c-1.4-1-2.9-.8-4.1 0a8.5 8.5 0 0 0-2.8 2.6l.5 2.8 3.9 25.4a233 233 0 0 1 1.5 14.5v1.1l-.4 1a26.4 26.4 0 0 1-5.2 4.2l-.8-1.4a24.7 24.7 0 0 0 4.8-3.7v-1.3l-.1-3.3-1.3-10.9c-1-7.6-2.6-17-3.9-25.4l-.5-3-1.8-12c-1.3-8.6-3-12.2-5-13.9-1-.8-2-1.2-3.2-1.5-.7 0-1.3-.2-2-.3h-.3l-2-.3c-1-.1-2.5 0-4.4.6-2 .6-4 1.4-6.3 2.3-4.4 2-9 4.4-11.7 6l-.1.1h-.2c-1.3.3-2.9.3-4.2-.2a4.3 4.3 0 0 1-3-3.2c-.3-1.6 0-3.7 1.2-6.5s3.4-6.3 6.8-10.8a74.2 74.2 0 0 0 14.2-25.7c.8-3 .8-5.4.3-7-.5-1.7-1.4-2.7-2.6-3-2.8-1-5.9-.6-9.4.6-2.3.8-4.7 1.8-7.3 3m42.2 69.7c.6-.7 1.4-1.4 2.4-2a5.2 5.2 0 0 1 5.7.3l1 .6c2 1.3 4.4 2.9 6.5 5.3 2.3 2.6 4.2 6.3 4.8 11.7 1.8.7 5.4 3 8.4 7a48.8 48.8 0 0 1 8.1 29.1 22.5 22.5 0 0 1-5.4 23.6c-1.1 1.8-2.7 3-4.8 3h-1.2l7 13.2a81 81 0 0 1 6 14.4 33.7 33.7 0 0 1-1.7 19.4c-.7 1.6-1.6 3-2.6 3.9l-.2.1-115.8 3-.2-.4c-13.8-32.5-42-99-44.5-104.5a41.3 41.3 0 0 1-3-13.4c-.3-4.8.4-9.7 3.1-12.9 1.3-1.5 6.4-6.5 13.3-13.1a1716 1716 0 0 1 50.6-45.8 272 272 0 0 1 13-10.4c1-.7 1.8-1.1 2.4-1.4l4.2-1.8c2.7-1.1 5.2-2.2 7.6-3 3.6-1.2 7-1.8 10.2-.7 1.8.6 3 2 3.6 4s.6 4.7-.2 7.9c-1.5 6.4-6 15.2-14.5 26.3a51.8 51.8 0 0 0-6.6 10.4c-1.2 2.6-1.3 4.4-1 5.6.2 1 1 1.7 1.9 2 1 .4 2.2.5 3.3.3a119 119 0 0 1 18.3-8.4c2-.6 3.8-.9 5.1-.6l2 .2h.2l2 .4c1.4.3 2.8.7 4 1.8 2.4 2 4.2 6.2 5.4 14.7zM358.4 18.7c1.6-.3 3.4.2 4.2 1.4l-1.2.8c-.4-.5-1.4-1-2.8-.8-1.3.2-2.8 1-3.9 2.5-2 3-2.8 9.6 3.5 21.6A345 345 0 0 0 382.6 86l-1.2.8c-3-4.2-10.7-15.4-24.6-42-6.2-12.1-6-19.3-3.3-23.1a7.2 7.2 0 0 1 4.9-3.1z" clip-rule="evenodd"/><path fill="#FF444F" fill-rule="evenodd" d="M362.4 122.2c-2.1 4.8-4.1 9.2-5.9 12.8 19.8 45.8 59.9 138.3 61.5 141.5 2 4 5 9.5 16 11 9 1.2 50.8.4 68.2.1l7.3-.1c4.5 0 12.5-1 7-13-4.4-9.6-44.2-101-63.5-145.5-18-14.3-57-45-68.5-43.5-5.8.8-14.7 20.5-22.1 36.7M389 91c-3 .5-4.5 4-3.5 6s5.5 4 8.5 3 4.5-5 2-7-5.5-2.6-7-2" clip-rule="evenodd"/><path fill="#1A1B22" fill-rule="evenodd" d="M381.3 65.7a446 446 0 0 0-14-35.4l1.4-.6a447 447 0 0 1 22 61.7c.2 1 .1 1.8-.4 2.4s-1.2.6-1.8.5a5 5 0 0 1-1.5-.6 5 5 0 0 1-1-.7l1-1 .7.4c.4.2.7.4 1 .4h.5s.2-.3 0-1.2c-.2-1.7-1.1-5.1-2.5-9.7s-3.3-10.2-5.4-16.2" clip-rule="evenodd"/><path fill="#fff" d="M426.5 277.5a69.7 69.7 0 0 1-7 22.5l12 33.5 93.5-2a59 59 0 0 0-17-27.5c-15-15-35-22-40-28s-6.5-20-10.5-35.5-16.5-42-25-53.5-21-3-22.5 3.5 1.5 20.5 9.5 45c8 24.3 7.5 32.4 7 41.8z"/><path fill="#1A1B22" fill-rule="evenodd" d="M413.5 186.1a10 10 0 0 0-2.8 4.6c-.7 3-.3 8 1.2 15.4 1.6 7.3 4.3 17 8.3 29.2a151 151 0 0 1 6.7 26.6c.8 6.3.6 10.7.4 15.4v.2c-.3 4-1.5 8.6-3 12.7-1.3 4-2.9 7.6-4 9.8l11.7 32.7 92-2c-1-4.5-5.4-15-16.5-26.2a114 114 0 0 0-23.6-17.2L480 285l-6.1-3.7c-2.9-1.7-5.1-3.3-6.5-5a37.3 37.3 0 0 1-5.8-14.4l-1.8-8.2-.4-1.9c-.8-3.6-1.6-7.4-2.6-11.2-2-7.7-6.1-18.2-10.8-28.1-4.7-10-9.9-19.5-14.1-25.2-2-2.7-4.3-4.2-6.5-4.9s-4.5-.5-6.5.2c-2.1.7-4 2-5.4 3.4zm12.3-5c2.6.7 5.1 2.5 7.3 5.5 4.3 5.8 9.6 15.3 14.3 25.3a178.8 178.8 0 0 1 13.5 39.7c0 .6.2 1.2.4 1.8a357 357 0 0 0 1.8 8.2 36 36 0 0 0 5.5 14 26 26 0 0 0 6 4.6l6.2 3.5 3.8 2.3c7.5 4.4 16.4 9.9 24 17.5 12 12 16.4 23.5 17.1 27.9l.2.8-95 2-12.2-34.2.1-.3a88 88 0 0 0 4.2-10 48 48 0 0 0 2.8-12.2v-.3c.2-4.7.4-9-.4-15.1-.8-6.2-2.7-14.2-6.6-26.4-4-12.2-6.8-21.9-8.3-29.3a41 41 0 0 1-1.2-16c.4-1.9 1.5-3.7 3.1-5.3s3.7-3 6-3.8a12 12 0 0 1 7.4-.2" clip-rule="evenodd"/><path fill="#fff" d="m493.5 302.5-76-2.5 12 32.5zm-73-86.5c-2.5-2-6.5-9.5-8.5-19.5s1.6-16 4-17c2.5-1 10-5.5 16.5 11 5.2 13.2 5.8 19.5 5.5 21a279 279 0 0 0-11.5 2.5 77 77 0 0 0-6 2"/><path fill="#1A1B22" fill-rule="evenodd" d="m416.8 180-.5.2c-.4.2-1 .6-1.6 1.4s-1.2 1.9-1.6 3.2c-1 2.8-1.3 6.7-.4 11.6 1 4.9 2.5 9.2 4 12.5 1.5 3 2.9 5.2 4 6.2l1-.3c-.3-1.1 0-2.6.4-4a6.5 6.5 0 0 1 3.6-4c2.4-.9 4.4 0 6 1.3 1.2 1 2.1 2.4 2.7 3.3l3-.5-.1-1.4a103.4 103.4 0 0 0-5.5-18.7c-3.2-8.2-6.6-11-9.2-11.6-2.4-.7-4.4.2-5.8.8m16 31.8c-.5-.8-1.3-1.8-2.2-2.5-1.2-1.1-2.7-1.7-4.3-1.1-1.4.5-2.3 1.7-2.8 3.2-.4 1-.5 2-.4 2.9a77.5 77.5 0 0 1 9.7-2.5m-9.9-34c3.4.8 7 4 10.3 12.4a105 105 0 0 1 5.6 19.2 8 8 0 0 1 0 2.3l-.2.4-.5.1a278 278 0 0 0-11.4 2.5 76 76 0 0 0-6 2l-.3.2-.4-.3c-1.4-1.1-3-3.6-4.6-7a58.6 58.6 0 0 1-4.1-13c-1-5-.6-9.2.3-12.2a13 13 0 0 1 1.9-3.7 5.6 5.6 0 0 1 2.7-2.1 10 10 0 0 1 6.7-.9zM85.5 157.5a21 21 0 1 0 0-42 21 21 0 0 0 0 42m0 1.5a22.5 22.5 0 1 0 0-45 22.5 22.5 0 0 0 0 45M72 166.3c0-.5.3-.8.8-.8h25.5a.8.8 0 0 1 0 1.5H72.8a.8.8 0 0 1-.8-.8zm0 6c0-.5.3-.8.8-.8h25.5a.8.8 0 0 1 0 1.5H72.8a.8.8 0 0 1-.8-.8zm0 6c0-.5.3-.8.8-.8h25.5a.8.8 0 0 1 0 1.5H72.8a.8.8 0 0 1-.8-.8zm-26 13c0-.5.3-.8.8-.8h71.5a.8.8 0 0 1 0 1.5H46.8a.8.8 0 0 1-.8-.8zm0 39c0-.5.3-.8.8-.8h71.5a.8.8 0 0 1 0 1.5H46.8a.8.8 0 0 1-.8-.8zm0 7c0-.5.3-.8.8-.8h71.5a.8.8 0 0 1 0 1.5H46.8a.8.8 0 0 1-.8-.8zm0 7c0-.5.3-.8.8-.8h71.5a.8.8 0 0 1 0 1.5H46.8a.8.8 0 0 1-.8-.8zm150 19c0-.5.3-.8.8-.8h71.4a.8.8 0 0 1 0 1.5h-71.4a.8.8 0 0 1-.8-.8zm10-97c0-.5.3-.8.8-.8h54.4a.8.8 0 0 1 0 1.5h-54.4a.8.8 0 0 1-.8-.8zm0 20c0-.5.3-.8.8-.8h54.4a.8.8 0 0 1 0 1.5h-54.4a.8.8 0 0 1-.8-.8zm287-62c0-.5.3-.8.8-.8h50.4a.8.8 0 0 1 0 1.5h-50.5a.8.8 0 0 1-.7-.8zm0 7c0-.5.3-.8.8-.8h50.4a.8.8 0 0 1 0 1.5h-50.5a.8.8 0 0 1-.7-.8zm0 10c0-.5.3-.8.8-.8h20.4a.8.8 0 0 1 0 1.5h-20.5a.8.8 0 0 1-.7-.8zm41 28c0-.5.3-.8.8-.8h22.5a.8.8 0 0 1 0 1.5h-22.5a.8.8 0 0 1-.8-.8zm-3.4-9.9a.7.7 0 0 1 .2-1l34.3-22.3a.8.8 0 0 1 .8 1.3l-34.3 22.2c-.3.2-.8.1-1-.2m14.7 94.9c.1-.4.5-.6 1-.5l20.5 7.5a.7.7 0 0 1-.5 1.4l-20.6-7.4a.8.8 0 0 1-.4-1m-11.3-79c0-.5.3-.8.8-.8h22.5a.8.8 0 0 1 0 1.5h-22.5a.8.8 0 0 1-.8-.8zm-7 11c0-.5.3-.8.8-.8h29.5a.8.8 0 0 1 0 1.5h-29.5a.8.8 0 0 1-.8-.8zm-4 7c0-.5.3-.8.8-.8h33.5a.8.8 0 0 1 0 1.5h-33.5a.8.8 0 0 1-.8-.8zm14 8c0-.5.3-.8.8-.8h19.5a.8.8 0 0 1 0 1.5h-19.5a.8.8 0 0 1-.8-.8zm9 9c0-.5.3-.8.8-.8h10.5a.8.8 0 0 1 0 1.5h-10.5a.8.8 0 0 1-.8-.8zm-50-62c0-.5.3-.8.8-.8h11.4a.8.8 0 0 1 0 1.5h-11.4a.8.8 0 0 1-.8-.8zm-290 46c0-.5.3-.8.8-.8h54.4a.8.8 0 0 1 0 1.5h-54.4a.8.8 0 0 1-.8-.8zm0 11c0-.5.3-.8.8-.8h54.4a.8.8 0 0 1 0 1.5h-54.4a.8.8 0 0 1-.8-.8zm0 7c0-.5.3-.8.8-.8h54.4a.8.8 0 0 1 0 1.5h-54.4a.8.8 0 0 1-.8-.8zm0 7c0-.5.3-.8.8-.8h14.4a.8.8 0 0 1 0 1.5h-14.4a.8.8 0 0 1-.8-.8zm-160 32c0-.5.3-.8.8-.8h40.5a.8.8 0 0 1 0 1.5H46.8a.8.8 0 0 1-.8-.8zm150 19c0-.5.3-.8.8-.8h40.4a.8.8 0 0 1 0 1.5h-40.4a.8.8 0 0 1-.8-.8zm10-97c0-.5.3-.8.8-.8h30.4a.8.8 0 0 1 0 1.5h-30.4a.8.8 0 0 1-.8-.8zm-160 91c0-.5.3-.8.8-.8h32.5a.8.8 0 0 1 0 1.5H46.8a.8.8 0 0 1-.8-.8zm49 0c0-.5.3-.8.8-.8h22.5a.8.8 0 0 1 0 1.5H95.8a.8.8 0 0 1-.8-.8zm-49 8c0-.5.3-.8.8-.8h32.5a.8.8 0 0 1 0 1.5H46.8a.8.8 0 0 1-.8-.8zm49 0c0-.5.3-.8.8-.8h22.5a.8.8 0 0 1 0 1.5H95.8a.8.8 0 0 1-.8-.8zm22.5-68.8h-70v6h70zM46 202v9h73v-9zm219.5-67.5h-70v6h70zM194 133v9h73v-9zm71.5 98.5h-70v6h70zM194 230v9h73v-9zm-94.5-13.5h-52v6h52zM46 215v9h55v-9zm201.5-67.5h-52v6h52zM194 146v9h55v-9zm53.5 98.5h-52v6h52zM194 243v9h55v-9z" clip-rule="evenodd"/><path fill="#1A1B22" d="M200 166.5a2.5 2.5 0 1 1-5 0 2.5 2.5 0 0 1 5 0m0 20a2.5 2.5 0 1 1-5 0 2.5 2.5 0 0 1 5 0m0 18a2.5 2.5 0 1 1-5 0 2.5 2.5 0 0 1 5 0"/><path fill="#1A1B22" fill-rule="evenodd" d="M634 138.8a50.7 50.7 0 0 0-23.5 11.8l-1-1.2a52.2 52.2 0 0 1 24.2-12.1c7.9-1.3 15 .5 18.5 7.4 2 3.9 2 7.7.8 11.2a25.7 25.7 0 0 1-6.5 9.5 97.6 97.6 0 0 1-15 11.3l-2.3 1.6a65 65 0 0 1 17 8.3c2.6 2 4.9 4.3 6 6.8 1 2.6.9 5.3-1 8-4.8 6.5-13.3 9.7-21.4 9.8-8.2.2-16.2-2.7-20-8.8l1.3-.8c3.3 5.4 10.8 8.3 18.6 8.2 7.9-.2 15.9-3.2 20.2-9.2a6.3 6.3 0 0 0 .9-6.6c-1-2.1-3-4.2-5.5-6.1-5.3-4-12.7-7-18-8.7l-1.5-.4 1.3-1 3.7-2.4c4.6-3 10.2-6.7 14.6-11 2.8-2.9 5-5.8 6.2-9 1-3.2 1-6.5-.8-10-3-6-9.3-8-16.9-6.6zm28.6 96.9c-6.3.5-11 4.3-13.4 9.1q-.9 1.8-1.2 4.5a56 56 0 0 0-.3 5.8v5.7c-.1 1.7-.2 3.3-.5 4.4-.1.7-.6 1.3-1.2 2a24 24 0 0 1-2.2 2.2 239 239 0 0 0-6 5 47.6 47.6 0 0 0-5.6 5.6c-1.6 1.8-2.5 3.5-2.5 5 0 2.8.3 4.6.6 5.8l.4 1.3.2.3-.8 1.2c-.3-.2-.5-.5-.7-.9l-.6-1.5c-.3-1.4-.5-3.4-.5-6.2 0-2 1.1-4 2.7-6a49 49 0 0 1 8.4-7.8l3.4-3c.9-.7 1.6-1.4 2-2 .6-.6.9-1 1-1.4a173 173 0 0 0 .4-7v-2.7l.3-6c.3-1.8.6-3.6 1.3-5 2.6-5.1 7.9-9.3 14.6-9.8z" clip-rule="evenodd"/><path fill="#fff" d="M313.5 212.5a110 110 0 0 0-24-15.5v100c0 5 5.5 7 8 7s82.8 3.2 86 0c5-5 5.3-12.3 5-15.5-23.3-23.8-69.8-70.8-75-76"/><path fill="#1A1B22" fill-rule="evenodd" d="M392 303.3H268.5v-1.6H392zm32.1-172.6-21.5 3a.7.7 0 1 1-.2-1.4 1641 1641 0 0 1 35.1-4.6h.7l1 .7.8.9c.5.6 1 1.5 1.4 2.3s.7 1.7.7 2.5c0 .3 0 .8-.4 1.1q-.45.6-1.2.6l-5 .4a1258 1258 0 0 0-32 3.5h-.3l-4.8-6.3a.8.8 0 0 1 1.2-.8l4.2 5.6a4235 4235 0 0 1 36.8-4.1c0-.4-.2-1-.5-1.8a11.5 11.5 0 0 0-2-2.8l-.3-.3h-1.2l-3 .3zm-32.7 1.5.2.4a467 467 0 0 1 14.7 25.4 27 27 0 0 1 1.5 3.8l-.1 1a2 2 0 0 1-.6.8 5 5 0 0 1-1 .5l-2.5 1c-2 .6-4.5 1.1-7 1.6a151 151 0 0 1-11.6 1.6 1 1 0 0 1-.6-.2 2 2 0 0 1-.3-.3l-.6-.7-1.4-2.5a523 523 0 0 1-11.3-26.3.8.8 0 0 1 1.4-.6 521 521 0 0 0 11.2 26.2 24 24 0 0 0 1.8 2.8 150 150 0 0 0 18-3.1 15.4 15.4 0 0 0 3-1.2v-.4a461 461 0 0 0-15.7-28.3l-19 2a.7.7 0 1 1 0-1.5zm49.8 8.2c.1.4-.2.8-.6.8l-31.5 4a.8.8 0 0 1-.2-1.4l31.5-4c.4-.1.8.2.8.6m-1.5 5c.1.4-.2.8-.6.8l-27.5 4a.7.7 0 1 1-.2-1.4l27.5-4c.4-.1.8.2.8.6m-2 5c.1.4-.2.8-.6.8l-24 4a.8.8 0 0 1-.2-1.4l24-4c.4-.1.8.2.8.6m22 21.3v.1l.7.7c.6.6 1.2 1.6 1.8 2.6a31 31 0 0 1 2 4.6h-.3l-2.1.6-7.4 1c-5.8.8-12.8 1.5-17.5 2a.8.8 0 0 0 .2 1.4 504 504 0 0 0 25-3 21 21 0 0 0 3-.8c.2 0 .3-.2.4-.3s.3-.3.3-.6-.1-.7-.3-1c0-.5-.3-1-.5-1.4a32.7 32.7 0 0 0-3.4-6.1l-1-1c-.3-.1-.8-.4-1.3-.2h-.3a32 32 0 0 1-3 .4l-8.3 1-12.4 1.5a11032 11032 0 0 0-44.4 5.4 72 72 0 0 0-3.8.8c-.6.3-.6 1-.6 1.4s.3.9.5 1.4a44.6 44.6 0 0 0 6.6 8.5c.3.2.8.2 1.2.3h1.4l3.4-.6 1-.1a70 70 0 0 1 5.1-1c.1-.5 0-.9-.5-1l-1-.1-1.5.1-2.5.5-.8.1a37 37 0 0 1-4.9.5 43 43 0 0 1-6-7.8l-.5-1 .7-.1 2.4-.4 8.2-1.1a2731 2731 0 0 1 36.2-4.3l12.4-1.5a1116 1116 0 0 0 11.7-1.5zm-12.2 18-4.8 1a.8.8 0 0 1-.4-1.4 52 52 0 0 1 7.4-1.3h1c.2.1.6.2.8.5l1.2 1.5a37 37 0 0 1 2.7 4.8c.2.3.3.7.3 1 .1.3.2.7 0 1l-.4.5-.4.2-1 .3-2.5.6c-2 .4-4.3.7-5.8.8a.7.7 0 1 1-.2-1.4 88 88 0 0 0 8.9-1.7l-.3-.8-1-2.2a36 36 0 0 0-2.6-3.6h-.7c-.6 0-1.4 0-2.2.2m-40.8 5.7c0 .4-.2.8-.6.8l-.6.1c-1.6.2-3.6.3-5.3.6a15 15 0 0 0-3 .8v.3l.5 1 1.6 2.5c1.3 1.8 2.8 3.5 3.2 4h1.8a36 36 0 0 0 3.6-.7.7.7 0 1 1 .2 1.4 77 77 0 0 0-3.6.8c-.6 0-1.1.1-1.6 0-.5 0-1 0-1.4-.5a44 44 0 0 1-5.2-6.8l-.5-1.2a2 2 0 0 1 0-1.2c.1-.4.4-.7.7-.8l1-.5 2.5-.6 5.4-.6h.5c.4 0 .8.2.8.6m67.5 10.5c.1.4-.2.8-.6.8l-22.5 3.5a.7.7 0 1 1-.2-1.4l22.5-3.5c.4-.1.8.2.8.6m3 7.5c.1.4-.2.8-.6.8l-21.5 3a.8.8 0 1 1-.2-1.4l21.5-3c.4-.1.8.2.8.6m2.5 5.5c.1.4-.2.8-.6.8l-19.5 3a.8.8 0 0 1-.2-1.4l19.5-3c.4-.1.8.2.8.6m1 6c.1.4-.2.8-.6.8l-19 3a.8.8 0 0 1-.2-1.4l19-3c.4-.1.8.2.8.6m-3.7 13.8c-4.5.7-9.9 1.8-13.3 2.5a.7.7 0 1 1-.4-1.4 260 260 0 0 1 19.6-3.3 16 16 0 0 1 3 0l.6.5a33.5 33.5 0 0 1 5 7.7c.2.3.3.8.2 1.2 0 .2-.2.5-.5.6-.2.2-.5.3-.7.3h-1.1a97 97 0 0 0-9.2 1.6l-15 2.8a.8.8 0 0 1-.3-1.4A1599 1599 0 0 1 490 245c-.1-.6-.6-1.4-1.2-2.4a33 33 0 0 0-3.5-4.7 74 74 0 0 0-8.4.7zm16.2 19.2c0 .4-.2.8-.6.8l-21 2a.8.8 0 0 1-.2-1.4l21-2c.4 0 .8.2.8.6m2 8c0 .4-.2.8-.6.8l-18 2a.7.7 0 1 1-.2-1.4l18-2c.4 0 .8.2.8.6m4 7c0 .4-.2.8-.6.8l-19.5 2a.7.7 0 1 1-.2-1.4l19.5-2c.4 0 .8.2.8.6" clip-rule="evenodd"/><path fill="#FF444F" d="M499 171.5c10.8 0 14.5-8.4 14.5-17.5 0 9.1 3.7 17.5 14.5 17.5-10.8 0-14.5 8.4-14.5 17.5 0-9-3.7-17.5-14.5-17.5"/><path fill="#FF444F" fill-rule="evenodd" d="M499 171.8v-.6c5.3 0 8.9-2 11.1-5.2a21 21 0 0 0 3.1-12h.6c0 4.5.9 8.9 3.1 12 2.2 3.2 5.8 5.2 11.1 5.2v.6c-5.3 0-8.9 2-11.1 5.2a21 21 0 0 0-3.1 12h-.6c0-4.4-.9-8.8-3.1-12-2.2-3.1-5.8-5.2-11.1-5.2m14.5 13.2c.4-3.1 1.3-6 3-8.3 1.8-2.7 4.6-4.5 8.4-5.2-3.8-.7-6.6-2.5-8.4-5.2a18.7 18.7 0 0 1-3-8.3c-.4 3.1-1.4 6-3 8.3a12.4 12.4 0 0 1-8.4 5.2c3.8.7 6.6 2.6 8.4 5.3 1.6 2.3 2.6 5.2 3 8.2" clip-rule="evenodd"/><path fill="#FF444F" d="M313 156.5c10.8 0 14.5-8.4 14.5-17.5 0 9.1 3.7 17.5 14.5 17.5-10.8 0-14.5 8.4-14.5 17.5 0-9-3.7-17.5-14.5-17.5"/><path fill="#FF444F" fill-rule="evenodd" d="M313 156.8v-.6c5.3 0 8.9-2 11.1-5.2a21 21 0 0 0 3.1-12h.6c0 4.5.9 8.9 3.1 12 2.2 3.2 5.8 5.2 11.1 5.2v.6c-5.3 0-8.9 2-11.1 5.2a21 21 0 0 0-3.1 12h-.6c0-4.4-.9-8.8-3.1-12-2.2-3.1-5.8-5.2-11.1-5.2m14.5 13.2c.4-3.1 1.3-6 3-8.3 1.8-2.7 4.6-4.5 8.4-5.2-3.8-.7-6.6-2.5-8.4-5.2a18.7 18.7 0 0 1-3-8.3c-.4 3.1-1.4 6-3 8.3a12.4 12.4 0 0 1-8.4 5.2c3.8.7 6.6 2.6 8.4 5.3 1.6 2.3 2.6 5.2 3 8.2" clip-rule="evenodd"/></g><defs><clipPath id="a"><path fill="#fff" d="M0 0h661.5v328.2H0z"/></clipPath></defs></svg>